<?xml version="1.0" encoding="UTF-8"?>
<svg xmlns="http://www.w3.org/2000/svg" width="32" height="32" viewBox="0 0 32 32">
  <path fill="#b8383d" d="M20.36 8.76L20.36 12.32L20.28 12.40Q20.25 12.48 20.20 12.48Q19.82 12.86 19.24 13Q18.62 13.22 17.23 13.52L16.88 13.60Q15.36 13.87 12.88 14.20Q11.52 14.36 10.84 14.52L10.84 10.96Q10.92 10.88 11.19 10.88Q13.15 10.55 14.40 10.44L15.36 10.31Q16.63 10.12 17.29 9.98Q18.35 9.79 19.16 9.52L19.27 9.46Q19.68 9.30 19.87 9.19Q20.20 9 20.36 8.76M20.36 13.52L20.36 17.08L20.20 17.24Q19.82 17.54 19 17.87L18.84 17.92Q17.48 18.28 16.80 18.36Q16.36 18.44 15.56 18.56Q14.76 18.68 14.32 18.77L13.21 18.93Q11.66 19.12 10.84 19.28L10.84 15.72Q10.92 15.64 11.08 15.64Q11.82 15.56 13.26 15.34Q14.70 15.12 15.44 15.04Q17.40 14.77 19.08 14.28Q19.54 14.12 19.79 13.98Q20.12 13.79 20.36 13.52M11.08 24.02L10.92 24.04L10.84 24.04L10.84 20.48Q10.92 20.40 11.08 20.40Q11.60 20.32 12.58 20.18Q13.56 20.04 14.08 19.96L14.97 19.83Q16.33 19.64 16.99 19.53Q18.10 19.31 19 19.04Q19.52 18.88 19.73 18.74Q20.14 18.55 20.36 18.28L20.36 21.84Q20.31 21.95 20.12 22.11L19.92 22.28Q19.30 22.57 18.32 22.85Q17.42 23.09 15.55 23.39L15.16 23.44Q12.96 23.80 11.87 23.88Q11.57 23.88 11.08 24.02"/>
</svg>