<?xml version="1.0" encoding="UTF-8"?>
<svg xmlns="http://www.w3.org/2000/svg" width="32" height="32" viewBox="0 0 32 32">
  <path fill="#3b4b52" d="M10.84 22.17L21.48 11.56Q21.64 11.20 21.64 11.04Q21.53 10.58 21.16 10.46Q20.80 10.33 20.36 10.61L18.65 12.32Q18.56 12.40 18.32 12.40Q16.85 11.83 15.42 11.84Q14 11.86 12.55 12.48Q9.89 13.65 8.04 16.48Q7.90 16.75 7.92 16.96Q7.93 17.16 8.12 17.32Q8.77 18.11 9.56 18.77Q10.08 19.20 11.08 19.88Q11.06 19.88 11.02 19.92Q10.98 19.96 10.92 19.96L10.49 20.37Q9.97 20.89 9.72 21.16Q9.45 21.46 9.56 21.92Q9.70 22.33 10.16 22.44Q10.60 22.44 10.84 22.17M12.88 18.09L12.28 18.68L12.12 18.68Q10.57 17.84 9.56 16.75Q11.03 14.82 12.72 13.92Q11.47 16.05 12.88 18.09M16.12 14.03Q15.98 14.44 15.52 14.44Q14.95 14.44 14.54 14.80Q14.13 15.15 14.08 15.72L14.08 15.96Q14.08 16.21 13.93 16.35Q13.78 16.48 13.55 16.48Q13.32 16.48 13.18 16.32Q13.04 16.16 13.04 15.88Q13.04 14.85 13.78 14.10Q14.51 13.35 15.52 13.35Q15.82 13.35 15.99 13.56Q16.17 13.76 16.12 14.03M23.08 16.40Q22.86 16.16 22.44 15.60Q22.02 15.04 21.80 14.80Q21.64 14.58 21.22 14.20Q20.80 13.82 20.60 13.60L19.60 14.60Q20.80 15.56 21.64 16.75Q21.48 16.92 21.39 16.92Q20.88 17.41 20.60 17.60Q17.94 19.75 14.92 19.36Q14.68 19.36 14.57 19.47Q14.24 19.80 14.08 20.04L13.56 20.56L13.64 20.56Q15.68 21 17.29 20.64Q20.60 20.07 23.08 17.16Q23.46 16.92 23.08 16.40"/>
</svg>