<?xml version="1.0" encoding="UTF-8"?>
<svg xmlns="http://www.w3.org/2000/svg" width="32" height="32" viewBox="0 0 32 32">
  <path fill="#7fae42" d="M24.09 10.72L24.11 10.72L24.11 22.28Q24.11 22.30 24.06 22.38Q24 22.47 24 22.52Q23.73 22.96 23.32 22.96L16.80 22.96L16.80 24.64Q16.66 24.61 16.36 24.56Q16.06 24.51 15.95 24.48Q15.65 24.42 15.02 24.30Q14.38 24.18 14.05 24.14Q13.72 24.10 13.04 23.96Q12.36 23.83 12.02 23.78Q11.68 23.74 11 23.62Q10.32 23.50 10.01 23.46Q9.70 23.42 9.06 23.28Q8.42 23.15 8.12 23.12Q7.96 23.06 7.66 23.02Q7.36 22.98 7.20 22.96L7.20 10.44Q7.22 10.44 7.36 10.40Q7.49 10.36 7.52 10.36Q8.26 9.84 9.48 9.68Q9.81 9.63 10.46 9.49Q10.95 9.38 11.17 9.36L11.38 9.30Q12.34 9.16 12.80 9Q13.10 8.97 13.74 8.84Q14.38 8.70 14.69 8.66Q15 8.62 15.64 8.50Q16.28 8.38 16.63 8.32L16.72 8.32L16.72 9.93L23.32 9.93Q23.60 9.93 23.81 10.10Q24.03 10.28 24.09 10.52L24.09 10.72M23.43 22L23.43 10.61L16.72 10.61L16.72 11.64L19 11.64L19 13.08L16.72 13.08L16.72 13.60L19 13.60L19 15.04L16.72 15.04L16.72 15.56L19 15.56L19 17L16.72 17L16.72 17.60L19.08 17.60L19.08 19.04L16.72 19.04L16.72 19.56L19 19.56L19 21L16.72 21L16.72 22L23.43 22M14.48 20.40Q14.48 20.37 14.47 20.34Q14.46 20.32 14.40 20.32Q14.10 19.72 13.46 18.52Q12.83 17.32 12.53 16.73L12.53 16.56Q13.40 14.88 14.40 13.08L14.40 13L14.32 13Q13.89 13 13.72 13.08Q13.23 13.08 12.88 13.16Q12.83 13.16 12.81 13.18Q12.80 13.19 12.80 13.24L12.12 14.69L11.60 15.88Q11.57 15.80 11.52 15.58Q11.47 15.37 11.44 15.28L10.68 13.44Q10.60 13.30 10.57 13.27Q10.54 13.24 10.39 13.24Q10.24 13.24 9.90 13.29Q9.56 13.33 9.40 13.33L9.04 13.33L9.04 13.44L9.32 14.01L10.60 16.56L10.60 16.64Q10.32 17.16 9.75 18.25Q9.24 19.20 8.96 19.72Q8.96 19.75 8.92 19.80Q8.88 19.85 8.88 19.88L9.40 19.88Q9.56 19.88 9.86 19.92Q10.16 19.96 10.32 19.96Q10.40 19.96 10.40 19.95Q10.40 19.94 10.40 19.88Q10.92 18.88 11.19 18.28Q11.22 18.14 11.34 17.88Q11.47 17.62 11.52 17.52Q11.52 17.32 11.60 17.24L11.60 17.32Q11.63 17.41 11.68 17.56Q11.74 17.71 11.76 17.76Q11.98 18.20 12.36 19.07L12.72 19.88L12.77 19.96Q12.85 20.04 12.96 20.04Q13.18 20.04 13.60 20.10Q14.02 20.15 14.24 20.15Q14.29 20.32 14.35 20.36Q14.40 20.40 14.48 20.40M19.68 11.64L22.32 11.64L22.32 13.08L19.68 13.08L19.68 11.64M22.32 21.16L19.68 21.16L19.68 19.72L22.32 19.72L22.32 21.16M22.32 17.16L19.68 17.16L19.68 15.72L22.32 15.72L22.32 17.16M19.68 13.68L22.32 13.68L22.32 15.12L19.68 15.12L19.68 13.68M19.68 17.76L22.32 17.76L22.32 19.20L19.68 19.20"/>
</svg>