<?xml version="1.0" encoding="UTF-8"?>
<svg xmlns="http://www.w3.org/2000/svg" width="32" height="32" viewBox="0 0 32 32">
  <path fill="#498ba7" d="M11.66 11.80L11.66 6.34L26.43 6.34L26.43 11.80L11.66 11.80M4.75 9.06Q4.75 10.06 5.40 10.76Q6.05 11.45 6.98 11.45Q7.90 11.45 8.57 10.76Q9.24 10.06 9.24 9.07Q9.24 8.08 8.57 7.38Q7.90 6.69 6.98 6.69Q6.05 6.69 5.40 7.38Q4.75 8.08 4.75 9.06M11.71 19.28L11.71 13.82L26.48 13.82L26.48 19.28L11.71 19.28M4.80 16.54Q4.80 17.52 5.45 18.21Q6.11 18.90 7.05 18.90Q7.98 18.90 8.64 18.21Q9.29 17.52 9.29 16.54Q9.29 15.56 8.64 14.86Q7.98 14.17 7.05 14.17Q6.11 14.17 5.45 14.86Q4.80 15.56 4.80 16.54M11.71 26.76L11.71 21.27L26.48 21.27L26.48 26.76L11.71 26.76M4.80 24.02Q4.80 25 5.45 25.69Q6.11 26.38 7.05 26.38Q7.98 26.38 8.64 25.69Q9.29 25 9.29 24.02Q9.29 23.04 8.64 22.34Q7.98 21.65 7.05 21.65Q6.11 21.65 5.45 22.34Q4.80 23.04 4.80 24.02"/>
</svg>