<?xml version="1.0" encoding="UTF-8"?>
<svg xmlns="http://www.w3.org/2000/svg" width="32" height="32" viewBox="0 0 32 32">
  <path fill="#498ba7" d="M23.62 21.70L23.62 15.01L20.25 11.67L17.56 8.97Q17.34 8.73 16.97 8.57Q16.61 8.40 16.31 8.40Q15.65 8.40 15.27 8.62L10.57 10.99L10.24 11.15L7.74 16.37Q7.52 16.84 7.52 17.16Q7.52 17.98 8.09 18.55L14.05 24.51L20.82 24.51L20.82 21.70L23.62 21.70M11.14 11.10L15.46 8.92Q15.76 8.73 16.31 8.73Q16.52 8.73 16.82 8.88Q17.12 9.03 17.31 9.22L19.22 11.12L19.16 11.12Q18.92 11.10 18.67 11.10L11.14 11.10M20.47 21.60L20.47 24.15L14.19 24.15L11.03 21Q10.73 20.70 10.65 20.47Q10.57 20.24 10.57 19.66L10.57 11.69"/>
</svg>