<?xml version="1.0" encoding="UTF-8"?>
<svg xmlns="http://www.w3.org/2000/svg" width="32" height="32" viewBox="0 0 32 32">
  <path fill="#7fae42" d="M23.24 8.84L7.96 8.84L7.96 23.96L23.24 23.96L23.24 8.84M10.40 13.08L10.40 11.97L14.76 11.97L14.76 13.08L10.40 13.08M16.36 13.08L16.36 11.97L20.71 11.97L20.71 13.08L16.36 13.08M10.40 15.64L10.40 14.52L14.76 14.52L14.76 15.64L10.40 15.64M16.36 15.64L16.36 14.52L20.71 14.52L20.71 15.64L16.36 15.64M10.40 18.20L10.40 17.08L14.76 17.08L14.76 18.20L10.40 18.20M16.36 18.20L16.36 17.08L20.71 17.08L20.71 18.20L16.36 18.20M10.40 20.72L10.40 19.64L14.76 19.64L14.76 20.72L10.40 20.72M16.36 20.72L16.36 19.64L20.71 19.64L20.71 20.72"/>
</svg>