<?xml version="1.0" encoding="UTF-8"?>
<svg xmlns="http://www.w3.org/2000/svg" width="32" height="32" viewBox="0 0 32 32">
  <path fill="#498ba7" d="M21.72 21.68L13.42 24.07Q13.23 24.12 13.08 23.99Q12.93 23.85 12.99 23.69L15.95 9.84Q15.98 9.65 16.20 9.63Q16.42 9.60 16.50 9.79L21.96 21.13Q22.05 21.30 21.98 21.46Q21.91 21.62 21.72 21.68M23.16 21.11L16.80 7.97Q16.66 7.72 16.43 7.57Q16.20 7.42 15.93 7.40Q15.65 7.37 15.40 7.51Q15.14 7.64 15 7.86L8.12 18.74Q7.96 18.98 7.96 19.28Q7.96 19.58 8.12 19.83L11.49 24.91Q11.63 25.16 11.87 25.28Q12.12 25.40 12.39 25.40Q12.55 25.40 12.72 25.35L22.48 22.55Q22.94 22.41 23.15 21.98Q23.35 21.54 23.16 21.11"/>
</svg>