<?xml version="1.0" encoding="UTF-8"?>
<svg xmlns="http://www.w3.org/2000/svg" width="32" height="32" viewBox="0 0 32 32">
  <path fill="#7fae42" d="M21.50 19.47L21.67 19.69Q21.64 19.75 21.56 19.83L19.52 21.76Q19.44 21.87 19.35 21.85Q19.27 21.84 19.19 21.73L14.89 17.62L10.70 21.68Q10.54 21.81 10.43 21.81Q10.32 21.81 10.19 21.68Q9.72 21.21 8.72 20.26L8.04 19.61L8.23 19.47Q8.47 19.34 8.56 19.23Q11.87 16.07 14.68 13.38Q14.81 13.24 14.91 13.24Q15 13.24 15.14 13.35L21.50 19.47M17.91 14.69L21.80 10.96Q22.43 11.56 23.68 12.76L28.60 17.46L26.29 19.69L21.80 15.42L20.22 16.92"/>
</svg>