<?xml version="1.0" encoding="UTF-8"?>
<svg xmlns="http://www.w3.org/2000/svg" width="32" height="32" viewBox="0 0 32 32">
  <path fill="#bfc2c1" d="M17.12 20.32Q17.31 20.26 17.64 20.22Q17.97 20.18 18.16 20.15Q19.87 19.72 20.44 18.44Q21.18 16.97 20.80 15.28Q20.71 14.96 20.55 14.63Q20.41 14.41 20.12 14.03Q20.01 13.92 20.01 13.76Q20.28 12.73 19.92 11.80Q19.92 11.75 19.86 11.69Q19.79 11.64 19.68 11.64Q19.41 11.64 19.11 11.75Q18.92 11.80 18.58 11.98Q18.24 12.16 17.72 12.48Q17.64 12.56 17.48 12.56Q15.46 12.08 13.48 12.56Q13.32 12.56 13.21 12.48L13.02 12.37Q12.50 12.08 12.25 11.97Q11.85 11.78 11.44 11.72Q11.11 11.67 11.04 11.71Q10.98 11.75 10.92 12.08Q10.68 12.95 10.92 13.84L10.92 14.01Q10.38 14.63 10.19 15.45Q10.02 16.18 10.16 17Q10.21 17.16 10.26 17.46Q10.30 17.76 10.32 17.92Q10.65 18.82 11.28 19.35Q11.90 19.88 12.88 20.15Q13.56 20.32 14 20.40Q13.64 20.72 13.48 21.40Q13.48 21.49 13.40 21.51Q12.69 21.79 12.09 21.65Q11.44 21.49 11 20.83Q10.57 20.07 9.81 19.96L9.40 19.96Q9.26 19.96 9.25 20.06Q9.24 20.15 9.32 20.24L9.48 20.40Q10.16 20.81 10.40 21.60Q10.68 22.14 11.11 22.42Q11.55 22.71 12.20 22.76Q12.96 22.76 13.40 22.68L13.40 24.32Q13.40 24.51 13.22 24.60Q13.04 24.70 12.80 24.64Q11.76 24.26 10.76 23.64Q8.80 22.28 7.88 20.43Q6.90 18.55 7 16.24Q7.09 14.31 8.01 12.66Q8.94 11.01 10.47 9.90Q12.01 8.78 13.89 8.40Q16.06 8 18.16 8.68Q20.17 9.36 21.67 10.92Q23.16 12.48 23.76 14.60Q24.30 16.70 23.76 18.79Q23.22 20.83 21.77 22.40Q20.33 23.96 18.32 24.64Q17.99 24.78 17.82 24.64Q17.64 24.51 17.64 24.12L17.64 22.08Q17.72 21.54 17.61 21.13Q17.50 20.67 17.12 20.32"/>
</svg>