<?xml version="1.0" encoding="UTF-8"?>
<svg xmlns="http://www.w3.org/2000/svg" width="32" height="32" viewBox="0 0 32 32">
  <path fill="#b7b73b" d="M20.06 8.02L13.37 9.36Q13.21 9.38 13.18 9.57L12.77 16.51Q12.77 16.64 12.87 16.73Q12.96 16.81 13.07 16.78L14.92 16.35Q15.06 16.32 15.15 16.41Q15.25 16.51 15.22 16.62L14.68 19.34Q14.65 19.47 14.76 19.57Q14.87 19.66 14.97 19.61L16.14 19.26Q16.28 19.23 16.38 19.32Q16.47 19.42 16.44 19.56L15.57 23.80Q15.52 24.02 15.71 24.08Q15.90 24.15 16.01 23.99L16.12 23.83L21.56 12.97Q21.64 12.84 21.54 12.71Q21.45 12.59 21.28 12.62L19.38 12.97Q19.24 13 19.15 12.90Q19.05 12.81 19.11 12.67L20.36 8.35Q20.39 8.21 20.29 8.10Q20.20 8 20.06 8.02"/>
</svg>