<?xml version="1.0" encoding="UTF-8"?>
<svg xmlns="http://www.w3.org/2000/svg" width="32" height="32" viewBox="0 0 32 32">
  <path fill="#b8383d" d="M16.80 9.33L17.12 9.16L20.60 9.16Q20.66 9.16 20.74 9.21Q20.82 9.25 20.88 9.25Q22.51 9.65 22.75 11.12Q22.75 11.20 22.79 11.38Q22.84 11.56 22.84 11.64L22.84 12.32Q22.84 12.40 22.79 12.58Q22.75 12.76 22.75 12.84L22.45 16.92Q22.13 20.62 22.07 22.52Q22.05 22.76 21.96 22.86Q21.88 22.96 21.64 22.96Q21.18 22.98 20.28 23.02Q19.38 23.06 18.92 23.12Q17.99 23.15 16.12 23.28Q14.24 23.42 13.32 23.44Q12.80 23.44 11.76 23.64L10.92 23.64Q10.89 23.64 10.80 23.58Q10.70 23.53 10.68 23.53Q9.89 23.42 9.36 22.96Q8.83 22.49 8.64 21.76Q8.58 21.62 8.54 21.36Q8.50 21.11 8.45 21L8.45 20.56Q8.45 20.53 8.50 20.43Q8.56 20.32 8.56 20.24Q8.56 19.88 8.60 19.16Q8.64 18.44 8.64 18.11Q8.64 17.32 8.72 17Q9.24 15.67 9.72 14.80Q10.35 13.65 11.17 12.84Q12.34 11.59 13.51 10.82Q14.84 9.95 16.28 9.60Q16.44 9.49 16.80 9.33"/>
</svg>