<?xml version="1.0" encoding="UTF-8"?>
<svg xmlns="http://www.w3.org/2000/svg" width="32" height="32" viewBox="0 0 32 32">
  <path fill="#b8383d" d="M21.48 11.26M19.44 16.62Q19.14 16.48 19.03 16.30Q18.92 16.13 18.69 16.05Q18.46 15.96 18.20 15.96Q17.94 15.96 17.71 16.05Q17.48 16.13 17.35 16.30Q17.23 16.48 16.96 16.62Q16.12 17 15.63 17.80Q15.14 18.60 15.19 19.53Q15.16 19.53 15.23 20Q15.30 20.48 15.38 20.83Q15.52 21.32 15.65 21.42Q15.79 21.51 16.58 21.65Q17.53 21.84 18.20 21.84Q18.86 21.84 19.84 21.65Q20.66 21.51 20.80 21.42Q20.93 21.32 21.04 20.83Q21.12 20.48 21.18 19.96Q21.23 19.53 21.20 19.53Q21.23 18.60 20.75 17.80Q20.28 17 19.44 16.62M26.43 13.27Q26.29 13.16 26.04 12.92Q25.28 12.16 24.82 11.86Q24.36 11.56 23.68 11.42Q23.22 11.31 22.43 11.26Q22.35 11.40 22.48 11.56L22.92 11.99Q24.17 13.27 24.44 14.77L24.47 15.12Q24.77 17.27 24.82 17.32Q24.93 17.62 25.04 17.65Q25.15 17.68 25.36 17.43Q25.39 17.41 25.58 17.03Q26.02 16.07 26.21 15.83Q26.40 15.58 27.05 15.04Q27.49 14.71 27.51 14.63Q27.54 14.55 27.15 14.07Q26.75 13.60 26.43 13.27M13.18 11.99L13.59 11.59Q13.59 11.56 13.61 11.56Q13.75 11.40 13.67 11.26Q12.88 11.31 12.42 11.42Q11.74 11.56 11.28 11.86Q10.81 12.16 10.05 12.92L9.67 13.27Q9.34 13.60 8.99 14.06Q8.58 14.55 8.61 14.63Q8.64 14.71 9.04 15.04Q9.70 15.58 9.90 15.83Q10.11 16.07 10.54 17.03Q10.70 17.41 10.73 17.43Q10.95 17.68 11.06 17.65Q11.17 17.62 11.28 17.32Q11.33 17.27 11.63 15.12L11.68 14.74Q11.93 13.27 13.18 11.99M23.87 17.32M21.96 11.99Q21.91 11.94 21.83 11.86L21.53 11.53Q21.39 11.40 21.48 11.26L20.55 11.15Q19.65 11.04 19.19 10.99Q17.12 10.85 15.06 11.26L15 11.29Q14.78 11.31 14.68 11.26L14.65 11.31Q14.68 11.42 14.57 11.53L14.13 11.99Q12.88 13.27 12.64 14.74L12.50 15.58L12.50 15.69L12.50 15.67Q12.44 16.07 12.40 16.62Q12.36 17.16 12.39 17.32L12.42 17.38Q12.50 17.98 12.69 18.22Q12.77 18.36 12.96 18.60Q13.29 19.01 13.32 19.28Q13.53 20.43 14.68 20.83Q14.51 20.51 14.38 19.72Q14.27 18.98 14.32 18.96Q14.27 17.95 14.88 17.08Q15.49 16.21 16.58 15.80Q16.93 15.67 17.08 15.48Q17.23 15.28 17.52 15.20Q17.80 15.12 18.14 15.12Q18.48 15.12 18.77 15.20Q19.05 15.28 19.20 15.48Q19.35 15.67 19.71 15.80Q20.80 16.21 21.41 17.08Q22.02 17.95 21.96 18.96Q22.02 18.98 21.91 19.69Q21.77 20.45 21.61 20.81Q22.64 20.37 22.84 19.39Q22.92 18.98 23.16 18.68L23.19 18.63Q23.35 18.44 23.38 18.30Q23.49 18.22 23.60 17.98L23.65 17.79Q23.76 17.46 23.87 17.32Q23.81 17.22 23.54 15.15L23.49 14.74Q23.22 13.27 21.96 11.99M13.86 13.24Q13.83 13.22 13.85 13.22Q13.86 13.22 13.86 13.24M14.62 16.10Q14.13 16.10 13.79 15.76Q13.45 15.42 13.45 14.93Q13.45 14.44 13.79 14.09Q14.13 13.73 14.62 13.73Q15.11 13.73 15.46 14.09Q15.82 14.44 15.82 14.93Q15.82 15.42 15.46 15.76Q15.11 16.10 14.62 16.10M20.71 15.64Q20.71 15.64 20.71 15.64M21.75 16.10Q21.26 16.10 20.90 15.76Q20.55 15.42 20.55 14.93Q20.55 14.44 20.90 14.09Q21.26 13.73 21.75 13.73Q22.24 13.73 22.58 14.09Q22.92 14.44 22.92 14.93Q22.92 15.42 22.58 15.76Q22.24 16.10 21.75 16.10M23 15.39Q23 15.37 23 15.34L23 15.26L23 15.28Q23 15.34 23 15.39M23 15.12Q23 15.12 23 15.15L23 15.12Q23.03 15.09 23 15.12"/>
</svg>