<?xml version="1.0" encoding="UTF-8"?>
<svg xmlns="http://www.w3.org/2000/svg" width="32" height="32" viewBox="0 0 32 32">
  <path fill="#9068b0" d="M17.61 7.26L17.61 7.23Q15.84 7.23 14.34 8.23Q12.83 9.22 12.10 10.86Q11.38 12.51 11.64 14.29Q11.90 16.07 13.10 17.43L7.17 24.23L7.98 24.97L13.89 18.20Q15.06 19.12 16.50 19.39Q17.94 19.66 19.34 19.24Q20.74 18.82 21.80 17.79Q22.86 16.75 23.34 15.35Q23.81 13.95 23.61 12.50Q23.41 11.04 22.55 9.83Q21.69 8.62 20.39 7.94Q19.08 7.26 17.61 7.26M17.61 18.39Q16.12 18.39 14.87 17.53Q13.61 16.67 13.04 15.27Q12.47 13.87 12.77 12.39Q13.07 10.91 14.13 9.83Q15.19 8.76 16.66 8.46Q18.13 8.16 19.52 8.74Q20.90 9.33 21.73 10.59Q22.56 11.86 22.56 13.35Q22.56 14.36 22.20 15.28Q21.83 16.21 21.14 16.92Q20.44 17.62 19.53 18Q18.62 18.39 17.61 18.39M17.64 8.35Q16.17 8.35 14.92 9.15Q13.67 9.95 13.06 11.31Q12.44 12.67 12.68 14.14Q12.91 15.61 13.89 16.73L8.96 22.33L9.67 22.96L14.54 17.38Q15.52 18.14 16.72 18.36Q17.91 18.58 19.07 18.24Q20.22 17.90 21.11 17.04Q21.99 16.18 22.39 15.03Q22.78 13.87 22.60 12.66Q22.43 11.45 21.72 10.46Q21.01 9.46 19.94 8.91Q18.86 8.35 17.64 8.35M17.64 17.52Q16.39 17.52 15.36 16.82Q14.32 16.13 13.85 14.97Q13.37 13.82 13.61 12.59Q13.86 11.37 14.74 10.47Q15.63 9.57 16.85 9.33Q18.08 9.08 19.22 9.57Q20.36 10.06 21.07 11.10Q21.88 12.32 21.73 13.79Q21.58 15.26 20.55 16.32Q19.98 16.89 19.22 17.20Q18.46 17.52 17.64 17.52M8.72 25.54L6.79 23.85L13.51 16.24L15.41 17.92"/>
</svg>