<?xml version="1.0" encoding="UTF-8"?>
<svg xmlns="http://www.w3.org/2000/svg" width="32" height="32" viewBox="0 0 32 32">
  <path fill="#498ba7" d="M14.48 24.89Q12.50 24.89 10.80 23.89Q9.10 22.90 8.11 21.20Q7.11 19.50 7.11 17.49Q7.11 15.48 8.12 13.76Q9.13 12.05 10.81 11.10Q12.58 10.06 14.68 10.12Q16.63 10.14 18.29 11.14Q19.95 12.13 20.90 13.79Q21.88 15.50 21.88 17.50Q21.88 19.50 20.89 21.20Q19.90 22.90 18.20 23.89Q16.50 24.89 14.48 24.89M17.56 12.24Q16.66 12.24 16.01 12.89Q15.36 13.54 15.36 14.44Q15.36 15.34 15.98 15.99Q16.61 16.64 17.53 16.64Q18.46 16.64 19.11 16.02Q19.76 15.39 19.76 14.47Q19.76 13.54 19.12 12.89Q18.48 12.24 17.56 12.24M21.88 12.24Q20.99 12.24 20.35 11.60Q19.71 10.96 19.76 10.04Q19.76 9.14 20.39 8.51Q21.01 7.89 21.96 7.89Q22.86 7.89 23.49 8.55Q24.11 9.22 24.11 10.10Q24.11 10.99 23.45 11.61Q22.78 12.24 21.88 12.24"/>
</svg>