<?xml version="1.0" encoding="UTF-8"?>
<svg xmlns="http://www.w3.org/2000/svg" width="32" height="32" viewBox="0 0 32 32">
  <path fill="#cc6d2e" d="M10.16 12.16Q10.16 12.10 10.12 12.06Q10.08 12.02 10.08 11.97Q10 11.86 9.78 11.60Q9.56 11.34 9.48 11.20Q9.15 10.91 9.04 10.74Q8.83 10.50 8.72 10.28Q9.04 10.63 9.56 10.96Q9.64 11.01 9.78 11.14Q9.92 11.26 10 11.29Q10.16 11.42 10.46 11.68Q10.76 11.94 10.92 12.08Q11.17 12.29 11.71 12.70L12.04 12.92Q12.88 13.60 13.32 13.84Q13.64 14.12 14.32 14.58Q15 15.04 15.36 15.28L15.36 15.20Q14.32 14.03 13.72 13.44Q13.04 12.56 12.72 12.24L11.87 11.12Q11.87 11.10 11.82 11.06Q11.76 11.01 11.76 10.96L11 9.93L10.89 9.74Q10.73 9.52 10.68 9.36Q10.89 9.52 11.28 9.90Q11.66 10.28 11.86 10.47Q12.06 10.66 12.54 11.08Q13.02 11.50 13.21 11.72Q13.40 11.86 13.74 12.16Q14.08 12.46 14.24 12.56L15.27 13.33Q15.38 13.44 15.60 13.60Q15.82 13.76 15.93 13.84Q17.80 15.20 18.84 15.88Q18.89 15.96 18.95 15.95Q19 15.94 19 15.80Q19.44 14.74 19.44 13.16Q19.44 12.02 19 10.88Q19 10.72 18.84 10.20L18.70 9.93Q18.43 9.36 18.24 9.08Q18.13 8.65 17.64 8.16Q17.64 8.10 17.60 8.06Q17.56 8.02 17.56 8Q17.88 8.16 18.40 8.48Q20.22 9.84 21.56 11.80L21.75 12.21Q22.18 13.03 22.32 13.44Q22.92 14.90 22.92 16.16L22.92 16.24Q22.92 17 22.84 17.32Q22.78 17.52 22.74 17.86Q22.70 18.20 22.67 18.36Q22.64 18.52 22.73 18.60Q23.76 19.88 24 21.40Q24.09 21.68 24.09 22.28Q24.09 22.68 24 22.96Q24 23.01 24 23.02Q24 23.04 23.94 23.04Q23.87 23.04 23.87 22.98L23.84 22.96Q23.27 21.79 22.24 21.68Q21.75 21.54 21.26 21.65Q20.88 21.70 20.36 21.92Q20.17 22 19.84 22.17Q19.44 22.38 19.24 22.44Q17.45 23.20 15.52 22.96Q14.10 22.79 12.96 22.36L12.88 22.36Q12.64 22.22 12.12 22Q11.60 21.79 11.36 21.68Q8.88 20.32 7.20 17.84L7.09 17.76L7.20 17.76L7.28 17.84Q7.77 18.20 8.12 18.36L8.45 18.55Q8.91 18.82 9.13 18.88Q9.75 19.23 10.60 19.36Q10.62 19.42 10.66 19.42Q10.70 19.42 10.76 19.47Q11.90 19.80 13.48 19.80Q15.22 19.66 16.52 18.96Q16.66 18.88 16.66 18.86Q16.66 18.85 16.52 18.79Q16.14 18.49 15.38 17.81L14.84 17.32Q14.62 17.16 14.24 16.78Q13.86 16.40 13.64 16.24Q13.32 15.96 12.80 15.28Q12.72 15.18 12.50 14.96Q12.28 14.74 12.20 14.60Q12.04 14.44 11.70 14.06Q11.36 13.68 11.21 13.50Q11.06 13.33 10.80 13.04Q10.54 12.76 10.40 12.56Q10.40 12.40 10.16 12.16"/>
</svg>