<?xml version="1.0" encoding="UTF-8"?>
<svg xmlns="http://www.w3.org/2000/svg" width="32" height="32" viewBox="0 0 32 32">
  <path fill="#cc6d2e" d="M21.12 16.73Q21.20 16.70 21.39 16.62Q21.96 16.35 22.24 16.16Q22.59 15.88 22.73 15.53Q22.86 15.18 22.73 14.85Q22.59 14.52 22.24 14.36Q22.02 14.25 21.88 13.84Q21.77 13.11 22.16 12.48Q22.59 11.86 22.32 11.40Q22.05 10.93 21.20 10.88L21.12 10.88L21.04 10.80L21.04 10.74Q20.96 10.36 20.99 10.20Q21.04 9.90 21.37 9.68Q21.56 9.60 22.05 9.44Q22.24 9.36 22.48 9.36Q22.48 9.25 22.40 9.25Q21.99 8.78 21.37 8.59Q20.82 8.43 20.20 8.48Q19.49 8.57 18.92 8.92Q18.48 9.19 17.97 9.76Q17.86 10.01 17.56 9.84Q17.40 9.76 17.40 9.60Q17.40 9.52 17.44 9.34Q17.48 9.16 17.48 9.08L17.72 8.57Q17.42 8.57 17.12 8.70Q16.96 8.78 16.61 9L16.44 9.08Q16.25 8.78 16.24 8.51Q16.23 8.24 16.36 7.89Q15.74 8.10 15.41 8.38Q15.03 8.73 14.92 9.25Q14.78 9.14 14.76 8.92Q14.73 8.78 14.73 8.54L14.76 8.32L14.68 8.32Q14.62 8.32 14.58 8.36Q14.54 8.40 14.48 8.40Q13.86 8.92 13.72 9.60Q13.72 9.65 13.68 9.74Q13.64 9.82 13.64 9.84Q13.61 9.82 13.52 9.78Q13.42 9.74 13.40 9.68Q13.23 9.55 12.89 9.26Q12.55 8.97 12.36 8.84Q11.60 8.40 10.88 8.39Q10.16 8.38 9.40 8.76L8.72 9.44Q8.88 9.52 9.22 9.60Q9.56 9.68 9.72 9.76Q10.19 9.90 10.31 10.17Q10.43 10.44 10.24 10.96Q10.16 10.96 10 11Q9.83 11.04 9.72 11.04Q9.29 11.18 9.10 11.46Q8.91 11.75 8.96 12.16Q9.02 12.27 9.14 12.52Q9.26 12.78 9.32 12.92Q9.32 12.95 9.36 13.04Q9.40 13.14 9.40 13.16L9.40 14.03Q9.40 14.20 9.04 14.52L8.91 14.66Q8.61 14.93 8.56 15.12Q8.36 15.42 8.50 15.77Q8.64 16.13 8.96 16.40Q9.40 16.73 10.08 17Q10.76 17.32 10.76 18Q10.76 18.96 10.68 19.45Q10.68 19.53 10.62 19.75Q10.60 19.99 10.60 20.13Q10.16 19.80 9.93 19.46Q9.70 19.12 9.64 18.68Q8.88 19.34 8.88 20.04Q8.75 20.94 9.13 21.65Q9.53 22.41 10.51 22.76Q10.60 22.76 10.76 22.96Q11.52 24.21 13.04 24.48Q13.23 24.48 13.23 24.56Q13.89 24.97 14.62 25.10Q15.27 25.21 16.12 25.16Q16.66 25.08 16.93 25Q17.34 24.89 17.64 24.64Q17.69 24.61 17.82 24.56Q17.94 24.51 17.97 24.48Q19.38 24.23 20.20 23.04L20.44 22.76Q21.28 22.49 21.64 21.92Q21.94 21.51 22.05 20.94Q22.13 20.45 22.07 19.96Q21.99 19.61 21.82 19.32Q21.64 19.04 21.28 18.68Q21.18 19.15 20.96 19.49Q20.74 19.83 20.36 20.13Q20.28 19.36 20.28 17.92Q20.41 17.43 20.60 17.15Q20.80 16.86 21.12 16.73M17.80 21.24L14 21.24"/>
</svg>