<?xml version="1.0" encoding="UTF-8"?>
<svg xmlns="http://www.w3.org/2000/svg" width="32" height="32" viewBox="0 0 32 32">
  <path fill="#cc6d2e" d="M24.09 23.17L24.11 23.12L24.11 11.64Q24.11 10.96 24 10.61Q23.90 9.93 23.16 9.36Q22.92 9.16 22.78 9.11Q22.54 9 22.32 9Q22.26 9 22.25 8.99Q22.24 8.97 22.24 8.92L8.88 8.92Q8.88 9.08 8.56 9.08Q7.60 9.44 7.20 10.52Q7.11 10.72 7.11 11.04L7.11 14.96Q7.11 15.15 7.14 15.16Q7.17 15.18 7.36 15.12L7.79 14.96Q8.01 14.90 8.23 14.55Q8.31 14.41 8.36 14.36L8.45 14.25Q8.66 13.90 8.88 13.76Q9.02 13.63 9.15 13.63Q9.29 13.63 9.48 13.76L9.67 13.90Q9.92 14.06 10.08 14.12Q10.62 14.28 10.92 14.20Q11.08 14.20 11.17 14.06Q11.25 14.01 11.33 13.84L11.36 13.76Q11.52 13.44 11.63 13.35Q11.74 13.27 11.82 13.27L12.12 13.24Q12.44 13.30 12.77 13.60Q12.96 13.76 13.32 14.20Q13.42 14.41 13.64 14.52Q13.80 14.60 14.16 14.96Q14.40 15.26 15 15.72Q15.41 16.05 15.60 16.24Q16.06 16.67 16.63 16.92Q17.07 17.05 17.34 17.03Q17.69 16.97 17.99 16.56Q18.54 15.88 18.67 15.12Q18.73 14.96 18.95 14.66L19.08 14.44L19.16 14.44Q19.65 14.36 20.36 14.52Q20.60 14.52 20.80 14.60L21.12 14.69Q21.58 14.77 21.82 14.88Q22.05 14.99 22.13 15.22Q22.21 15.45 22.16 15.72Q22.10 15.88 22.06 15.91Q22.02 15.94 21.94 15.91Q21.86 15.88 21.80 15.88L21.56 15.88Q21.20 15.96 20.52 16.32Q20.39 16.37 20.29 16.50Q20.20 16.62 20.20 16.75Q20.06 17.24 19.68 17.52L19.63 17.57Q19.52 17.62 19.52 17.76Q19.44 17.81 19.34 17.94Q19.24 18.06 19.16 18.11Q18.37 18.90 16.96 19.04L15.60 19.04Q15.49 19.04 15.46 19.08Q15.44 19.12 15.44 19.20Q15.46 19.36 15.46 19.70Q15.46 20.04 15.53 20.22Q15.60 20.40 15.60 20.72Q15.60 21.24 16.04 21.68Q16.12 21.76 16.12 21.92Q16.12 22.52 16.20 22.76L16.23 22.96Q16.39 23.61 16.52 23.88Q16.63 23.96 16.69 23.99Q16.74 24.02 16.81 23.98Q16.88 23.93 17.04 23.88Q17.20 23.83 17.31 23.80Q17.59 23.69 17.99 23.64Q18.24 23.64 18.76 23.64Q19.03 23.64 19.60 23.61Q20.31 23.55 20.66 23.58Q21.23 23.58 21.72 23.72Q21.88 23.74 22.18 23.78Q22.48 23.83 22.64 23.88Q23 23.99 23.38 24.02Q23.62 24.04 24.11 24.04Q24.44 24.04 24.44 23.72Q24.20 23.53 24.14 23.42Q24.09 23.31 24.09 23.17M11.08 20.92L11.08 20.72L11.19 20.64Q11.33 19.91 11.76 19.45L11.68 19.45Q10.89 19.45 10 19.20Q9.15 19.04 8.72 18.60Q8.53 18.41 8.30 18.47Q8.07 18.52 7.96 18.79Q7.96 18.82 7.92 18.94Q7.88 19.07 7.88 19.12Q7.60 19.64 7.28 19.96Q7.09 20.32 7.11 20.56L7.11 22.17Q7.11 22.44 7.36 22.47Q7.60 22.49 8.01 22.63Q8.31 22.74 8.45 22.76L8.85 22.90Q9.62 23.20 10 23.20Q10.24 23.20 10.30 23.16Q10.35 23.12 10.40 22.85Q10.40 22.82 10.46 22.78Q10.51 22.74 10.51 22.68L10.40 22.68L10.51 22.68L10.51 22.52L10.51 22.60Q10.51 22.57 10.55 22.52Q10.60 22.47 10.60 22.44L10.60 22.36Q10.68 22.17 10.68 21.92Q10.68 21.60 10.76 21.49L10.76 21.40Q10.89 21.35 11.06 21.02L11.08 20.92M15.36 22.36Q15.14 22.14 15 21.76Q15 21.49 14.92 21.49Q14.92 21.30 14.81 20.97L14.76 20.81Q14.48 19.94 13.72 19.28Q13.40 19.09 13.22 19.11Q13.04 19.12 12.80 19.36Q12.74 19.42 12.70 19.50Q12.66 19.58 12.64 19.64Q12.12 20.48 11.87 21L11.82 21.08Q11.68 21.30 11.68 21.51Q11.63 21.54 11.59 21.69Q11.55 21.84 11.52 21.92Q11.30 22.14 11.03 22.74L10.92 22.96Q10.92 22.98 10.89 23.02Q10.87 23.06 10.92 23.12L11.08 23.12Q11.76 22.96 12.12 22.76Q12.85 22.41 13.72 22.68Q14.08 22.82 14.40 23.01Q14.62 23.15 15 23.44Q15.27 23.64 15.76 23.80L15.95 23.80L15.95 23.72Q15.82 23.47 15.68 23.06Q15.49 22.57 15.36 22.36"/>
</svg>