<?xml version="1.0" encoding="UTF-8"?>
<svg xmlns="http://www.w3.org/2000/svg" width="32" height="32" viewBox="0 0 32 32">
  <path fill="#7fae42" d="M15.16 22.17L14.92 22.17Q14.84 22.08 14.57 22.08L13.72 21.84Q13.53 21.70 13.48 21.57Q13.42 21.43 13.56 21.24Q13.72 21 13.91 20.48Q14.27 19.64 14.43 19.07Q14.62 18.25 14.48 17.52Q14.35 16.13 13.12 15.65Q11.90 15.18 11.28 14.52Q10.27 13.60 9.81 12.76Q9.26 11.72 9.32 10.52L21.88 10.52Q21.88 11.88 21.28 12.84Q20.25 14.69 18.08 15.64Q16.74 16.29 16.63 17.68Q16.55 18.47 16.85 19.39Q17.07 20.02 17.56 21Q17.75 21.35 17.68 21.50Q17.61 21.65 17.20 21.84L16.80 22Q16.66 22.06 16.36 22.10Q16.06 22.14 15.93 22.19L15.60 22.19Q15.46 22.03 15.16 22.17M25.80 14.12L25.80 14.60Q25.69 14.71 25.61 15.01Q25.58 15.15 25.56 15.20Q24.88 16.70 23.52 17.08Q22.64 17.30 22.64 18.36Q22.59 18.82 22.75 19.31Q22.84 19.64 23.08 20.24Q23.27 20.62 23.19 20.77Q23.11 20.92 22.64 21Q21.72 21.13 20.96 20.92Q20.55 20.78 20.80 20.40Q21.07 19.88 21.20 19.47Q21.37 18.96 21.28 18.44Q21.23 17.79 21.05 17.56Q20.88 17.32 20.44 17.24Q20.14 17.24 20.03 17Q20.06 17 20.10 16.96Q20.14 16.92 20.20 16.92Q22.07 16.21 23.16 14.28Q23.22 14.17 23.31 14.14Q23.41 14.12 23.60 14.12L25.80 14.12M5.40 14.80L5.40 14.01L7.52 14.01Q7.68 14.01 7.74 14.03Q7.79 14.06 7.88 14.20Q8.94 15.96 11.08 16.92Q11.06 16.94 10.98 16.98Q10.89 17.03 10.84 17.08Q10.32 17.27 10.12 17.61Q9.92 17.95 9.92 18.52Q9.92 19.20 10.32 20.04Q10.51 20.40 10.58 20.51Q10.65 20.62 10.64 20.71Q10.62 20.81 10.51 20.81Q9.34 21.32 8.20 20.81Q8.04 20.81 8 20.71Q7.96 20.62 8.04 20.40Q8.36 19.72 8.50 19.36Q8.69 18.79 8.62 18.28Q8.56 17.76 8.39 17.57Q8.23 17.38 7.79 17.24Q6.30 16.81 5.56 15.04Q5.54 15.01 5.52 14.90Q5.51 14.80 5.40 14.80"/>
</svg>