<?xml version="1.0" encoding="UTF-8"?>
<svg xmlns="http://www.w3.org/2000/svg" width="32" height="32" viewBox="0 0 32 32">
  <path fill="#b7b73b" d="M23.24 24.04L23.24 9.60L7.96 9.60L7.96 24.04L23.24 24.04M16.80 20.04L15.95 20.04Q15.82 20.04 15.78 20.03Q15.74 20.02 15.68 19.88Q15.60 19.58 15.38 18.94Q15.16 18.30 15.08 18Q15.08 17.95 15.02 17.90Q14.95 17.84 14.84 17.84L13.04 17.84Q12.93 17.84 12.85 17.95L12.80 18L12.28 19.88Q12.28 19.94 12.23 19.99Q12.17 20.04 12.12 20.04L11.19 20.04Q11.06 20.04 11.03 20Q11 19.96 11 19.88Q11.17 19.34 11.47 18.30Q11.76 17.11 11.96 16.56Q12.12 15.94 12.50 14.62Q12.88 13.30 13.04 12.67L13.10 12.59Q13.12 12.48 13.17 12.46Q13.21 12.43 13.32 12.48L14.59 12.48Q14.68 12.48 14.72 12.51Q14.76 12.54 14.76 12.67Q14.97 13.30 15.36 14.62Q15.74 15.94 15.95 16.56L16.96 19.88Q17.01 20.02 17 20.03Q16.99 20.04 16.80 20.04M19.35 19.64Q19.35 19.94 19.30 19.99Q19.24 20.04 18.92 20.04L18.32 20.04Q18.18 20.04 18.17 20.03Q18.16 20.02 18.16 19.88L18.16 14.36Q18.16 14.22 18.21 14.17Q18.27 14.12 18.32 14.20L19.08 14.20Q19.19 14.20 19.22 14.24Q19.24 14.28 19.24 14.36Q19.33 16.16 19.35 19.64M18.76 13.60Q18.48 13.60 18.28 13.42Q18.08 13.24 18.08 12.99Q18.08 12.73 18.25 12.52Q18.43 12.32 18.71 12.32Q19 12.32 19.22 12.50Q19.44 12.67 19.44 12.92Q19.44 13.24 19.24 13.42Q19.05 13.60 18.76 13.60M14.08 14.12Q14.08 14.03 14.02 14.03Q13.97 14.03 13.91 14.12Q13.91 14.14 13.86 14.22Q13.80 14.31 13.80 14.36Q13.48 15.88 13.21 16.56Q13.23 16.75 13.32 16.75L14.48 16.75Q14.62 16.75 14.63 16.70Q14.65 16.64 14.59 16.56Q14.46 15.23 14.08 14.12"/>
</svg>