<?xml version="1.0" encoding="UTF-8"?>
<svg xmlns="http://www.w3.org/2000/svg" width="32" height="32" viewBox="0 0 32 32">
  <path fill="#627379" d="M22.84 17.52Q22.62 17.46 22.21 17.30L21.88 17.16Q21.88 16.86 21.84 16.32Q21.80 15.77 21.80 15.48Q21.80 15.42 21.84 15.38Q21.88 15.34 21.88 15.28L22.84 14.88Q23.08 14.74 23.16 14.51Q23.24 14.28 23.16 14.03L22.40 12.32Q22.26 12.05 22.03 11.95Q21.80 11.86 21.56 11.99L20.60 12.40Q20.44 12.40 20.44 12.32Q20.33 12.16 20.03 11.88L19.84 11.72Q19.76 11.64 19.56 11.46Q19.35 11.29 19.24 11.20Q19.35 11.04 19.48 10.70Q19.60 10.36 19.68 10.20Q19.82 9.87 19.69 9.63Q19.57 9.38 19.24 9.27Q18.89 9.19 18.08 8.92L17.64 8.76Q17.31 8.62 17.07 8.74Q16.82 8.87 16.72 9.16Q16.66 9.38 16.50 9.79L16.36 10.12Q16.06 10.12 15.52 10.16Q14.97 10.20 14.68 10.20Q14.62 10.20 14.58 10.16Q14.54 10.12 14.48 10.12L14.08 9.16Q13.94 8.92 13.71 8.84Q13.48 8.76 13.23 8.84L11.52 9.60Q11.25 9.74 11.15 9.97Q11.06 10.20 11.19 10.44L11.60 11.40Q11.60 11.56 11.52 11.56L11.33 11.72Q11.14 11.86 11.08 11.97Q10.98 12.10 10.76 12.36Q10.54 12.62 10.40 12.76Q10.21 12.70 9.81 12.54L9.48 12.40Q9.15 12.27 8.91 12.39Q8.66 12.51 8.56 12.84L8.42 13.16Q8.09 13.98 7.96 14.36Q7.82 14.74 7.92 14.96Q8.01 15.18 8.36 15.28Q8.58 15.34 8.99 15.50L9.32 15.64Q9.32 15.94 9.36 16.48Q9.40 17.03 9.40 17.32Q9.40 17.38 9.36 17.42Q9.32 17.46 9.32 17.52L8.36 17.92Q8.12 18.06 8.04 18.29Q7.96 18.52 8.04 18.77L8.80 20.48Q8.94 20.75 9.17 20.85Q9.40 20.94 9.64 20.81L10.60 20.40Q10.76 20.40 10.76 20.48Q10.87 20.64 11.17 20.92L11.36 21.08Q11.44 21.16 11.64 21.32Q11.85 21.49 11.96 21.60Q11.87 21.76 11.74 22.10Q11.60 22.44 11.52 22.60Q11.38 22.93 11.51 23.17Q11.63 23.42 11.96 23.55Q12.15 23.61 12.58 23.77Q13.21 24.04 13.57 24.15Q13.94 24.26 14.16 24.18Q14.38 24.10 14.48 23.72Q14.54 23.50 14.70 23.09L14.84 22.76Q15.14 22.76 15.68 22.72Q16.23 22.68 16.52 22.68Q16.58 22.68 16.62 22.72Q16.66 22.76 16.72 22.76L17.12 23.72Q17.26 23.96 17.49 24.04Q17.72 24.12 17.97 24.04L19.68 23.28Q19.95 23.15 20.05 22.91Q20.14 22.68 20.01 22.44L19.60 21.51Q19.60 21.32 19.68 21.32Q19.84 21.21 20.12 20.92L20.28 20.72Q20.36 20.64 20.52 20.44Q20.69 20.24 20.80 20.15Q20.99 20.18 21.39 20.37L21.72 20.48Q22.05 20.62 22.29 20.49Q22.54 20.37 22.64 20.04Q22.73 19.85 22.89 19.42Q23.16 18.79 23.24 18.44Q23.54 17.73 22.84 17.52M16.88 19.28Q15.65 19.80 14.47 19.34Q13.29 18.88 12.72 17.68Q12.20 16.45 12.66 15.27Q13.12 14.09 14.32 13.52Q15.55 13 16.73 13.46Q17.91 13.92 18.48 15.12Q19 16.35 18.54 17.53Q18.08 18.71 16.88 19.28"/>
</svg>