<?xml version="1.0" encoding="UTF-8"?>
<svg xmlns="http://www.w3.org/2000/svg" width="32" height="32" viewBox="0 0 32 32">
  <path fill="#dd4b78" d="M15.60 24.04Q13.53 24.04 11.76 23Q10 21.95 8.96 20.18Q7.90 18.36 7.96 16.24Q7.98 14.20 9.02 12.48Q10.05 10.77 11.76 9.79Q13.56 8.76 15.68 8.76Q17.75 8.76 19.50 9.80Q21.26 10.85 22.26 12.62Q23.30 14.44 23.24 16.56Q23.22 18.58 22.17 20.30Q21.12 22.03 19.41 23.01Q17.64 24.04 15.60 24.04M12.88 11.64L12.88 21.08L12.96 21.08L19.84 16.48L19.92 16.40Q19.92 16.40 19.84 16.40Q15.27 13.33 12.88 11.80Q12.93 11.75 12.93 11.69Q12.93 11.64 12.88 11.64"/>
</svg>