<?xml version="1.0" encoding="UTF-8"?>
<svg xmlns="http://www.w3.org/2000/svg" width="32" height="32" viewBox="0 0 32 32">
  <path fill="#9068b0" d="M8.28 25.87L8.28 26.14L6.22 26.14Q5.75 25.16 5.36 24.12Q4.96 23.09 4.69 21.89Q4.42 20.81 4.27 19.45Q4.12 18.09 4.12 16.62Q4.12 15.04 4.28 13.73Q4.45 12.43 4.69 11.37Q4.96 10.20 5.35 9.15Q5.73 8.10 6.22 7.10L8.28 7.10L8.28 7.40Q7.82 8.10 7.41 8.99Q7 9.87 6.66 11.06Q6.32 12.24 6.11 13.64Q5.89 15.04 5.89 16.62Q5.89 18.28 6.09 19.62Q6.30 20.97 6.65 22.17Q6.98 23.31 7.40 24.25Q7.82 25.19 8.28 25.87M26.81 16.62Q26.81 18.09 26.66 19.43Q26.51 20.78 26.24 21.89Q25.96 23.09 25.57 24.12Q25.17 25.16 24.71 26.14L22.64 26.14L22.64 25.87Q23.08 25.19 23.52 24.25Q23.95 23.31 24.29 22.14Q24.63 20.97 24.83 19.62Q25.04 18.28 25.04 16.62Q25.04 15.04 24.82 13.64Q24.60 12.24 24.26 11.06Q23.92 9.87 23.52 8.99Q23.11 8.10 22.64 7.40L22.64 7.10L24.71 7.10Q25.20 8.10 25.58 9.15Q25.96 10.20 26.24 11.37Q26.48 12.43 26.64 13.73Q26.81 15.04 26.81 16.62M9.89 14.74Q9.13 14.74 8.62 14.21Q8.12 13.68 8.12 12.88Q8.12 12.08 8.64 11.56Q9.15 11.04 9.94 11.04Q10.73 11.04 11.23 11.56Q11.74 12.08 11.74 12.89Q11.74 13.71 11.22 14.22Q10.70 14.74 9.89 14.74M9.89 22.98Q9.13 22.98 8.62 22.44Q8.12 21.89 8.12 21.09Q8.12 20.29 8.64 19.77Q9.15 19.26 9.94 19.26Q10.73 19.26 11.23 19.79Q11.74 20.32 11.74 21.12Q11.74 21.92 11.22 22.45Q10.70 22.98 9.89 22.98M22.24 15.80L22.24 22.68L19.33 22.68L19.33 21.05L19.27 21.05Q18.27 22.98 16.31 22.98Q14.87 22.98 14.04 22.03Q13.21 21.08 13.21 19.50Q13.21 16.13 16.63 15.61L19.33 15.20Q19.33 13.33 17.56 13.33Q15.79 13.33 14.19 14.55L14.19 11.86Q14.81 11.48 15.93 11.19Q17.04 10.91 17.97 10.91Q22.24 10.91 22.24 15.80M19.35 18L19.35 17.24L17.53 17.52Q16.04 17.73 16.04 19.07Q16.04 19.69 16.40 20.07Q16.77 20.45 17.40 20.45Q18.24 20.45 18.80 19.76Q19.35 19.07 19.35 18"/>
</svg>