<?xml version="1.0" encoding="UTF-8"?>
<svg xmlns="http://www.w3.org/2000/svg" width="32" height="32" viewBox="0 0 32 32">
  <path fill="#cc6d2e" d="M15.44 7.04L15.44 12.40Q15.44 12.56 15.36 12.65L9.92 18.09L9.89 18.14Q9.86 18.20 9.83 18.20L9.83 12.76Q9.83 12.67 9.83 12.66Q9.83 12.65 9.92 12.65Q10.84 11.72 12.66 9.86Q14.48 8 15.44 7.04M22.16 14.88L22.24 14.88L22.24 20.32Q22.24 20.37 22.22 20.38Q22.21 20.40 22.16 20.40L16.63 25.92L16.52 25.92L16.52 20.48Q16.52 20.43 16.54 20.41Q16.55 20.40 16.63 20.40Q17.56 19.50 19.41 17.65Q21.26 15.80 22.24 14.88L22.16 14.88M16.63 13.60L21.96 13.60L16.52 19.04L16.52 13.68Q16.52 13.63 16.54 13.61Q16.55 13.60 16.63 13.60M15.52 13.84L15.52 19.20Q15.52 19.26 15.50 19.27Q15.49 19.28 15.44 19.28L10.08 19.28Q12.74 16.51 15.52 13.84M9.83 25.76Q9.83 25.73 9.83 25.73L9.83 25.76L9.83 20.40Q9.83 20.34 9.83 20.33Q9.83 20.32 9.92 20.32L15.25 20.32L13.48 22.11Q11.06 24.56 9.83 25.76"/>
</svg>