<?xml version="1.0" encoding="UTF-8"?>
<svg xmlns="http://www.w3.org/2000/svg" width="32" height="32" viewBox="0 0 32 32">
  <path fill="#498ba7" d="M8.83 15.28L4.45 15.26Q4.37 15.26 4.39 15.20L4.67 14.88Q4.69 14.82 4.80 14.82L9.10 14.82Q9.18 14.82 9.15 14.88L8.94 15.20Q8.88 15.28 8.83 15.28M8.34 16.37L2.63 16.37Q2.54 16.37 2.57 16.32L2.84 15.99Q2.87 15.94 2.98 15.94L8.47 15.94Q8.56 15.94 8.53 15.99L8.45 16.29Q8.42 16.37 8.34 16.37M8.17 17.49L5.54 17.49Q5.45 17.49 5.51 17.41L5.67 17.11Q5.73 17.05 5.81 17.05L8.20 17.05Q8.28 17.05 8.28 17.13L8.26 17.41Q8.26 17.49 8.17 17.49M18.10 15.04Q17.67 15.15 16.96 15.34L16.04 15.58Q15.93 15.61 15.87 15.60Q15.82 15.58 15.71 15.45Q15.41 15.12 15.14 14.99Q14.05 14.47 12.96 15.18Q11.71 15.99 11.71 17.49Q11.74 18.20 12.19 18.74Q12.64 19.28 13.34 19.36Q14.57 19.53 15.41 18.58L15.74 18.14L13.40 18.14Q13.21 18.14 13.15 18.03Q13.10 17.92 13.18 17.76Q13.51 17 13.78 16.45Q13.89 16.26 14.08 16.26L18.48 16.26L18.48 16.59Q18.46 17.03 18.43 17.24Q18.21 18.58 17.42 19.61Q16.09 21.38 13.97 21.65Q12.12 21.89 10.73 20.86Q9.40 19.85 9.18 18.17Q8.96 16.26 10.21 14.63Q11.52 12.92 13.61 12.54Q15.44 12.21 16.80 13.14Q17.75 13.76 18.21 14.85Q18.32 14.99 18.10 15.04M22.43 21.70L22.10 21.73Q20.33 21.70 19.14 20.67Q18.05 19.72 17.83 18.33Q17.53 16.37 18.81 14.69Q19.46 13.82 20.28 13.34Q21.09 12.86 22.21 12.67Q24.22 12.32 25.68 13.30Q27.13 14.28 27.35 15.96Q27.65 18.36 25.96 20.07Q24.79 21.27 23.05 21.62Q22.84 21.65 22.43 21.70M24.96 16.84Q24.96 16.81 24.96 16.73Q24.96 16.54 24.93 16.45Q24.77 15.56 24.05 15.09Q23.32 14.63 22.45 14.85Q20.74 15.23 20.36 16.94Q20.20 17.65 20.51 18.29Q20.82 18.93 21.48 19.23Q22.45 19.66 23.43 19.15Q24.88 18.41 24.96 16.84"/>
</svg>