<?xml version="1.0" encoding="UTF-8"?>
<svg xmlns="http://www.w3.org/2000/svg" width="32" height="32" viewBox="0 0 32 32">
  <path fill="#b8383d" d="M14.59 9.44L11.03 11.69L14.59 9.44Q15.57 8.78 16.77 8.74Q17.97 8.70 19.05 9.23Q20.14 9.76 20.85 10.77Q21.37 11.48 21.56 12.33Q21.75 13.19 21.60 14.05Q21.45 14.90 20.99 15.58Q21.67 16.92 21.39 18.36Q21.26 19.15 20.82 19.83Q20.39 20.51 19.73 20.97L15.98 23.36Q15 24.02 13.80 24.06Q12.61 24.10 11.52 23.57Q10.43 23.04 9.72 22.03Q9.24 21.32 9.03 20.45Q8.83 19.58 8.99 18.74Q9.15 17.90 9.62 17.19Q8.91 15.88 9.18 14.44Q9.32 13.65 9.75 12.97Q10.19 12.29 10.84 11.83L14.59 9.44M19.38 11.72Q18.86 10.99 18.03 10.67Q17.20 10.36 16.33 10.58Q16.06 10.66 15.79 10.80L12.06 13.16Q11.60 13.44 11.32 13.87Q11.03 14.31 10.94 14.82Q10.84 15.34 10.96 15.86Q11.08 16.37 11.38 16.81Q11.90 17.54 12.73 17.84Q13.56 18.14 14.43 17.92Q14.70 17.84 14.97 17.71L16.50 16.75Q16.61 16.67 16.72 16.64Q16.99 16.59 17.25 16.67Q17.50 16.75 17.64 17Q17.83 17.24 17.78 17.57Q17.72 17.84 17.53 18L13.89 20.34Q13.78 20.43 13.67 20.45Q13.40 20.51 13.15 20.41Q12.91 20.32 12.76 20.11Q12.61 19.91 12.61 19.69L12.61 19.45L12.47 19.39Q11.85 19.20 11.30 18.85L10.89 18.58L10.84 18.77Q10.79 18.93 10.76 19.12Q10.65 19.64 10.77 20.15Q10.89 20.67 11.19 21.08Q11.68 21.79 12.46 22.10Q13.23 22.41 14.08 22.25L14.24 22.22Q14.54 22.14 14.78 22L18.54 19.64Q18.97 19.36 19.26 18.93Q19.54 18.49 19.64 17.98Q19.73 17.46 19.61 16.94Q19.49 16.43 19.19 15.99Q18.67 15.26 17.84 14.96Q17.01 14.66 16.14 14.88Q15.87 14.96 15.60 15.09L14.08 16.05Q13.97 16.13 13.86 16.16Q13.59 16.21 13.34 16.13Q13.10 16.05 12.93 15.80Q12.74 15.56 12.80 15.23Q12.85 14.96 13.04 14.80L16.69 12.46Q16.80 12.37 16.91 12.35Q17.18 12.29 17.42 12.39Q17.67 12.48 17.82 12.69Q17.97 12.89 17.97 13.11L17.97 13.35L18.10 13.41Q18.73 13.60 19.27 13.95L19.68 14.22L19.73 14.03Q19.79 13.84 19.82 13.68Q19.92 13.16 19.80 12.65Q19.68 12.13 19.38 11.72"/>
</svg>