<?xml version="1.0" encoding="UTF-8"?>
<svg xmlns="http://www.w3.org/2000/svg" width="32" height="32" viewBox="0 0 32 32">
  <path fill="#498ba7" d="M15.27 15.96L13.56 15.96Q12.66 15.96 12.13 16.50Q11.60 17.03 11.60 17.92L11.60 19.45Q11.60 19.72 11.36 19.72L10.60 19.72Q9.40 19.72 8.88 18.68Q8.47 17.84 8.47 17.16Q8.31 15.48 8.72 14.36Q9.15 13.05 10.32 12.84L15.25 12.84Q15.52 12.84 15.52 12.76L15.52 12.32L15.41 12.27Q15.30 12.24 15.27 12.24L12.36 12.24Q12.17 12.24 12.10 12.16Q12.04 12.08 12.04 11.88L12.04 10.80Q12.04 9.84 12.80 9.60Q13.64 9.25 14.08 9.16Q15.71 8.89 17.12 9.25Q17.83 9.41 18.32 9.76Q18.62 10.06 18.73 10.31Q18.89 10.61 18.84 10.96L18.84 14.01Q18.84 14.90 18.35 15.39Q17.86 15.88 16.96 15.88Q16.36 15.96 15.27 15.96M12.88 10.88Q12.88 11.15 13.07 11.35Q13.26 11.56 13.53 11.56Q13.80 11.56 14.02 11.34Q14.24 11.12 14.24 10.88Q14.24 10.63 14.04 10.44Q13.83 10.25 13.56 10.20Q13.26 10.20 13.07 10.40Q12.88 10.61 12.88 10.88M15.95 16.84L17.64 16.84Q18.54 16.84 19.07 16.30Q19.60 15.77 19.60 14.88L19.60 13.33Q19.60 13.08 19.84 13.08L20.60 13.08Q21.80 13.08 22.32 14.12Q22.75 14.96 22.75 15.64Q22.89 17.32 22.48 18.44Q22.05 19.75 20.88 19.96L15.95 19.96Q15.68 19.96 15.68 20.04L15.68 20.48L15.79 20.53Q15.90 20.56 15.95 20.56L18.84 20.56Q19.03 20.56 19.10 20.64Q19.16 20.72 19.16 20.92L19.16 22Q19.16 22.96 18.40 23.20Q17.56 23.53 17.12 23.64Q15.49 23.91 14.08 23.53Q13.37 23.39 12.88 23.04Q12.58 22.74 12.47 22.49Q12.31 22.19 12.36 21.84L12.36 18.77Q12.36 17.90 12.85 17.41Q13.34 16.92 14.24 16.92Q14.84 16.84 15.95 16.84M18.32 21.92Q18.32 21.65 18.13 21.45Q17.94 21.24 17.67 21.24Q17.40 21.24 17.18 21.46Q16.96 21.68 16.96 21.92Q16.96 22.17 17.16 22.36Q17.37 22.55 17.64 22.60Q17.94 22.60 18.13 22.40Q18.32 22.19 18.32 21.92"/>
</svg>