<?xml version="1.0" encoding="UTF-8"?>
<svg xmlns="http://www.w3.org/2000/svg" width="32" height="32" viewBox="0 0 32 32">
  <path fill="#498ba7" d="M12.53 11.64L12.55 11.64Q13.42 11.78 14 12.24L14.16 12.40Q14.35 12.54 14.40 12.65L14.48 12.65Q14.57 12.56 14.74 12.44Q14.92 12.32 15 12.24L15.60 11.97Q15.76 11.97 15.95 11.88L16.44 11.88Q16.91 11.88 17.31 12.16Q17.88 12.51 18.24 13.08Q18.24 13.14 18.28 13.14Q18.32 13.14 18.32 13.08L18.48 13.03Q18.81 12.92 19 12.92L19.68 12.92Q20.12 12.92 20.80 13.24L20.99 13.38Q21.34 13.57 21.48 13.76Q21.80 14.12 22.07 14.60Q22.32 14.99 22.32 15.56L22.32 16.24Q22.32 16.51 22.21 16.81Q22.16 17 21.96 17.32Q21.72 17.84 21.28 18.28Q20.99 18.58 20.60 18.68L19.84 18.96L18.76 18.96Q18.62 19.20 18.27 19.53L18.08 19.72Q17.75 19.91 17.20 20.04L16.72 20.04Q16.50 20.04 16.17 19.94L16.04 19.88L15.95 19.88Q15.87 20.07 15.65 20.34L15.52 20.56Q15.27 20.94 14.84 21.08Q14.05 21.46 13.19 21.26Q12.34 21.05 11.76 20.32Q11.57 20.10 11.44 19.72Q11.44 19.66 11.38 19.69L11.36 19.72L10.76 19.72Q10.62 19.72 10.43 19.68Q10.24 19.64 10.16 19.64Q9.83 19.53 9.48 19.28Q8.96 18.79 8.80 18.44Q8.94 17.92 8.80 17.68L8.80 17.16Q8.80 16.84 8.96 16.50Q9.13 16.16 9.30 15.98Q9.48 15.80 9.48 15.72Q9.72 15.48 9.92 15.39L9.94 15.37Q9.97 15.34 9.92 15.28Q9.72 14.96 9.72 14.71L9.72 13.92Q9.86 12.97 10.55 12.29Q11.25 11.61 12.20 11.56L12.36 11.56Q12.44 11.64 12.53 11.64"/>
</svg>