<?xml version="1.0" encoding="UTF-8"?>
<svg xmlns="http://www.w3.org/2000/svg" width="32" height="32" viewBox="0 0 32 32">
  <path fill="#498ba7" d="M19.84 19.45L22.40 21L15.60 24.89L15.60 21.84L19.84 19.45M20.36 19.12L22.92 20.56L22.92 12.40L20.36 13.84L20.36 19.12M10.76 19.45L8.12 21L15 24.89L15 21.84L10.76 19.45M10.16 19.12L7.60 20.56L7.60 12.40L10.16 13.84L10.16 19.12M10.40 13.24L7.88 11.88L14.92 7.89L14.92 10.80L10.40 13.24M20.12 13.24L22.64 11.88L15.60 7.89L15.60 10.80L20.12 13.24M14.92 16.75L14.92 21.16L10.68 18.88L10.68 14.28L14.92 16.75M15.60 16.75L15.60 21.16L19.84 18.88L19.84 14.28L15.60 16.75M15.27 16.16L11 13.68L15.27 11.40L19.52 13.68"/>
</svg>