<?xml version="1.0" encoding="UTF-8"?>
<svg xmlns="http://www.w3.org/2000/svg" width="32" height="32" viewBox="0 0 32 32">
  <path fill="#b8383d" d="M17.88 13.68Q17.78 12.29 16.78 11.41Q15.79 10.52 14.32 10.44L13.04 10.44Q12.96 9.44 13.42 8.70Q13.97 7.75 15.18 7.63Q16.39 7.51 17.20 8.32Q17.88 9.11 17.88 10.36Q17.88 10.61 17.99 10.72L18.76 11.48Q19.11 10.39 18.84 9.16Q18.51 8.05 17.63 7.37Q16.74 6.69 15.52 6.64Q14.73 6.64 14.19 6.80Q13.53 6.99 13.04 7.48Q12.44 8.05 12.16 8.97Q11.87 9.90 12.09 10.85Q12.34 11.88 13.12 12.65Q13.40 12.92 14.08 13.24Q14.38 13.38 14.61 13.20Q14.84 13.03 14.84 12.76Q14.84 12.18 14.24 12.08Q14.16 12.08 14 11.88L14 11.80Q14.24 11.75 14.53 11.82Q14.81 11.88 15 12.08Q15.38 12.46 15.25 13.08Q15.14 13.54 14.77 13.72Q14.40 13.90 13.89 13.76Q12.61 13.41 11.96 12.08Q11.90 11.94 11.78 11.68Q11.66 11.42 11.60 11.29Q11.08 11.83 10.81 12.21Q10.46 12.76 10.32 13.33Q9.83 15.61 11.52 17.16Q11.60 17.24 11.63 17.31Q11.66 17.38 11.60 17.52Q11.47 18.68 11.28 19.45Q11.14 20.18 10.92 21.58Q10.70 22.98 10.58 23.69Q10.46 24.40 10.60 25.08Q10.73 25.62 11.28 25.84Q11.30 25.68 11.34 25.34Q11.38 25 11.44 24.80Q11.57 24.10 11.78 22.70Q11.98 21.30 12.12 20.56Q12.20 20.13 12.32 19.24Q12.44 18.36 12.55 17.92Q12.55 17.68 12.80 17.68Q12.91 17.68 12.93 17.76Q12.96 17.84 12.96 18Q12.85 19.01 12.55 20.48Q12.42 21.38 12.15 23.04Q11.82 24.94 11.68 25.84Q11.68 25.89 11.74 25.95L11.76 26Q11.98 26 12.36 26.04Q12.74 26.08 12.96 26.08Q13.48 26.08 14 25.40Q14.35 25.05 14.08 24.48Q13.91 24.32 13.91 24.21Q13.53 23.72 14.08 23.44Q14.10 23.42 14.24 23.38Q14.38 23.34 14.40 23.28Q14.54 23.23 14.58 23.06Q14.62 22.90 14.48 22.76L14.24 22.52Q13.97 22.19 13.83 22.08Q13.70 21.98 13.74 21.77Q13.78 21.57 13.90 21.49Q14.02 21.40 14.32 21.28Q14.62 21.16 14.76 21.08Q14.89 21 14.92 20.89Q14.95 20.78 14.84 20.64Q14.68 20.48 14.57 20.32Q14.40 20.13 14.43 19.85Q14.46 19.58 14.65 19.43Q14.84 19.28 15 19.28Q15.25 19.17 15.27 18.96Q15.25 18.82 15.30 18.56Q15.36 18.30 15.36 18.20Q15.36 18.11 15.41 18Q15.46 17.90 15.52 17.84Q15.76 17.60 16.44 17.24Q17.31 16.62 17.67 15.71Q18.02 14.80 17.88 13.68M20.96 23.36Q20.96 23.04 20.60 23.04Q20.41 23.04 20.33 23.01Q20.17 22.96 20.12 22.76Q19.98 22.38 20.12 22Q20.39 21.46 19.76 21.32Q19.68 21.32 19.49 21.28Q19.30 21.24 19.16 21.24Q18.92 21.24 18.92 21Q18.92 20.92 18.88 20.74Q18.84 20.56 18.84 20.48Q18.84 20.32 18.95 20.15Q19 20.04 19.15 19.87Q19.30 19.69 19.29 19.60Q19.27 19.50 19.08 19.36Q19.05 19.34 18.92 19.26Q18.78 19.17 18.76 19.12Q18.51 18.98 18.47 18.85Q18.43 18.71 18.56 18.44Q18.76 18.28 18.76 18.20Q18.97 17.95 18.84 17.68L18.76 17.54Q18.62 17.22 18.48 17.08Q18.37 16.84 18.48 16.56Q19.57 14.41 18.76 12.40Q18.10 11.01 16.52 10.63L16.44 10.72Q16.50 10.74 16.58 10.88Q16.66 11.01 16.72 11.04Q18.32 12.40 18.32 14.36Q18.32 16.56 16.44 17.92Q16.31 18 16.27 18.11Q16.23 18.22 16.28 18.36Q16.44 18.77 16.74 19.58Q17.04 20.40 17.20 20.81L19.24 25.57L19.30 25.65Q19.38 25.76 19.52 25.76Q20.28 25.38 20.69 24.72Q21.09 24.07 20.96 23.36M15.84 18.36Q15.82 18.52 15.78 18.79Q15.74 19.07 15.68 19.20L15.65 19.36Q15.63 19.61 15.68 19.72L17.48 24.12Q17.78 24.89 18.32 25.32Q18.65 25.48 18.76 25.59L18.84 25.48Q17.88 23.12 15.84 18.36"/>
</svg>