<?xml version="1.0" encoding="UTF-8"?>
<svg xmlns="http://www.w3.org/2000/svg" width="32" height="32" viewBox="0 0 32 32">
  <path fill="#b8383d" d="M24.88 16.64L19.92 17.24Q20.20 18.14 20.82 20.48L21.39 22.60L24.88 22.17L24.88 16.64M15.08 23.36L14 17.84L7.68 18.52L7.68 24.32L15.08 23.36M19.24 12.24Q18.92 12.92 18.65 13.16L19.16 14.88L24.79 14.20L24.36 13.54Q23.81 12.78 23.22 12.13Q22.37 11.23 21.56 10.72Q20.52 10.06 19.52 9.76Q19.82 10.88 19.24 12.24M13.12 14.96Q11.68 14.82 10.76 13.76L7.68 16.16L13.32 15.48Q13.26 15.37 13.22 15.20Q13.18 15.04 13.12 14.96M17.75 15.56L17.12 13.24Q17.07 13.05 17.08 12.92Q17.10 12.78 17.20 12.65Q17.56 12.16 17.72 11.80Q18.32 10.47 17.64 9.44Q16.91 8.21 15.44 8.48Q15.25 8.48 15.19 8.65Q15.14 8.81 15.27 9L16.04 10.52L16.04 10.61Q16.06 10.66 16.05 10.69Q16.04 10.72 15.95 10.72Q14.92 11.40 14.48 11.64Q14.38 11.78 14.24 11.64Q13.91 11.29 13.40 10.61Q13.29 10.52 13.12 10.39L12.96 10.28L12.83 10.25Q12.69 10.25 12.64 10.36Q12.28 10.93 12.20 11.64Q12.09 12.46 12.44 13Q13.10 14.01 14.24 14.01Q14.40 14.01 14.51 14.06Q14.62 14.12 14.68 14.28L15.06 15.99Q16.66 22.71 16.80 23.55Q16.85 23.93 17.10 24.19Q17.34 24.45 17.64 24.40L17.91 24.34Q18.46 24.29 18.70 24.21Q19.14 24.07 19.44 23.80Q19.90 23.34 19.76 22.68Q19.57 22.33 17.75 15.56"/>
</svg>