<?xml version="1.0" encoding="UTF-8"?>
<svg xmlns="http://www.w3.org/2000/svg" width="32" height="32" viewBox="0 0 32 32">
  <path fill="#b7b73b" d="M8.72 12.16L8.72 17.68L7.52 17.68L7.52 18.77L11.28 18.77L11.28 17.68L10.16 17.68L10.16 12.16L10.51 12.16Q11.03 12.16 11.28 12.21Q11.52 12.27 11.64 12.43Q11.76 12.59 11.87 13L12.88 13L12.72 11.04L6.08 11.04L5.84 14.12L6.84 14.12L6.84 13.68Q6.92 12.89 7.03 12.65Q7.17 12.32 7.44 12.24Q7.68 12.16 8.36 12.16L8.72 12.16M15.44 20.72L14 20.72L14 18.36L14.48 18.36Q14.84 18.36 14.93 18.39Q15.03 18.41 15.06 18.55Q15.08 18.68 15.08 19.12L15.08 19.56L16.12 19.56L16.12 16.05L15.08 16.05L15.08 16.48Q15.08 16.92 15.06 17.05Q15.03 17.19 14.93 17.22Q14.84 17.24 14.48 17.24L14 17.24L14 15.20L15.36 15.20Q15.98 15.20 16.27 15.34Q16.55 15.48 16.66 15.80Q16.74 16.07 16.80 16.73L17.80 16.73L17.56 14.01L11.60 14.01L11.60 15.12L12.44 15.12L12.44 20.56L11.60 20.56L11.60 21.68L17.64 21.68L17.97 19.45L16.88 19.45Q16.88 20.18 16.57 20.45Q16.25 20.72 15.44 20.72M20.44 18.77L20.44 17.76L20.03 17.76L21.28 15.88L22.56 17.76L22.32 17.76L22.32 18.68L25.36 18.68L25.36 17.68L24.96 17.68Q24.58 17.68 24.49 17.65Q24.41 17.62 24.36 17.52L22.32 14.52L23.68 12.56L23.76 12.48Q23.92 12.29 24.06 12.21Q24.28 12.08 24.60 12.08L25.04 12.08L25.04 10.96L22.40 10.96L22.40 11.97L22.84 11.97L22.75 12.08L21.72 13.52L20.60 12.16L20.88 12.16L20.88 10.96L17.80 10.96L17.80 12.16L18.24 12.16Q18.62 12.16 18.69 12.17Q18.76 12.18 18.84 12.32L20.60 14.96L19.08 17.24L18.84 17.52Q18.56 17.76 18.16 17.76L17.72 17.76L17.72 18.77"/>
</svg>