<?xml version="1.0" encoding="UTF-8"?>
<svg xmlns="http://www.w3.org/2000/svg" width="32" height="32" viewBox="0 0 32 32">
  <path fill="#9068b0" d="M16.72 11.31Q17.07 12.05 17.69 12.84Q18.08 13.30 18.92 14.17Q19.82 15.15 20.22 15.64Q20.88 16.51 21.18 17.32Q21.53 18.33 21.42 19.47Q21.26 21.60 20.22 23.01Q19.41 24.18 18.10 24.78Q17.07 25.27 15.94 25.31Q14.81 25.35 13.75 25.02Q12.34 24.61 11.38 23.64Q10.19 22.41 9.75 20.43Q9.37 18.68 9.89 16.40Q10.38 14.39 11.47 12.27Q12.50 10.31 13.75 8.85Q15 7.40 16.01 6.99Q15.93 7.94 16.12 9.14Q16.31 10.44 16.72 11.31M14.35 23.72Q15.46 23.96 15.90 23.96Q16.52 23.99 16.61 23.66Q16.80 22.82 12.01 22.30Q12.44 22.74 13.17 23.19Q13.89 23.64 14.35 23.72"/>
</svg>