<?xml version="1.0" encoding="UTF-8"?>
<svg xmlns="http://www.w3.org/2000/svg" width="32" height="32" viewBox="0 0 32 32">
  <path fill="#b8383d" d="M24.96 18.96L16.28 18.96L16.28 21.49L24.96 21.49L24.96 18.96M7.96 21.49L7.96 11.29L10.51 11.29L10.51 21.49L7.96 21.49M6.24 14.69L6.24 12.16L7.96 12.16L7.96 14.69L6.24 14.69M13.91 16.40Q13.91 15.31 14.63 14.58Q15.36 13.84 16.44 13.84Q17.29 13.84 17.93 14.32Q18.56 14.80 18.84 15.56L21.48 15.56Q21.26 14.36 20.55 13.39Q19.84 12.43 18.77 11.86Q17.69 11.29 16.44 11.29Q15.08 11.29 13.90 11.98Q12.72 12.67 12.04 13.84Q11.36 15.01 11.36 16.40Q11.36 17.79 12.04 18.96Q12.72 20.13 13.90 20.81Q15.08 21.49 16.46 21.49Q17.83 21.49 19.03 20.79Q20.22 20.10 20.88 18.96L16.44 18.96Q15.36 18.96 14.63 18.22Q13.91 17.49 13.91 16.40"/>
</svg>