<?xml version="1.0" encoding="UTF-8"?>
<svg xmlns="http://www.w3.org/2000/svg" width="32" height="32" viewBox="0 0 32 32">
  <path fill="#498ba7" d="M24.09 15.64L24.11 15.64Q23.98 13.65 22.75 11.72Q21.86 10.39 20.60 9.50Q19.35 8.62 17.80 8.24Q16.91 8 16.12 8L14.76 8Q12.31 8.24 10.24 9.76Q7.88 11.75 7.28 14.52Q7.11 15.37 7.11 15.88L7.11 17.24Q7.39 19.61 8.56 21.24Q10.05 23.44 12.28 24.32Q13.83 24.86 15.08 25L16.44 25Q19.54 24.72 21.72 22.44Q23.49 20.67 24 18.20Q24.06 17.98 24.10 17.60Q24.14 17.22 24.20 17L24.20 16.07Q24.09 15.88 24.09 15.64M15.60 23.64Q13.64 23.64 11.98 22.63Q10.35 21.68 9.41 20.02Q8.47 18.36 8.47 16.40Q8.47 14.44 9.44 12.78Q10.40 11.12 12.06 10.17Q13.78 9.16 15.76 9.16Q17.69 9.22 19.34 10.18Q20.99 11.15 21.94 12.78Q22.92 14.44 22.89 16.40Q22.86 18.36 21.87 20.02Q20.88 21.68 19.24 22.63Q17.56 23.64 15.60 23.64M18.16 21L17.64 21Q17.40 21 17.20 20.92Q17.10 20.92 17.01 20.75Q16.99 20.67 16.96 20.64L16.96 15.12Q16.28 15.18 14.96 15.22Q13.64 15.26 12.96 15.28L12.96 15.96L13.80 15.96Q14.05 15.96 14.19 16.13Q14.32 16.29 14.32 16.56L14.32 20.48Q14.32 21 13.80 21L13.04 21L13.04 21.68L18.16 21.68L18.16 21M15.44 14.12Q16.06 14.12 16.47 13.68Q16.88 13.24 16.88 12.66Q16.88 12.08 16.44 11.64Q16.01 11.20 15.41 11.20Q14.81 11.20 14.40 11.64Q14 12.08 14 12.66Q14 13.24 14.43 13.68Q14.87 14.12 15.44 14.12"/>
</svg>