<?xml version="1.0" encoding="UTF-8"?>
<svg xmlns="http://www.w3.org/2000/svg" width="32" height="32" viewBox="0 0 32 32">
  <path fill="#b8383d" d="M24.93 10.28Q24.93 10.25 24.85 10.20L24.79 10.14L24.71 10.14L23.57 10.66Q21.28 11.64 18.29 11.83L15.84 11.99Q14.59 12.08 13.94 12.02Q12.91 11.94 12.06 11.56Q12.39 12.27 11.68 12.56L11.68 12.65L11.82 12.73Q12.01 12.84 12.12 12.86L12.25 12.89Q12.61 13 12.77 13.14Q13.15 13.41 13.26 13.76Q13.29 13.84 13.48 13.84L13.67 13.87Q14.19 13.90 14.44 13.88Q14.70 13.87 14.88 13.95Q15.06 14.03 15.03 14.20Q15 14.36 14.81 14.51Q14.62 14.66 14.42 14.71Q14.21 14.77 13.80 14.74L13.56 14.71Q13.37 14.69 13.30 14.75Q13.23 14.82 13.32 15.01Q13.34 15.12 13.37 15.39L13.40 15.56L14.97 15.56L14.87 17.79L13.64 17.71L13.59 17.38L14.24 16.89Q13.89 16.64 13.36 16.63Q12.83 16.62 12.23 16.86L12.36 16.97Q12.53 17.13 12.64 17.19Q12.88 17.38 12.87 17.50Q12.85 17.62 12.53 17.79Q12.80 18.25 12.85 18.85Q12.91 19.26 12.85 19.96Q12.85 20.02 12.77 20.14Q12.69 20.26 12.69 20.32L12.66 20.43Q12.55 20.83 12.64 20.92Q12.74 21.02 12.77 21.19Q12.80 21.30 12.77 21.49L12.77 21.68Q12.80 21.87 12.77 22.03Q12.72 22.36 13.07 22.33L13.72 22.33L13.56 21.08L14.65 21.08L14.51 22.19L15.87 22.19L15.87 20.97L16.61 20.92L16.61 22.11L17.42 22.11L17.42 21.79L17.45 21.43Q17.50 20.97 17.50 20.72Q17.50 20.59 17.46 20.36Q17.42 20.13 17.40 20.02L17.37 19.66Q17.31 19.26 17.31 19.04Q17.31 18.68 17.45 18.41Q17.67 18.03 17.37 17.84Q17.31 17.81 17.33 17.66Q17.34 17.52 17.41 17.42Q17.48 17.32 17.72 17.13L17.86 17Q16.96 16.64 16.06 17L16.63 17.71L16.55 17.81L15.76 17.81L15.76 15.50L20.06 15.26L19.92 17.65L19.22 17.65L19.22 17.16L19.90 16.64Q18.86 16.18 17.75 16.62L18.21 17.11Q18.37 17.27 18.36 17.35Q18.35 17.43 18.24 17.57L18.10 17.71Q18.18 17.79 18.17 17.98Q18.16 18.17 18.18 18.28Q18.21 18.39 18.35 18.47Q18.40 18.47 18.37 18.63L18.37 19.04Q18.37 19.69 18.35 20.04Q18.35 20.24 18.13 20.53L18.21 20.92Q18.29 21.38 18.29 21.60Q18.32 22 18.27 22.33Q18.24 22.38 18.32 22.55L18.37 22.66L19.41 22.66L19.27 21.21L20.01 21.21L20.01 22.44L21.48 22.44L21.34 21.13L21.99 21.13L21.99 22.30L22.13 22.36Q22.56 22.38 22.70 22.37Q22.84 22.36 22.86 22.22Q22.89 22.08 22.89 21.68L22.89 21.65Q22.86 21.40 22.94 20.92L23 20.51Q23 20.43 23 20.37Q22.75 19.96 22.75 19.42Q22.78 19.09 22.89 18.47L22.89 18.39Q22.92 18.25 22.86 17.95L22.81 17.73L22.78 17.38L23.41 16.84Q22.37 16.45 21.42 16.84Q21.48 16.97 21.71 17.12Q21.94 17.27 21.99 17.35Q22.10 17.52 22.05 17.73L21.31 17.73Q21.26 17.73 21.19 17.69Q21.12 17.65 21.12 17.60L20.80 15.26L22.97 15.07L23 14.82Q23.08 14.47 23.08 14.28Q23.08 14.22 22.98 14.16Q22.89 14.09 22.84 14.09Q22.13 14.12 21.83 14.22Q21.58 14.31 21.37 14.22Q21.23 14.17 21.01 14.01L20.88 13.92L20.93 13.82Q20.99 13.65 21.04 13.60Q21.18 13.41 21.28 13.38L22.81 13.16Q23.05 13.11 23.08 13.03Q23.19 12.62 23.52 12.43Q23.71 12.29 24.17 12.16L24.93 11.91L24.93 11.78Q24.96 10.91 24.93 10.28M14.73 18.55L14.73 20.21Q14.24 20.24 13.61 20.29L13.61 18.47L14.73 18.55M15.76 18.55L16.61 18.55Q16.61 18.68 16.61 18.98Q16.61 19.66 16.61 20.02Q16.61 20.18 16.52 20.21Q16.44 20.24 16.31 20.21L16.12 20.21Q15.95 20.24 15.87 20.21Q15.79 20.18 15.79 19.99L15.76 18.55M16.17 14.55Q15.84 14.47 15.84 14.25Q15.84 14.09 16.04 13.82L17.01 13.73L17.15 14.55L16.82 14.58Q16.36 14.60 16.17 14.55M19.95 18.47L19.95 20.37L19.27 20.37L19.27 18.47L19.95 18.47M21.26 18.49L22.05 18.47L22.05 20.29L21.37 20.34L21.26 18.49M18.65 14.41Q18.62 14.01 18.67 13.84Q18.73 13.68 18.95 13.61Q19.16 13.54 19.79 13.52L20.09 13.90Q19.84 14.28 19.44 14.39Q19.14 14.47 18.65 14.41"/>
</svg>