<?xml version="1.0" encoding="UTF-8"?>
<svg xmlns="http://www.w3.org/2000/svg" width="32" height="32" viewBox="0 0 32 32">
  <path fill="#7fae42" d="M22.29 15.42L24.28 15.42L24.28 23.34L12.39 23.34L12.39 15.42L14.38 15.42L14.38 13.46Q14.38 13.14 14.43 12.86Q14.57 11.80 15.23 10.97Q15.90 10.14 16.89 9.75Q17.88 9.36 18.97 9.52Q20.39 9.76 21.34 10.88Q22.29 11.99 22.29 13.44L22.29 15.42M16.33 15.42L20.31 15.42Q20.31 15.39 20.31 15.37L20.31 13.38Q20.31 13.24 20.28 13.05Q20.12 12.27 19.50 11.83Q18.89 11.40 18.08 11.48Q17.34 11.53 16.84 12.12Q16.33 12.70 16.33 13.46"/>
</svg>