<?xml version="1.0" encoding="UTF-8"?>
<svg xmlns="http://www.w3.org/2000/svg" width="32" height="32" viewBox="0 0 32 32">
  <path fill="#498ba7" d="M10.51 8.76L18.56 8.76Q19.27 8.76 19.78 9.26Q20.28 9.76 20.28 10.47L20.28 22.33Q20.28 23.04 19.78 23.54Q19.27 24.04 18.56 24.04L10.51 24.04Q9.81 24.04 9.30 23.54Q8.80 23.04 8.80 22.33L8.80 10.47Q8.80 9.76 9.30 9.26Q9.81 8.76 10.51 8.76M21.61 18.68L21.04 18.68L21.61 18.68Q21.83 18.68 21.99 18.83Q22.16 18.98 22.18 19.20L22.18 20.43Q22.18 20.64 22.05 20.79Q21.91 20.94 21.69 21L21.04 21L21.04 18.68L21.61 18.68M21.61 15.64L21.04 15.64L21.61 15.64Q21.83 15.64 21.99 15.77Q22.16 15.91 22.18 16.13L22.18 17.35Q22.18 17.57 22.05 17.73Q21.91 17.90 21.69 17.92L21.04 17.92L21.04 15.64L21.61 15.64M21.61 12.56L21.04 12.56L21.61 12.56Q21.83 12.56 21.99 12.71Q22.16 12.86 22.18 13.08L22.18 14.31Q22.18 14.52 22.05 14.67Q21.91 14.82 21.69 14.88L21.04 14.88L21.04 12.56L21.61 12.56M17.01 11.42L12.06 11.42Q11.85 11.42 11.68 11.57Q11.52 11.72 11.49 11.91L11.47 13.16Q11.47 13.35 11.62 13.52Q11.76 13.68 11.98 13.71L17.01 13.73Q17.23 13.73 17.40 13.58Q17.56 13.44 17.59 13.22L17.61 11.99Q17.61 11.75 17.44 11.59Q17.26 11.42 17.01 11.42"/>
</svg>