<?xml version="1.0" encoding="UTF-8"?>
<svg xmlns="http://www.w3.org/2000/svg" width="32" height="32" viewBox="0 0 32 32">
  <path fill="#b8383d" d="M7.96 19.47L7.09 19.47L9.32 13.30L10.49 13.30L12.72 19.47L11.52 19.47L10.89 17.81L8.56 17.81L7.96 19.47M9.72 14.55L8.83 17.05L10.60 17.05L9.72 14.55M13.02 19.42L13.02 18.39Q14.32 18.82 15.06 18.82Q15.60 18.82 16.01 18.60Q16.20 18.47 16.28 18.33Q16.36 18.20 16.36 17.98Q16.36 17.65 16.17 17.49Q15.93 17.22 15.36 17L14.84 16.78Q14 16.35 13.42 15.83Q13.02 15.39 13.02 14.85Q13.02 14.03 13.70 13.63Q14.38 13.14 15.52 13.14Q16.55 13.14 17.48 13.35L17.48 14.33Q16.33 14.01 15.65 14.01Q15.16 14.01 14.84 14.17Q14.54 14.41 14.54 14.69Q14.54 14.96 14.76 15.12Q15.06 15.34 15.57 15.61L16.06 15.83Q17.12 16.35 17.53 16.78Q17.94 17.22 17.94 17.81Q17.94 18.25 17.75 18.60Q17.56 18.96 17.18 19.15Q16.50 19.64 15.11 19.64Q14.10 19.64 13.02 19.42M19.30 19.47L18.40 19.47L18.40 13.35L19.98 13.35L21.34 17.71L22.75 13.35L24.11 13.35L24.11 19.47L23 19.47L23 14.80L21.64 19.04L20.69 19.04L19.30 14.74"/>
</svg>