<?xml version="1.0" encoding="UTF-8"?>
<svg xmlns="http://www.w3.org/2000/svg" width="32" height="32" viewBox="0 0 32 32">
  <path fill="#498ba7" d="M24.11 12.48L24.11 10.28Q24.11 10.01 23.92 9.80Q23.73 9.60 23.43 9.60L17.20 9.60L17.20 8.08L16.04 8.08Q15.95 8.08 15.82 8.12Q15.68 8.16 15.60 8.16Q15.30 8.19 14.70 8.32Q14.10 8.46 13.80 8.48Q12.64 8.68 12.12 8.84Q10.92 9 10.24 9.16L8.36 9.44Q7.52 9.60 7.20 9.60L7.11 9.60L7.11 23.12Q7.44 23.15 8.12 23.28Q8.80 23.42 9.14 23.46Q9.48 23.50 10.20 23.62Q10.92 23.74 11.26 23.78Q11.60 23.83 12.28 23.96Q12.96 24.10 13.32 24.12Q14.16 24.23 15.44 24.56Q15.68 24.64 16.28 24.64L17.04 24.64L17.04 23.20Q17.04 23.15 17.06 23.13Q17.07 23.12 17.12 23.12L23.32 23.12Q23.60 23.12 23.68 23.04Q23.92 23.04 23.92 22.76Q23.92 22.68 23.96 22.56Q24 22.44 24 22.36L24 12.48L24.09 12.56Q24.11 12.56 24.11 12.48M14.76 13.76L14 17.08Q13.89 17.41 13.75 18.09Q13.64 18.66 13.56 18.96Q13.56 19.01 13.51 19.01L13.48 19.04Q13.37 19.09 13.12 19.07L12.96 19.04L12.44 19.04Q12.39 19.04 12.38 19.02Q12.36 19.01 12.36 18.96Q12.34 18.68 12.20 18.14Q12.06 17.60 12.04 17.32Q11.96 17 11.82 16.32Q11.68 15.64 11.60 15.28Q11.60 15.37 11.56 15.54Q11.52 15.72 11.52 15.80L11 18.36Q11 18.44 10.96 18.66Q10.92 18.88 10.92 18.94Q10.92 19.01 10.91 19.02Q10.89 19.04 10.84 19.04Q10.68 19.04 10.34 19Q10 18.96 9.83 18.96Q9.75 18.96 9.74 18.94Q9.72 18.93 9.72 18.88Q9.24 16.16 8.88 14.71Q8.85 14.58 8.80 14.28Q8.75 13.98 8.72 13.84L8.72 13.76L9.72 13.76Q9.81 14.31 10 15.42Q10.24 16.73 10.32 17.41Q10.32 17.32 10.36 17.16Q10.40 17 10.40 16.92Q10.54 16.40 10.76 15.34Q10.98 14.28 11.08 13.76Q11.08 13.71 11.10 13.69Q11.11 13.68 11.19 13.68L12.04 13.68Q12.15 13.68 12.19 13.71Q12.23 13.73 12.28 13.84Q12.80 16.24 13.04 17.52L13.04 17.60Q13.10 17.24 13.22 16.56Q13.34 15.88 13.38 15.57Q13.42 15.26 13.56 14.62Q13.70 13.98 13.72 13.68L13.75 13.63Q13.75 13.60 13.80 13.60Q14.48 13.60 14.92 13.52L15 13.52Q14.89 13.52 14.82 13.60Q14.76 13.68 14.76 13.76M23.52 10.28Q23.52 10.31 23.52 10.31L23.52 10.28L23.52 22.60L17.12 22.60L17.12 21.08L22.16 21.08L22.16 20.32L17.31 20.32Q17.23 20.32 17.22 20.30Q17.20 20.29 17.20 20.24L17.20 19.45Q17.20 19.39 17.22 19.38Q17.23 19.36 17.31 19.36L22.24 19.36L22.24 18.60L17.20 18.60L17.20 17.68L22.16 17.68Q22.21 17.68 22.22 17.66Q22.24 17.65 22.24 17.60L22.24 17Q22.24 16.94 22.22 16.93Q22.21 16.92 22.16 16.92L17.31 16.92Q17.23 16.92 17.22 16.90Q17.20 16.89 17.20 16.84L17.20 15.96L22.24 15.96L22.24 15.20L17.40 15.20Q17.31 15.20 17.30 15.19Q17.29 15.18 17.29 15.12L17.29 14.36Q17.29 14.31 17.30 14.29Q17.31 14.28 17.40 14.28L22.24 14.28L22.24 13.52L17.20 13.52L17.20 12.48L22.16 12.48Q22.21 12.48 22.22 12.47Q22.24 12.46 22.24 12.40L22.24 11.80Q22.24 11.75 22.22 11.74Q22.21 11.72 22.16 11.72L17.12 11.72L17.12 10.44Q17.12 10.39 17.14 10.38Q17.15 10.36 17.20 10.36L23.43 10.36L23.49 10.23Q23.52 10.23 23.52 10.28"/>
</svg>