<?xml version="1.0" encoding="UTF-8"?>
<svg xmlns="http://www.w3.org/2000/svg" width="32" height="32" viewBox="0 0 32 32">
  <path fill="#455155" d="M14.32 11.94L14.32 10.72L16.36 10.72L16.36 11.94L14.32 11.94M18.76 9.36L18.78 13.41L16.63 12.05Q16.58 12.02 16.58 11.29L16.61 10.55L18.76 9.36M11.90 9.30L11.85 13.35L14.02 12.02Q14.08 11.97 14.08 11.23L14.05 10.52L11.90 9.30M14.73 13.76Q14.73 13.54 14.89 13.38Q15.06 13.22 15.29 13.22Q15.52 13.22 15.67 13.38Q15.82 13.54 15.82 13.78Q15.82 14.01 15.67 14.17Q15.52 14.33 15.29 14.33Q15.06 14.33 14.89 14.17Q14.73 14.01 14.73 13.76M14.73 17.16Q14.73 16.92 14.89 16.75Q15.06 16.59 15.29 16.59Q15.52 16.59 15.67 16.75Q15.82 16.92 15.82 17.15Q15.82 17.38 15.67 17.54Q15.52 17.71 15.29 17.71Q15.06 17.71 14.89 17.54Q14.73 17.38 14.73 17.16M14.73 20.53Q14.73 20.32 14.89 20.15Q15.06 19.99 15.29 19.99Q15.52 19.99 15.67 20.15Q15.82 20.32 15.82 20.55Q15.82 20.78 15.67 20.94Q15.52 21.11 15.29 21.11Q15.06 21.11 14.89 20.94Q14.73 20.78 14.73 20.53M21.96 12.43L23.43 11.10L21.09 8.92L19.79 8.92L19.11 11.34L19.05 13.90L18.43 13.54L15.46 24.70L23 13.65L21.96 12.43M8.66 12.40L7.20 11.04L9.53 8.89L10.87 8.89L11.55 11.29L11.57 13.87L12.20 13.49L15.16 24.64L7.63 13.63L8.66 12.40M12.12 13.68"/>
</svg>