<?xml version="1.0" encoding="UTF-8"?>
<svg xmlns="http://www.w3.org/2000/svg" width="32" height="32" viewBox="0 0 32 32">
  <path fill="#498ba7" d="M13.56 23.83L13.40 24.89L12.12 24.89Q12.15 24.78 12.19 24.52Q12.23 24.26 12.28 24.21Q12.74 24.04 12.85 23.66Q12.93 23.44 12.91 22.90L12.88 22.52L12.88 17.24Q12.58 17.19 11.96 17.13Q11.47 17.08 11.22 17.05Q10.84 16.97 10.60 16.84Q9.21 15.94 8.81 14.56Q8.42 13.19 9.04 11.64Q9.48 10.66 8.45 10.52Q8.28 10.52 7.77 10.36L7.77 10.20Q8.04 10.06 8.50 9.76Q8.96 9.46 9.24 9.36Q9.29 9.30 9.48 9.30Q9.81 9.27 9.92 9.16Q10.62 8.81 10.98 8.76Q11.33 8.70 11.60 8.96Q11.87 9.22 12.28 9.93Q12.58 10.55 12.55 11.15Q12.53 11.75 12.20 12.40Q11.93 12.86 11.90 13.11Q11.85 13.52 12.28 13.68L12.83 12.92Q13.80 11.50 14.35 10.85Q15.22 9.76 16.12 9.11Q17.18 8.29 18.40 7.89L19 7.89Q19.16 8.13 19.57 8.57Q20.17 9.19 20.36 9.60Q20.80 10.31 21.56 11.78Q22.40 13.41 22.92 14.20Q23.24 14.69 23.34 15.45Q23.43 16.21 23.24 16.90Q23.05 17.60 22.64 17.92L22.64 14.96L22.32 14.96Q21.94 15.50 21.88 16.24Q21.83 16.67 21.91 17.60Q21.96 18.28 21.96 18.60Q21.96 19.69 21.94 21.81Q21.88 23.88 21.88 24.89L21.28 24.89L21.28 24.67Q21.23 24.40 21.28 24.21Q21.80 20.32 20.36 16.40Q19.30 17.35 19.16 18.96Q19.11 19.47 18.95 20.10Q18.84 20.48 18.56 21.24Q18.51 21.40 18.35 21.70Q18.10 22.19 18.08 22.44Q18.05 22.85 18.48 23.20Q18.54 23.25 18.47 23.59Q18.40 23.93 18.40 24.12L18.08 23.72Q17.83 23.39 17.72 23.28L17.72 23.55Q17.42 23.64 16.78 23.76Q16.14 23.88 15.84 23.96Q15.84 23.93 15.80 23.80Q15.76 23.66 15.76 23.64Q16.12 23.44 16.28 23.28Q16.91 22.90 16.97 22.51Q17.04 22.11 16.52 21.68Q14.87 20.37 15.60 18.52Q15.71 18.30 15.74 17.76Q15.74 17.35 15.76 17.08L15.27 17.35Q14.92 17.52 14.81 17.60Q14.62 17.73 14.59 17.84Q14.27 19.04 13.94 21.54L13.91 21.76Q13.72 22.52 13.56 23.83M16.28 20.40L17.31 21.68Q18.18 20.53 18.32 19.34Q18.46 18.14 17.80 17.24Q16.80 19.28 16.28 20.40"/>
</svg>