<?xml version="1.0" encoding="UTF-8"?>
<svg xmlns="http://www.w3.org/2000/svg" width="32" height="32" viewBox="0 0 32 32">
  <path fill="#b7b73b" d="M15.60 19.56L13.80 19.56Q13.34 19.56 13.23 19.47Q13.12 19.39 13.04 18.96Q12.66 17.03 11.76 15.39Q11.33 14.63 10.92 13.52Q10.43 12.13 10.68 10.61Q10.79 9.63 11.37 8.88Q11.96 8.13 12.88 7.72Q14.29 7.10 15.74 7.11Q17.18 7.12 18.56 7.80Q19.84 8.38 20.40 9.60Q20.96 10.82 20.71 12.32Q20.58 13.19 20.22 14.09Q19.98 14.71 19.44 15.72Q18.54 17.52 18.32 18.88Q18.24 19.28 18.17 19.42Q18.10 19.56 17.95 19.60Q17.80 19.64 17.40 19.64Q16.72 19.56 15.60 19.56M15.52 25.76L13.48 25.76Q13.21 25.76 13.08 25.65Q12.96 25.54 12.96 25.24L12.96 24.89Q12.96 24.51 12.99 24.38Q13.02 24.26 13.17 24.23Q13.32 24.21 13.75 24.21L17.64 24.23Q17.94 24.21 18.05 24.33Q18.16 24.45 18.16 24.72Q18.16 25.24 18.12 25.42Q18.08 25.59 17.90 25.63Q17.72 25.68 17.20 25.68Q16.72 25.76 15.52 25.76M17.42 22.68L15.60 22.68L13.48 22.68Q13.23 22.68 13.14 22.60Q13.04 22.52 13.04 22.28L13.04 22.03Q13.04 21.60 13.07 21.46Q13.10 21.32 13.23 21.28Q13.37 21.24 13.78 21.24L17.64 21.24Q18.16 21.24 18.16 21.76L18.16 21.98Q18.16 22.38 18.13 22.51Q18.10 22.63 17.97 22.66Q17.83 22.68 17.42 22.68"/>
</svg>