<?xml version="1.0" encoding="UTF-8"?>
<svg xmlns="http://www.w3.org/2000/svg" width="32" height="32" viewBox="0 0 32 32">
  <path fill="#498ba7" d="M13.23 22.60L10.76 22.60L11.44 19.20L9.32 19.20L9.32 17.41L11.87 17.41L12.28 15.28L10.08 15.28L10.08 13.52L12.72 13.52L13.40 10.20L15.76 10.20L15.08 13.52L17.48 13.52L18.16 10.20L20.52 10.20L19.84 13.52L21.96 13.52L21.96 15.28L19.52 15.28L19 17.41L21.20 17.41L21.20 19.20L18.67 19.20L17.99 22.60L15.60 22.60L16.28 19.20L13.91 19.20L13.23 22.60M14.24 17.43L16.63 17.43L17.04 15.28L14.68 15.28"/>
</svg>