<?xml version="1.0" encoding="UTF-8"?>
<svg xmlns="http://www.w3.org/2000/svg" width="32" height="32" viewBox="0 0 32 32">
  <path fill="#cc6d2e" d="M11.68 17.76L11.68 11.29L14 11.29L14 17.76Q14 19.85 13.02 20.81Q12.12 21.68 10.32 21.68Q9.92 21.68 9.43 21.61Q8.94 21.54 8.64 21.40L8.88 19.56Q9.40 19.80 10.08 19.80Q10.84 19.80 11.22 19.39Q11.68 18.90 11.68 17.76M15.52 21.08L16.04 19.12Q16.52 19.39 17.18 19.58Q17.91 19.80 18.56 19.80Q19.38 19.80 19.79 19.51Q20.20 19.23 20.20 18.71Q20.20 18.20 19.82 17.88Q19.44 17.57 18.48 17.24Q15.68 16.26 15.68 14.20Q15.68 12.84 16.73 11.98Q17.78 11.12 19.60 11.12Q21.04 11.12 22.24 11.64L21.72 13.52L21.56 13.44Q21.07 13.24 20.77 13.16Q20.20 13 19.60 13Q18.86 13 18.47 13.29Q18.08 13.57 18.08 14.03Q18.08 14.50 18.51 14.80Q18.84 15.04 19.92 15.48Q21.28 15.99 21.92 16.73Q22.56 17.46 22.56 18.52Q22.56 19.88 21.53 20.72Q20.41 21.68 18.40 21.68Q17.61 21.68 16.74 21.46Q16.06 21.32 15.52 21.08"/>
</svg>