<?xml version="1.0" encoding="UTF-8"?>
<svg xmlns="http://www.w3.org/2000/svg" width="32" height="32" viewBox="0 0 32 32">
  <path fill="#b7b73b" d="M8.47 17.24L8.36 15.64Q9.24 15.64 9.59 15.23Q9.83 14.93 9.83 14.36Q9.83 14.12 9.78 13.64Q9.72 13.16 9.72 12.90Q9.72 12.65 9.70 12.13Q9.64 11.67 9.64 11.48Q9.64 10.17 10.40 9.55Q11.17 8.92 12.55 8.92L13.23 8.92L13.23 10.52L12.88 10.52Q12.28 10.52 12.02 10.86Q11.76 11.20 11.76 11.88Q11.76 12.05 11.82 12.37Q11.87 12.78 11.87 13Q11.87 13.16 11.90 13.52Q11.96 14.01 11.96 14.28Q11.96 15.31 11.52 15.83Q11.14 16.29 10.32 16.48Q11.14 16.70 11.52 17.13Q11.96 17.68 11.96 18.68Q11.96 18.98 11.90 19.47Q11.85 19.83 11.86 19.99Q11.87 20.15 11.82 20.56Q11.76 20.86 11.76 21Q11.76 21.68 12.02 22.02Q12.28 22.36 12.88 22.36L13.23 22.36L13.23 23.96L12.55 23.96Q9.72 23.96 9.72 21.40Q9.72 20.48 9.82 19.98Q9.92 19.47 9.92 18.52Q9.92 17.24 8.47 17.24M22.84 15.64L22.84 17.08Q21.39 17.08 21.39 18.36Q21.39 18.60 21.43 19.08Q21.48 19.56 21.48 19.80Q21.56 20.32 21.56 21.24Q21.56 23.80 18.67 23.80L17.99 23.80L17.99 22.36L18.32 22.36Q18.92 22.36 19.18 22.02Q19.44 21.68 19.44 21Q19.44 20.32 19.35 19.96Q19.35 19.75 19.30 19.32Q19.24 18.90 19.24 18.68Q19.24 17.68 19.68 17.13Q20.06 16.70 20.88 16.48Q20.06 16.29 19.68 15.83Q19.24 15.31 19.24 14.28Q19.24 14.01 19.30 13.52Q19.35 13.16 19.35 13Q19.44 12.56 19.44 11.91Q19.44 11.26 19.16 10.93Q18.89 10.61 18.32 10.52L17.99 10.52L17.99 8.92L18.67 8.92Q20.03 8.92 20.80 9.55Q21.56 10.17 21.56 11.48Q21.56 11.72 21.52 12.20Q21.48 12.67 21.48 12.92Q21.39 13.44 21.37 14.36Q21.39 14.93 21.61 15.23Q21.96 15.64 22.84 15.64"/>
</svg>