<?xml version="1.0" encoding="UTF-8"?>
<svg xmlns="http://www.w3.org/2000/svg" width="32" height="32" viewBox="0 0 32 32">
  <path fill="#9068b0" d="M16.66 18.55L16.52 19.20Q16.31 19.20 15.95 19.26Q15.71 19.28 15.60 19.28L14.08 19.28Q14.24 17.46 14.54 13.84Q14.84 10.23 15 8.40L16.01 8.40Q17.18 8.35 17.72 8.40Q17.91 8.40 18.10 8.65Q18.29 8.89 18.24 9.08Q18.05 10.44 17.56 13.19L17.20 15.04Q17.07 16.18 16.66 18.55M16.88 22.60Q16.93 23.31 16.42 23.87Q15.90 24.42 15.08 24.48Q14.27 24.53 13.60 24.08Q12.93 23.64 12.88 22.96Q12.83 22.17 13.34 21.65Q13.86 21.13 14.76 21.08Q15.65 21.02 16.24 21.43Q16.82 21.84 16.88 22.60"/>
</svg>