<?xml version="1.0" encoding="UTF-8"?>
<svg xmlns="http://www.w3.org/2000/svg" width="32" height="32" viewBox="0 0 32 32">
  <path fill="#dd4b78" d="M15.95 14.69Q14.21 14.69 12.93 14.60Q11.36 14.50 10 14.20Q9.67 14.14 9.07 13.90Q8.75 13.73 8.56 13.68Q8.20 13.57 8.20 13.16L8.20 10.20Q8.20 10.06 8.27 9.95Q8.34 9.84 8.45 9.84L8.72 9.74Q9.64 9.33 10.16 9.25Q11.57 8.92 13.32 8.81Q14.35 8.76 16.44 8.76Q19.30 8.76 21.56 9.36Q22.07 9.46 22.64 9.76Q23 9.87 23 10.28L23 13.24Q23 13.44 22.75 13.68Q22.07 14.01 21.72 14.12L20.52 14.31Q18.95 14.55 18.16 14.60Q17.78 14.66 17.03 14.66Q16.28 14.66 15.95 14.69M23 14.88L23 17.92Q23 18.06 22.85 18.21Q22.70 18.36 22.56 18.36L22.13 18.52Q21.31 18.79 20.96 18.88Q17.78 19.42 13.64 19.28L13.59 19.28Q12.23 19.20 11.52 19.12Q10.38 18.98 9.48 18.68Q9.13 18.60 8.47 18.28Q8.20 18.14 8.20 17.84L8.20 14.88Q9.89 15.45 11.90 15.67Q13.34 15.80 15.60 15.80Q17.64 15.88 19.30 15.69Q21.26 15.48 23 14.88M23 19.64L23 22.60Q23 22.74 22.85 22.89Q22.70 23.04 22.56 23.12Q21.88 23.36 21.56 23.47Q20.99 23.66 20.52 23.72Q15.33 24.48 10.24 23.64Q9.81 23.55 8.94 23.25L8.56 23.12Q8.36 23.06 8.28 22.93Q8.20 22.79 8.20 22.52L8.20 19.64Q9.83 20.21 11.85 20.43Q13.29 20.56 15.60 20.56Q17.86 20.56 19.30 20.43Q21.31 20.21 23 19.64"/>
</svg>