<?xml version="1.0" encoding="UTF-8"?>
<svg xmlns="http://www.w3.org/2000/svg" width="32" height="32" viewBox="0 0 32 32">
  <path fill="#cc6d2e" d="M19.14 11.56L19.65 9.71Q20.06 9.68 20.35 9.38Q20.63 9.08 20.63 8.68Q20.63 8.27 20.32 7.95Q20.01 7.64 19.57 7.64Q19.14 7.64 18.82 7.95Q18.51 8.27 18.51 8.68Q18.51 8.95 18.65 9.19Q18.78 9.44 19.03 9.57L18.48 11.40Q17.83 11.23 17.12 11.15Q16.61 11.07 16.12 11.04L15.74 11.04L15.52 11.15L15.52 25.24L15.74 25.32Q16.31 25.32 17.53 24.61Q18.84 23.85 20.06 22.71Q21.50 21.40 22.32 19.99Q23.32 18.33 23.32 16.78Q23.32 14.63 21.99 13.24Q20.93 12.13 19.14 11.56M17.64 20.64Q17.04 19.69 17.06 18.17Q17.07 16.64 17.80 15.48Q18.62 14.14 20.09 13.84Q20.80 13.73 21.42 14.17Q22.10 14.60 22.32 15.48Q22.59 16.37 22.05 17.52Q21.56 18.49 20.60 19.42Q19.71 20.26 18.84 20.64Q17.97 21.02 17.64 20.64M19.54 16.67Q19.14 16.67 18.85 16.94Q18.56 17.22 18.56 17.61Q18.56 18 18.85 18.28Q19.14 18.55 19.53 18.55Q19.92 18.55 20.21 18.28Q20.50 18 20.50 17.61Q20.50 17.22 20.21 16.94Q19.92 16.67 19.54 16.67M19.82 17.54Q19.73 17.54 19.65 17.47Q19.57 17.41 19.57 17.31Q19.57 17.22 19.65 17.13Q19.73 17.05 19.83 17.05Q19.92 17.05 19.99 17.13Q20.06 17.22 20.06 17.31Q20.06 17.41 19.99 17.47Q19.92 17.54 19.82 17.54M12.99 11.42L12.47 9.55Q12.69 9.41 12.83 9.18Q12.96 8.95 12.96 8.68Q12.96 8.24 12.65 7.94Q12.34 7.64 11.89 7.64Q11.44 7.64 11.14 7.94Q10.84 8.24 10.84 8.66Q10.84 9.08 11.14 9.40Q11.44 9.71 11.90 9.71L12.42 11.59Q10.60 12.18 9.53 13.27Q8.17 14.66 8.17 16.78Q8.20 18.36 9.18 20.02Q10.02 21.43 11.47 22.74Q12.66 23.88 13.97 24.64Q15.19 25.32 15.74 25.32L15.74 11.04L15.36 11.07Q14.87 11.10 14.38 11.15Q13.64 11.26 12.99 11.42M14.05 20.64Q13.75 21.02 12.88 20.64Q12.01 20.26 11.11 19.42Q10.16 18.49 9.67 17.52Q9.13 16.37 9.40 15.48Q9.62 14.60 10.30 14.17Q10.92 13.73 11.63 13.84Q13.07 14.14 13.91 15.48Q14.62 16.64 14.65 18.17Q14.68 19.69 14.05 20.64M12.12 16.70Q11.71 16.70 11.42 16.97Q11.14 17.24 11.14 17.64Q11.14 18.03 11.42 18.30Q11.71 18.58 12.12 18.58Q12.53 18.58 12.81 18.30Q13.10 18.03 13.10 17.64Q13.10 17.24 12.81 16.97Q12.53 16.70 12.12 16.70M11.82 17.57Q11.71 17.57 11.64 17.50Q11.57 17.43 11.57 17.34Q11.57 17.24 11.64 17.16Q11.71 17.08 11.82 17.08Q11.93 17.08 12 17.16Q12.06 17.24 12.06 17.34Q12.06 17.43 12 17.50Q11.93 17.57 11.82 17.57"/>
</svg>