<?xml version="1.0" encoding="UTF-8"?>
<svg xmlns="http://www.w3.org/2000/svg" width="32" height="32" viewBox="0 0 32 32">
  <path fill="#b8383d" d="M19.08 22.17Q18.92 22.44 18.74 22.78Q18.56 23.12 18.56 23.36L18.32 26Q18.32 26.46 17.88 26.60Q17.59 26.68 16.96 26.90Q16.33 27.12 16.04 27.20L15.08 27.20Q15.06 27.20 14.92 27.16Q14.78 27.12 14.76 27.12Q13.72 26.76 13.32 26.52Q13.04 26.25 13.04 26.08Q12.96 25.40 12.96 24.12Q12.96 23.44 12.91 23.15Q12.80 22.60 12.44 22.28L12.44 22.17Q15.65 23.06 19.08 22.17M20.36 11.40Q20.31 11.97 20.18 13.16Q20.06 14.36 20.03 14.96L19.44 21.16Q19.44 21.95 18.56 22.08Q17.64 22.28 16.12 22.44Q14.21 22.57 12.55 22.08Q12.25 22.03 12.12 21.81Q12.04 21.68 11.96 21.32Q11.96 20.81 11.76 20.15L11.44 17Q11.44 16.94 11.40 16.86Q11.36 16.78 11.36 16.75Q11.30 15.86 11.03 14.14L10.84 12.76Q10.76 12.32 10.76 11.48Q15.71 12.51 20.36 11.40M10.76 10.88Q11.08 10.72 11.28 10.72L13.64 10.44Q13.70 10.44 13.86 10.36L14 10.28Q13.91 10.06 13.80 9.63Q13.70 9.11 13.59 8.84Q13.42 8.43 13.12 8.16Q12.80 7.80 12.16 7.08Q11.52 6.36 11.19 6.04Q11.47 5.74 11.57 5.67Q11.68 5.60 11.78 5.66Q11.87 5.71 12.12 5.96L12.44 6.28Q12.83 6.72 13.04 6.88Q14.48 8.05 14.76 9.84Q14.87 10.23 15.06 10.33Q15.25 10.44 15.60 10.44L19.84 10.72Q19.98 10.72 20.25 10.80L20.44 10.88Q19.76 11.40 17.48 11.59Q15.38 11.78 13.32 11.59Q11.17 11.37 10.76 10.88"/>
</svg>