<?xml version="1.0" encoding="UTF-8"?>
<svg xmlns="http://www.w3.org/2000/svg" width="32" height="32" viewBox="0 0 32 32">
  <path fill="#cc6d2e" d="M7.96 21.84L7.96 10.96Q7.96 10.91 8 10.86Q8.04 10.82 8.04 10.80Q8.34 9.71 9.15 9.25L10.16 8.76L21.04 8.76Q21.09 8.76 21.14 8.80Q21.18 8.84 21.20 8.84Q22.32 9.22 23 10.28Q23.13 10.66 23.32 10.88L23.32 21.76Q23.32 21.79 23.28 21.84Q23.24 21.89 23.24 21.92Q22.97 22.85 22.16 23.44Q21.61 23.85 21.04 23.96L10.16 23.96Q10.11 23.96 10.06 23.92Q10.02 23.88 10 23.88Q8.88 23.50 8.20 22.44Q8.12 22.36 7.96 21.84M10.32 12.92Q10.60 13.24 11.14 13.92Q12.04 15.09 12.55 15.64Q12.61 15.69 12.72 15.75Q12.83 15.80 12.88 15.80L18.32 15.80Q18.37 15.80 18.50 15.76Q18.62 15.72 18.67 15.72L19.46 14.71Q20.39 13.54 20.88 13Q19.60 11.48 17.64 10.91Q15.68 10.33 13.75 10.82Q11.68 11.34 10.32 12.92M16.96 12.48L17.56 11.64Q17.40 12.18 17.14 13.38Q16.88 14.58 16.72 15.12L15.08 15.12Q15.79 14.22 16.96 12.48"/>
</svg>