<?xml version="1.0" encoding="UTF-8"?>
<svg xmlns="http://www.w3.org/2000/svg" width="32" height="32" viewBox="0 0 32 32">
  <path fill="#498ba7" d="M12.20 23.36Q11.98 23.25 11.87 23.04Q11.79 22.96 11.78 22.96Q11.76 22.96 11.71 23.04Q11.66 23.12 11.62 23.28Q11.57 23.44 11.52 23.55Q11.33 24.18 10.98 24.40Q10.62 24.61 10 24.48Q9.83 24.48 9.48 24.32Q8.96 24.04 9.24 23.55Q9.24 23.50 9.28 23.42Q9.32 23.34 9.32 23.28Q8.85 23.28 8.72 22.87Q8.39 22 8.50 21.34Q8.61 20.67 9.24 20.04L9.29 19.94Q9.40 19.75 9.40 19.64Q9.40 18.71 9.59 18.03Q9.81 17.22 10.32 16.56Q10.76 15.99 11.36 15.64Q11.47 15.58 11.48 15.50Q11.49 15.42 11.44 15.28Q10.98 14.71 10.84 13.92Q10.79 13.71 10.87 13.44Q10.92 13.24 11.08 12.92L11.19 12.67Q11.36 12.48 11.44 12.48Q11.68 12.43 12.09 12.13L12.28 11.99Q13.12 11.12 14.40 11.12Q14.54 11.12 14.61 11.08Q14.68 11.04 14.68 10.96Q14.78 10.44 15.16 9.95L15.44 9.68Q15.57 9.55 15.72 9.56Q15.87 9.57 15.95 9.76Q16.12 10.06 16.36 10.61L16.52 10.96Q16.66 11.18 16.80 11.04Q17.12 10.91 17.23 10.89Q17.34 10.88 17.40 10.96Q17.45 11.04 17.56 11.40Q18.21 14.12 16.72 16.48Q16.66 16.56 16.54 16.74Q16.42 16.92 16.36 17.03Q16.31 17.13 16.32 17.22Q16.33 17.30 16.44 17.43Q17.01 17.92 17.40 18.60Q17.78 19.28 17.88 20.04Q18.02 21 17.88 21.92Q17.83 22.17 17.88 22.21Q17.94 22.25 18.16 22.19Q19.11 21.89 19.84 21.40L20.06 21.30Q20.55 21 20.82 20.89Q21.23 20.70 21.64 20.64L21.88 20.64Q22.16 20.59 22.33 20.66Q22.51 20.72 22.63 20.89Q22.75 21.05 22.75 21.24Q22.75 21.62 22.32 21.76Q21.20 21.98 20.02 22.83Q18.84 23.69 17.20 24.12Q17.15 24.12 17.04 24.18Q16.93 24.23 16.88 24.32Q16.69 24.45 16.47 24.51Q16.33 24.56 16.04 24.59L15.76 24.64L15.55 24.67Q13.91 24.80 13.04 24.80Q12.55 24.80 12.20 24.72Q11.71 24.56 11.60 24.23Q11.47 23.72 11.87 23.44Q11.96 23.44 12.06 23.40Q12.17 23.36 12.20 23.36"/>
</svg>