<?xml version="1.0" encoding="UTF-8"?>
<svg xmlns="http://www.w3.org/2000/svg" width="32" height="32" viewBox="0 0 32 32">
  <path fill="#cc6d2e" d="M20.69 19.28L20.71 19.28Q20.71 19.36 20.71 19.50Q20.88 21.16 20.88 21.99Q20.88 22.82 20.47 23.36Q20.06 23.91 19.44 23.96Q18.81 24.10 18.08 23.80Q17.53 23.53 16.55 22.87Q15.93 22.47 15.60 22.28Q14.76 22.96 14.24 23.28Q13.80 23.58 13.40 23.72Q12.64 24.04 11.98 23.92Q11.33 23.80 10.94 23.28Q10.54 22.76 10.53 21.92Q10.51 21.08 10.68 19.20Q9.64 18.88 9.13 18.52Q8.45 18.20 7.77 17.52Q7.22 16.94 7.25 16.28Q7.28 15.61 7.88 15.04Q8.31 14.52 9.04 14.17Q9.48 13.92 10.40 13.60Q10.46 13.60 10.58 13.56Q10.70 13.52 10.76 13.52L10.51 11.64Q10.49 11.04 10.68 10.04Q10.87 9.33 11.45 9.03Q12.04 8.73 12.80 8.92Q13.48 9.08 14.16 9.52Q14.65 9.82 15.27 10.36Q15.38 10.42 15.52 10.61L15.60 10.72Q16.96 9.68 17.72 9.25Q18.59 8.68 19.44 8.92Q20.06 9.06 20.43 9.59Q20.80 10.12 20.88 10.96L20.88 12.32Q20.88 12.59 20.74 13.14Q20.66 13.49 20.60 13.68Q21.37 13.92 22.06 14.26Q22.75 14.60 23.05 14.82Q23.57 15.18 23.87 15.62Q24.17 16.07 24.17 16.56Q24.17 17.05 23.87 17.50Q23.57 17.95 23.05 18.30Q22.73 18.52 22.05 18.88Q21.56 18.96 20.69 19.28M14.89 19.17L15.76 19.20Q15.90 19.20 16.20 19.17Q16.61 19.12 16.80 19.12Q17.15 19.12 17.40 18.77Q18.24 17.41 18.56 16.64Q18.65 16.54 18.65 16.37Q18.65 16.21 18.56 16.16Q18.16 15.37 17.29 14.03Q17.18 13.76 16.88 13.76Q15.44 13.76 14.68 13.68Q14 13.68 13.64 14.28Q13.32 14.80 13.12 15.12L12.74 15.83Q12.50 16.18 12.46 16.33Q12.42 16.48 12.46 16.63Q12.50 16.78 12.74 17.16L13.12 17.84L13.45 18.39Q13.72 18.82 13.83 18.93Q14 19.12 14.21 19.15Q14.38 19.17 14.89 19.17M10.84 18.52Q11.36 17.16 11.60 16.56L11.60 16.24L10.84 14.28Q9.32 14.74 8.47 15.37Q7.88 15.83 7.88 16.36Q7.88 16.89 8.47 17.32Q8.91 17.79 9.59 18.09Q10 18.28 10.84 18.52M20.44 14.20Q20.12 14.96 19.60 16.32L19.57 16.40Q19.54 16.48 19.60 16.48Q20.12 17.84 20.44 18.68Q20.77 18.52 21.45 18.17Q22.35 17.76 22.73 17.52Q23.43 17.05 23.43 16.48Q23.43 15.91 22.75 15.48Q22.29 15.07 21.26 14.58Q20.69 14.33 20.44 14.20M11.33 13.19L11.36 13.33Q12.72 13.19 13.48 13Q13.53 13 13.59 12.95L13.64 12.92Q14.13 12.24 15 11.20Q14.32 10.63 13.97 10.36Q13.37 9.90 12.80 9.68Q12.09 9.44 11.66 9.70Q11.22 9.95 11.08 10.72Q11.03 11.23 11.11 11.91Q11.17 12.32 11.33 13.19M19.84 13.35L19.84 13.33Q19.84 13.30 19.88 13.18Q19.92 13.05 19.92 13Q20.12 12.16 20.12 11.69Q20.17 10.93 19.92 10.36Q19.82 9.93 19.52 9.74Q19.22 9.55 18.84 9.60Q18.16 9.71 17.50 10.14Q17.10 10.39 16.39 11.04L16.20 11.20Q16.63 11.80 17.48 12.84L17.72 13.08L19.84 13.35M11.36 19.45Q11.33 19.61 11.28 19.91Q11.11 20.67 11.08 21.02Q11.03 21.65 11.19 22.19Q11.30 22.82 11.72 23.06Q12.15 23.31 12.80 23.12Q13.34 22.96 13.91 22.57Q14.24 22.33 14.87 21.79L15.08 21.60Q14.59 20.92 13.72 19.88Q13.56 19.72 13.48 19.72Q12.50 19.72 11.36 19.45M16.12 21.60Q16.47 22.06 17.15 22.55Q17.78 23.01 18.32 23.20Q19.68 23.61 19.92 22.28Q20.03 21.68 19.98 20.97Q19.95 20.53 19.79 19.66L19.76 19.56L19.22 19.61Q18.08 19.69 17.56 19.88Q17.31 20.02 17.10 20.26Q16.96 20.43 16.74 20.75Q16.55 21.02 16.46 21.17Q16.36 21.32 16.12 21.60M14.59 12.92L16.63 12.92Q16.44 12.70 16.10 12.32Q15.76 11.94 15.60 11.72L15.46 11.91Q14.95 12.56 14.59 12.92M16.31 20.26L16.63 19.88L14.68 19.88Q14.84 20.10 15.18 20.48Q15.52 20.86 15.68 21.08Q15.87 20.78 16.31 20.26M13.12 19.04Q13.02 18.85 12.80 18.47Q12.34 17.71 12.12 17.24L11.60 18.68Q12.06 18.88 13.12 19.04M19.08 17.24L18.08 19.04L19.60 18.77Q19.49 18.22 19.08 17.24M12.12 15.56L13.12 13.76L11.60 14.01L11.71 14.36Q11.90 15.15 12.12 15.56M18.08 13.76Q18.24 14.12 18.58 14.62Q18.92 15.12 19.08 15.48Q19.44 14.44 19.60 14.03Q18.95 14.01 18.08 13.76"/>
</svg>