<?xml version="1.0" encoding="UTF-8"?>
<svg xmlns="http://www.w3.org/2000/svg" width="32" height="32" viewBox="0 0 32 32">
  <path fill="#498ba7" d="M23.24 23.64L23.24 9.08L23.24 8.76L7.96 8.76L7.96 24.04L22.84 24.04Q23.08 24.04 23.16 23.96Q23.24 23.88 23.24 23.64M14.24 17.32Q13.75 17.46 12.83 17.54L12.20 17.60L12.20 20.64L10.68 20.64Q10.62 20.64 10.57 20.51Q10.51 20.37 10.51 20.24L10.51 12.16Q10.51 12.10 10.96 12.03Q11.41 11.97 11.76 11.97Q13.32 11.97 14 12.08Q15.03 12.18 15.63 12.82Q16.23 13.46 16.28 14.44Q16.33 15.53 15.79 16.30Q15.25 17.08 14.24 17.32M20.80 19.04Q20.66 20.15 19.60 20.56Q18.16 21.16 16.52 20.48Q16.47 20.48 16.42 20.38Q16.36 20.29 16.36 20.24Q16.52 19.56 16.61 19.28Q16.96 19.34 17.61 19.47Q18.10 19.58 18.35 19.64Q18.59 19.69 18.81 19.56Q19.03 19.42 19.08 19.12Q19.19 18.66 18.56 18.28Q18.37 18.14 17.88 17.98L17.72 17.92Q17.01 17.60 16.70 17.13Q16.39 16.67 16.44 15.96Q16.52 15.39 16.95 14.97Q17.37 14.55 18.08 14.36Q19.16 14.12 20.28 14.52Q20.33 14.52 20.41 14.67Q20.50 14.82 20.44 14.88L20.20 15.80Q19.35 15.64 19 15.56Q18.56 15.56 18.40 15.64Q18.08 15.77 18.02 16.07Q17.97 16.37 18.24 16.56Q18.32 16.67 18.52 16.75Q18.73 16.84 18.85 16.92Q18.97 17 19.35 17.16Q19.63 17.27 19.76 17.32Q20.80 17.71 20.80 19.04M13.80 13.44Q13.48 13.38 12.91 13.33L12.20 13.24L12.20 16.16Q12.88 16.21 13.22 16.18Q13.56 16.16 13.97 15.98Q14.38 15.80 14.54 15.39Q14.68 15.09 14.68 14.63Q14.68 14.17 14.44 13.86Q14.21 13.54 13.80 13.44"/>
</svg>