<?xml version="1.0" encoding="UTF-8"?>
<svg xmlns="http://www.w3.org/2000/svg" width="32" height="32" viewBox="0 0 32 32">
  <path fill="#498ba7" d="M19.22 15.99L18.21 15.48Q18.21 15.23 18.40 15.04Q18.59 14.85 18.82 14.85Q19.05 14.85 19.22 14.97Q19.38 15.09 19.45 15.28Q19.52 15.48 19.45 15.67Q19.38 15.86 19.22 15.99M24.52 10.09Q23.92 9.46 23.11 9.25Q22.29 9.03 21.48 9.22Q20.66 9.41 20.01 10.01Q19.92 10.09 19.92 10.23Q19.92 10.36 20.01 10.44L20.41 10.85Q20.50 10.93 20.62 10.95Q20.74 10.96 20.82 10.88Q21.31 10.52 21.94 10.52Q22.70 10.52 23.26 11.07Q23.81 11.61 23.81 12.39Q23.81 13.16 23.28 13.68Q22.75 14.20 22.13 14.28Q21.58 14.31 20.85 14.03Q20.39 13.84 19.35 13.33Q17.72 12.51 16.77 12.18Q15.14 11.61 13.51 11.69Q11.55 11.78 9.43 12.78Q9.02 12.97 8.87 13.42Q8.72 13.87 8.96 14.25L10.30 16.59Q10.51 16.97 10.94 17.08Q11.36 17.19 11.74 16.97L11.76 16.97L11.74 16.97L12.34 16.64L12.96 16.24Q13.67 15.75 14.21 15.26Q14.29 15.18 14.42 15.16Q14.54 15.15 14.65 15.23Q14.76 15.31 14.76 15.46Q14.76 15.61 14.65 15.69Q13.72 16.54 12.66 17.19L12.06 17.54Q11.44 17.87 10.77 17.69Q10.11 17.52 9.75 16.92L8.50 14.71Q6.57 16.07 5.73 18.41Q4.80 20.92 5.37 23.96Q5.40 24.07 5.48 24.14Q5.56 24.21 5.67 24.21L7.11 24.21Q7.25 24.21 7.33 24.12Q7.41 24.04 7.44 23.93Q7.52 23.15 8.12 22.62Q8.72 22.08 9.52 22.08Q10.32 22.08 10.92 22.62Q11.52 23.15 11.63 23.93Q11.63 24.04 11.72 24.12Q11.82 24.21 11.93 24.21L13.34 24.21Q13.45 24.21 13.53 24.12Q13.61 24.04 13.64 23.93Q13.75 23.15 14.35 22.62Q14.95 22.08 15.74 22.08Q16.52 22.08 17.12 22.62Q17.72 23.15 17.83 23.93Q17.86 24.04 17.94 24.12Q18.02 24.21 18.13 24.21L19.52 24.21Q19.65 24.21 19.75 24.11Q19.84 24.02 19.84 23.91Q19.87 22.25 20.31 20.92Q20.85 19.34 21.91 18.55Q24.28 16.75 25.17 14.88Q25.88 13.38 25.56 11.94Q25.28 10.85 24.52 10.09"/>
</svg>