<?xml version="1.0" encoding="UTF-8"?>
<svg xmlns="http://www.w3.org/2000/svg" width="32" height="32" viewBox="0 0 32 32">
  <path fill="#b7b73b" d="M16.28 10.52Q16.06 10.58 15.84 10.69L14.32 11.40Q13.80 11.64 13.22 11.69Q12.64 11.75 12.44 11.53Q12.25 11.31 12.49 11.18Q12.72 11.04 13.32 11.04Q14.29 11.04 13.91 10.80Q13.53 10.55 12.84 10.67Q12.15 10.80 11.96 11.12Q11.87 11.31 11.89 11.42Q11.90 11.53 12.04 11.72Q12.36 12.08 12.72 12.18Q13.07 12.29 13.72 12.24Q14.24 12.24 14.58 12.14Q14.92 12.05 15.44 11.72Q16.20 11.34 16.96 11.16Q17.72 10.99 18.24 11.04Q18.76 11.10 18.86 11.27Q18.97 11.45 18.67 11.65Q18.37 11.86 17.87 11.87Q17.37 11.88 17.12 11.64Q16.85 11.50 16.61 11.53Q16.36 11.56 16.36 11.79Q16.36 12.02 16.73 12.18Q17.10 12.35 17.65 12.39Q18.21 12.43 18.76 12.32Q19.35 12.18 19.58 11.84Q19.82 11.50 19.58 11.12Q19.35 10.74 18.76 10.52Q18.27 10.44 17.59 10.44Q16.74 10.42 16.28 10.52M9.04 11.64Q8.88 11.75 8.76 11.91Q8.64 12.08 8.64 12.16Q8.56 12.40 9.02 12.74Q9.48 13.08 10.24 13.31Q11 13.54 11.41 13.63Q11.96 13.73 12.96 13.84Q13.67 13.92 16.02 13.92Q18.37 13.92 19 13.84Q19.16 13.82 19.54 13.78Q19.92 13.73 20.01 13.68Q20.52 13.60 21.39 13.35Q22.35 13.08 22.56 12.92Q22.94 12.73 23.12 12.46Q23.30 12.18 23.18 11.97Q23.05 11.75 22.85 11.56Q22.64 11.37 22.52 11.38Q22.40 11.40 22.48 11.64Q22.56 11.97 22.01 12.29Q21.45 12.62 20.43 12.85Q19.41 13.08 18.16 13.16Q17.45 13.24 15.87 13.24Q14.29 13.24 13.91 13.16L13.53 13.14Q12.96 13.08 12.72 13.08Q11.63 13.03 10.64 12.66Q9.64 12.29 9.56 11.97Q9.56 11.64 9.64 11.56Q9.78 11.15 9.04 11.64M8.80 13.92Q8.80 14.17 8.96 14.77L9.04 15.20L9.32 15.88L8.96 16.16Q8.47 16.64 8.28 16.92Q8.07 17.32 8.01 17.54Q7.96 17.81 7.96 18.36Q7.96 19.15 8.15 19.56Q8.34 19.96 8.96 20.40Q9.26 20.64 9.51 20.70Q9.70 20.72 10.24 20.72Q10.73 20.72 11.02 20.66Q11.30 20.59 11.26 20.51Q11.22 20.43 10.84 20.40Q10.40 20.34 9.87 19.85Q9.34 19.36 9.15 18.88Q8.96 18.44 8.99 17.84Q9.02 17.24 9.24 16.92Q9.32 16.75 9.48 16.56L9.83 17.08Q10.51 18.11 10.92 18.77Q11.30 19.28 11.59 19.80Q11.87 20.32 11.96 20.56Q12.20 21.27 12.65 21.65Q13.10 22.03 13.87 22.19Q14.65 22.36 15.95 22.36Q17.83 22.36 18.73 21.94Q19.63 21.51 20.01 20.48Q20.12 20.07 21.04 18.79Q22.05 17.38 22.24 16.84Q22.56 16.13 22.90 15.03Q23.24 13.92 23.24 13.60Q23.24 13.41 23.22 13.41Q23.19 13.41 23 13.60Q22.67 13.92 21.65 14.21Q20.63 14.50 19.24 14.60Q18.08 14.74 15.31 14.69Q12.55 14.63 11.68 14.44Q11.60 14.44 11.41 14.41Q11.14 14.36 11 14.36Q10.62 14.31 9.81 13.98Q9.13 13.68 8.88 13.52Q8.69 13.33 8.80 13.92"/>
</svg>