<?xml version="1.0" encoding="UTF-8"?>
<svg xmlns="http://www.w3.org/2000/svg" width="32" height="32" viewBox="0 0 32 32">
  <path fill="#b8383d" d="M14.05 9.19Q12.88 9.44 12.01 9.87Q12.04 10.82 12.12 11.56L11.90 11.69Q11.55 11.91 11.38 12.05L11.25 12.13Q10.87 12.46 10.68 12.62Q10.02 12.18 9.32 11.83Q8.47 12.76 7.96 13.63Q8.50 14.47 8.88 14.96L8.88 19.01L11.38 19.26Q11.49 19.26 11.56 19.32Q11.63 19.39 11.63 19.50L11.71 20.59L13.89 20.75L14.02 19.75Q14.05 19.64 14.12 19.57Q14.19 19.50 14.29 19.50L16.91 19.50Q17.01 19.50 17.08 19.57Q17.15 19.64 17.18 19.75L17.31 20.75L19.49 20.59L19.57 19.50Q19.57 19.39 19.64 19.32Q19.71 19.26 19.82 19.26L22.32 19.01L22.32 14.96Q22.78 14.36 23.24 13.63Q22.73 12.76 21.88 11.83Q21.18 12.18 20.52 12.62Q20.33 12.43 19.92 12.13L19.82 12.05Q19.65 11.91 19.30 11.69L19.05 11.56Q19.16 10.72 19.19 9.87Q18.32 9.44 17.15 9.19Q16.74 9.90 16.39 10.66Q16.01 10.61 15.60 10.61Q15.19 10.61 14.81 10.66Q14.46 9.90 14.05 9.19M12.09 15.12Q12.69 15.12 13.12 15.56Q13.56 15.99 13.56 16.60Q13.56 17.22 13.12 17.66Q12.69 18.11 12.08 18.11Q11.47 18.11 11.02 17.66Q10.57 17.22 10.57 16.60Q10.57 15.99 11.02 15.56Q11.47 15.12 12.09 15.12M19.11 15.12Q19.73 15.12 20.17 15.56Q20.60 15.99 20.60 16.60Q20.60 17.22 20.17 17.66Q19.73 18.11 19.12 18.11Q18.51 18.11 18.06 17.66Q17.61 17.22 17.61 16.60Q17.61 15.99 18.06 15.56Q18.51 15.12 19.11 15.12M15.60 15.99Q15.79 15.99 15.94 16.11Q16.09 16.24 16.09 16.43L16.09 17.81Q16.09 17.98 15.94 18.11Q15.79 18.25 15.60 18.25Q15.41 18.25 15.26 18.11Q15.11 17.98 15.11 17.81L15.11 16.43Q15.11 16.24 15.26 16.11Q15.41 15.99 15.60 15.99M22.32 19.56L20.09 19.77L20.01 20.86Q20.01 20.97 19.94 21.04Q19.87 21.11 19.76 21.11L17.10 21.30Q16.99 21.30 16.92 21.24Q16.85 21.19 16.82 21.08L16.69 20.04L14.51 20.04L14.38 21.08Q14.35 21.19 14.27 21.26Q14.19 21.32 14.08 21.30L11.44 21.11Q11.33 21.11 11.26 21.04Q11.19 20.97 11.19 20.86L11.11 19.77L8.88 19.56L8.88 20.10Q8.88 21.81 10.84 22.74Q12.66 23.61 15.60 23.61Q18.54 23.61 20.36 22.74Q22.32 21.81 22.32 20.10L22.32 19.56M13.21 16.70Q13.23 16.97 13.10 17.20Q12.96 17.43 12.73 17.58Q12.50 17.73 12.23 17.73Q11.96 17.73 11.72 17.58Q11.49 17.43 11.36 17.20Q11.22 16.97 11.22 16.70Q11.25 16.29 11.53 16.01Q11.82 15.72 12.23 15.72Q12.64 15.72 12.92 16.01Q13.21 16.29 13.21 16.70M17.99 16.70Q17.99 17.11 18.28 17.39Q18.56 17.68 18.97 17.68Q19.38 17.68 19.68 17.39Q19.98 17.11 19.98 16.70Q19.98 16.29 19.68 15.99Q19.38 15.69 18.97 15.69Q18.56 15.69 18.28 15.99Q17.99 16.29 17.99 16.70"/>
</svg>