<?xml version="1.0" encoding="UTF-8"?>
<svg xmlns="http://www.w3.org/2000/svg" width="32" height="32" viewBox="0 0 32 32">
  <path fill="#b8383d" d="M19.35 13.52Q19.38 13.52 19.46 13.52L19.49 13.52Q20.17 13.46 21.04 12.92Q21.07 12.89 21.09 12.81L21.18 12.56Q21.28 12.32 21.07 12.13Q20.44 11.56 19.98 10.82Q19.92 10.72 19.84 10.52L19.76 10.33Q19.73 10.31 19.68 10.25L19.65 10.23L19.60 10.36Q19.60 10.44 19.63 10.58Q19.73 11.07 20.20 11.64Q20.47 11.99 20.74 12.29Q20.85 12.43 20.82 12.62Q20.80 12.81 20.60 12.86Q20.52 12.89 20.36 12.97L20.17 13.08Q19.71 13.27 19.46 13.27Q19.30 13.24 19.22 13.19Q19.14 13.14 19.11 13L19.05 12.76Q18.84 12.97 19 13.33Q19.03 13.46 19.12 13.49Q19.22 13.52 19.35 13.52M17.94 13.92L18.05 14.12Q18.27 14.33 18.67 14.47Q19.27 14.63 19.87 14.60L19.87 14.31Q19.87 14.12 19.71 14.12Q19.05 14.12 18.67 14.06Q18.51 14.06 18.18 13.98L17.94 13.92M17.61 11.10L17.59 11.10Q17.48 11.10 17.44 11.14Q17.40 11.18 17.44 11.29Q17.48 11.40 17.56 11.45Q17.99 11.64 18.39 11.48Q18.78 11.31 18.65 10.82Q18.59 10.61 18.35 10.28Q18.10 9.95 18.01 9.99Q17.91 10.04 18.13 10.61Q18.24 11.01 18.22 11.08Q18.21 11.15 17.61 11.10M16.77 9.90Q16.80 9.84 16.85 9.76Q17.26 8.95 17.99 9.11Q18.13 9.11 18.13 9Q18.13 8.89 18.05 8.81Q17.97 8.73 17.86 8.70Q17.53 8.62 17.23 8.84Q16.69 9.19 16.63 9.68Q16.63 9.87 16.77 9.90M20.12 14.09Q20.06 14.09 20.06 14.17L20.06 14.58Q20.47 14.58 20.81 14.31Q21.15 14.03 21.34 13.60L21.26 13.63L21.07 13.73Q20.47 14.06 20.12 14.09M20.99 11.31Q21.39 11.37 21.72 11.07Q21.80 10.99 21.75 10.88L21.58 10.55Q21.34 9.95 21.26 9.97Q21.18 9.98 21.23 10.25Q21.28 10.44 21.39 10.66Q21.45 10.82 21.42 10.86Q21.39 10.91 21.23 10.93L21.12 10.93Q20.80 10.91 20.75 10.99Q20.71 11.07 20.78 11.19Q20.85 11.31 20.99 11.31M24.49 20.62Q24.33 20.07 24 19.90Q23.68 19.72 23.11 19.85Q22.92 19.91 22.48 20.07L22.05 20.26L23.08 17.16Q23.30 16.51 22.78 16.10L22.24 15.67L21.91 15.39Q21.72 15.20 21.71 15.12Q21.69 15.04 21.83 14.80Q22.26 14.06 22.47 12.84Q22.67 11.61 22.64 10.50Q22.56 8.97 21.86 8.02Q20.74 6.50 19 6.31L18.73 6.28L18.13 6.28L17.42 6.39Q16.23 6.58 15.03 7.32L14.70 7.53Q14.08 7.91 13.83 8.59Q13.78 8.68 13.67 8.76Q13.12 9.14 13.10 9.87Q13.10 10.12 13.10 10.55L13.12 11.01Q13.12 11.07 13.07 11.18L12.99 11.42Q12.88 11.67 12.85 11.80Q12.72 12.86 13.40 13.63Q13.61 13.87 14.05 13.98Q14.16 14.03 14.19 14.14Q14.27 14.63 14.54 15.04Q14.62 15.15 14.65 15.28Q14.68 15.50 14.48 15.61L12.58 16.78Q12.47 16.84 12.39 16.89Q11.98 17.03 11.87 17.35L11.87 17.54L12.09 18.11Q12.42 18.98 12.55 19.45Q12.85 20.34 12.96 21.76L12.99 22.87Q13.02 23.15 13.26 23.25L14.92 23.99Q15.38 24.18 15.87 24.15Q15.98 24.15 16.04 24.26L16.63 26.16Q16.66 26.27 16.80 26.30L17.99 26.52L19.11 26.52L19.73 26.46Q20.09 26.38 20.33 26.30Q20.66 26.19 20.60 25.78Q20.58 25.59 20.62 25.55Q20.66 25.51 20.85 25.46Q21.23 25.35 21.33 25.19Q21.42 25.02 21.34 24.64L21.18 23.77L21.18 23.55Q21.18 23.42 21.33 23.38Q21.48 23.34 21.53 23.15Q21.53 23.06 21.58 23.04Q22.02 22.85 22.51 22.90Q22.56 22.90 22.56 22.90Q22.62 23.06 22.73 23.10Q22.84 23.15 23.03 23.15Q23.54 23.17 23.87 23.15Q24.47 23.09 24.68 22.36L24.77 21.98L24.77 21.65Q24.60 21.02 24.49 20.62M15.06 15.42L15.08 15.39Q14.70 14.63 14.59 14.03Q14.57 13.84 14.70 13.71Q14.84 13.57 14.87 13.50Q14.89 13.44 14.84 13.30Q14.84 13.30 14.78 13.30L14.70 13.33Q14.65 13.35 14.57 13.41L14.51 13.44Q14.16 13.68 13.80 13.44Q13.40 13.16 13.23 12.54Q13.10 12.02 13.34 11.64Q13.67 11.20 14.16 11.26Q14.46 11.31 14.62 11.64Q14.68 11.75 14.73 12.02Q14.76 12.13 14.87 12.13L15.16 12.08Q15.33 12.05 15.38 11.97Q15.44 11.88 15.38 11.69L15.25 11.07Q15.19 10.77 15.27 10.23L15.27 10.20Q15.41 9.55 15.44 9.22Q15.44 9.14 15.38 8.89L15.36 8.73Q15.36 8.59 15.38 8.51Q15.65 8 16.23 7.61Q16.80 7.23 17.42 6.91Q17.88 6.66 18.73 6.74Q19.57 6.83 20.41 7.26Q20.82 7.45 21.28 8.02L21.67 8.51Q21.42 8.48 21.28 8.51Q21.07 8.54 20.96 8.70Q20.90 8.78 20.88 9Q21.23 8.76 21.65 8.97Q22.07 9.19 22.21 9.55Q22.29 9.82 22.32 10.04Q22.43 11.26 22.35 12.05Q22.21 13.57 21.58 14.55Q21.18 15.23 20.88 15.48Q20.41 15.94 19.52 16.16Q18.92 16.29 18.40 16.13Q17.78 15.91 17.29 15.48Q16.91 15.15 16.36 14.39L16.25 14.25Q16.20 14.44 16.36 14.71Q16.61 15.15 17.18 15.72Q17.29 15.83 17.53 16.02L17.69 16.13L17.45 16.16Q16.12 16.24 15.84 16.16Q15.38 16.05 15.06 15.42M18.56 18.47L18.73 18.30Q18.97 18.55 19.33 19.23Q19.63 19.75 19.82 20.21L19.65 20.18Q19.44 20.13 19.33 20.07L17.88 19.47Q17.78 19.42 17.83 19.34L17.88 19.20Q18.05 18.93 18.16 18.81Q18.27 18.68 18.56 18.47M19.76 19.23Q19.65 19.01 19.41 18.58L19.22 18.22Q19.16 18.11 19.19 18.06Q19.24 17.92 19.35 17.95Q19.44 17.98 19.57 17.90Q19.79 17.79 20.03 17.95Q20.12 18 20.31 18.09L20.41 18.14Q20.41 18.60 20.36 19.23Q20.31 20.02 20.17 20.18L20.09 19.94Q19.87 19.45 19.76 19.23M19.30 25.92Q18.51 26.03 17.69 25.87Q17.45 25.84 17.07 25.73Q16.99 25.73 16.96 25.65L16.82 25.16Q16.58 24.21 16.47 23.72Q16.36 23.23 16.23 22.22L16.14 21.62L16.14 21.49L16.72 21.40Q18.02 21.21 18.97 21.27Q19.14 21.27 19.41 21.30L19.65 21.35Q19.73 21.35 19.76 21.46L19.98 25.10Q19.98 25.27 20.03 25.57L20.06 25.78L19.84 25.84Q19.49 25.89 19.30 25.92M20.82 25.05Q20.74 25.08 20.60 25.10L20.39 25.16L20.33 23.58L20.69 23.50Q20.71 23.50 20.75 23.51Q20.80 23.53 20.80 23.55L20.82 23.66Q20.96 24.40 21.01 24.78Q21.01 24.97 21 25Q20.99 25.02 20.82 25.05M20.55 20.15L20.55 20.13Q20.52 20.15 20.52 20.15Q20.52 20.15 20.52 20.15L20.71 18.66Q20.74 18.49 20.74 18.25Q20.74 18.11 20.90 18.07Q21.07 18.03 21.27 18.13Q21.48 18.22 21.56 18.39Q21.61 18.44 21.56 18.47L20.55 20.15M23.52 22.60L23.54 22.60Q23.52 22.60 23.46 22.60Q23.11 22.60 22.94 22.57L22.94 22.52L23.60 22.38L23.60 22.36L23.38 22.30L22.56 22.33Q22.45 22.36 22.43 22.33Q22.40 22.30 22.40 22.19L22.24 20.94Q22.21 20.89 22.26 20.86L22.86 20.59L23.27 20.43Q23.46 20.32 23.65 20.37Q23.84 20.43 23.92 20.64Q24.14 21.38 24.20 21.79Q24.25 22.11 24.06 22.34Q23.87 22.57 23.52 22.60M21.39 8.68L21.31 8.89Q21.37 8.89 21.42 8.92Q21.56 8.97 21.67 9.08Q21.86 9.22 21.99 9.44Q22.18 9.76 22.29 10.33L22.32 10.82L22.32 11.31Q22.32 11.91 22.24 12.40Q22.13 13.22 21.72 14.09Q21.39 14.71 20.96 15.28L20.58 15.75L21.56 14.93L22.24 13.54L22.51 11.88L22.51 10.25L22.26 8.87"/>
</svg>