<?xml version="1.0" encoding="UTF-8"?>
<svg xmlns="http://www.w3.org/2000/svg" width="32" height="32" viewBox="0 0 32 32">
  <path fill="#7fae42" d="M19.44 8.29L19.44 8.32Q19.46 8.32 19.52 8.32L19.73 8.32L19.44 8.32L19.44 8.29M18.78 8.73L18.56 8.73Q19.05 8.35 19.44 8.32L19.79 8.32Q19.87 8.32 19.87 8.35L19.63 8.35Q19.27 8.35 18.78 8.73M18.78 8.73Q19.27 8.35 19.63 8.35Q19.24 8.48 19.03 8.68Q18.92 8.76 18.76 8.95L18.62 9.06Q18.48 9.03 18.37 9.14Q18.54 8.92 18.78 8.73M19.63 8.35Q19.71 8.35 19.87 8.35Q20.31 8.43 20.74 8.95L20.71 9Q20.28 8.57 19.84 8.48Q19.73 8.46 19.68 8.48Q19.44 8.54 19.27 8.65Q19.19 8.68 19.08 8.78L19 8.87Q18.92 8.81 19 8.70L19.03 8.68Q19.24 8.48 19.63 8.35M19.68 8.48Q19.73 8.46 19.84 8.48Q19.76 8.54 19.68 8.48M18.32 9.46L18.62 9.06Q18.65 9.03 18.76 8.95Q18.92 8.76 19.03 8.68L19 8.70Q18.92 8.81 19 8.87Q18.73 9.22 18.32 9.98L18.29 10.06Q18.27 10.14 18.21 10.17L18.24 10.06L17.99 10.04L17.99 10.01L18.32 9.46M17.94 9.36L17.97 9.27Q18.05 9.22 18.18 9.06Q18.43 8.81 18.56 8.73L18.78 8.73Q18.56 8.89 18.37 9.14L18.21 9.33Q18.16 9.36 18.05 9.30L18.02 9.27L17.99 9.30Q17.97 9.36 17.94 9.36M20.71 9L20.74 8.95Q20.82 9.03 20.85 9.11L20.85 9.14L20.80 9.08Q20.71 9.03 20.71 9M18.21 9.33L18.37 9.14Q18.48 9.03 18.62 9.06L18.32 9.46L18.21 9.55L18.08 9.52L18.21 9.33M20.85 9.14L20.85 9.11Q20.93 9.16 20.96 9.27Q20.88 9.22 20.85 9.14M17.99 9.30L18.02 9.27Q18.02 9.30 18.05 9.30Q18.16 9.36 18.21 9.33L18.08 9.52Q17.83 9.90 17.61 10.28L17.37 10.80L17.01 10.77L16.91 10.88Q17.29 10.14 17.80 9.49L17.83 9.44Q17.88 9.36 17.93 9.36Q17.97 9.36 17.99 9.30M18.08 9.52L18.21 9.55Q18.24 9.55 18.27 9.52L18.32 9.46L18.02 10.01L17.91 10.06L17.80 10.04Q17.78 10.06 17.72 10.17Q17.67 10.28 17.61 10.28Q17.83 9.87 18.08 9.52M17.80 10.04L17.91 10.06Q17.94 10.06 17.97 10.04L18.02 10.01L17.99 10.04Q17.86 10.31 17.61 10.91L17.45 11.34Q17.31 11.67 17.29 11.83L17.26 11.91Q17.20 11.94 17.15 12.08Q17.10 12.21 17.04 12.24Q16.99 12.27 16.95 12.17Q16.91 12.08 16.85 12.08L16.91 11.83L17.34 10.80L17.61 10.28Q17.67 10.28 17.72 10.17Q17.78 10.06 17.80 10.04M17.99 10.04Q18.16 10.04 18.24 10.06L18.21 10.17Q17.86 11.01 17.56 11.88L17.50 11.86Q17.34 11.86 17.29 11.83Q17.31 11.67 17.45 11.34L17.61 10.91Q17.86 10.31 17.99 10.04M16.91 10.88Q16.93 10.85 16.99 10.80L17.01 10.77L17.34 10.80L16.91 11.83Q16.88 11.86 16.85 11.93Q16.82 11.99 16.80 11.99L16.77 11.94Q16.66 11.80 16.66 11.72Q16.58 11.69 16.55 11.76Q16.52 11.83 16.48 11.95Q16.44 12.08 16.39 12.13Q16.39 12.05 16.44 11.91L16.52 11.72Q16.77 11.15 16.91 10.88M16.55 11.78Q16.58 11.69 16.66 11.72Q16.66 11.80 16.77 11.94L16.80 11.99Q16.82 11.99 16.85 11.93Q16.88 11.86 16.91 11.83L16.85 12.08Q16.55 12.86 16.44 13.33Q16.36 13.57 16.25 14.06L16.17 14.47L16.12 14.50Q16.04 14.55 15.98 14.55Q15.76 14.66 15.71 14.85Q15.71 14.80 15.71 14.74Q15.98 13.35 16.33 12.24L16.39 12.13Q16.44 12.08 16.48 11.95Q16.52 11.83 16.55 11.78M17.12 12.27L17.29 11.83Q17.34 11.86 17.50 11.86L17.56 11.88Q17.50 11.91 17.50 11.99L17.50 12.02Q17.48 12.18 17.37 12.51L17.26 12.84Q17.12 13.35 16.99 13.90L16.99 13.95Q16.99 13.98 16.96 13.98Q16.85 13.98 16.72 13.98Q16.66 14.03 16.61 14.14Q16.66 13.84 16.82 13.27L16.91 12.95Q16.99 12.70 17.12 12.27M17.50 12.02Q17.50 12.02 17.50 11.99Q17.50 11.91 17.56 11.88L17.53 11.91Q17.53 12.02 17.50 12.02M17.07 12.27Q17.10 12.21 17.15 12.08Q17.20 11.94 17.26 11.91L16.91 12.95Q16.88 12.97 16.80 13.08L16.80 13.14Q16.72 13.14 16.67 13.12Q16.63 13.11 16.63 13.07Q16.63 13.03 16.58 13.05L16.58 13.08Q16.52 13.27 16.44 13.33Q16.55 12.86 16.85 12.08Q16.91 12.08 16.95 12.17Q16.99 12.27 17.07 12.27M16.80 13.14Q16.80 13.11 16.80 13.08Q16.88 12.97 16.91 12.95L16.82 13.30Q16.66 13.84 16.61 14.14L16.50 14.52Q16.44 14.60 16.40 14.77Q16.36 14.93 16.33 14.99L16.28 15.01Q16.14 15.04 16.09 15.07L16.04 15.34Q16.04 15.26 16.05 15.15Q16.06 15.04 16.12 14.81Q16.17 14.58 16.17 14.47L16.25 14.06Q16.36 13.57 16.44 13.33Q16.52 13.27 16.58 13.08L16.58 13.05Q16.63 13.03 16.63 13.07Q16.63 13.11 16.67 13.12Q16.72 13.14 16.80 13.14M16.72 13.98Q16.85 13.98 16.96 13.98L16.85 14.69Q16.72 15.34 16.66 15.67Q16.63 15.56 16.69 15.34L16.69 15.31Q16.63 15.28 16.52 15.33Q16.42 15.37 16.38 15.38Q16.33 15.39 16.33 15.45L16.31 15.48Q16.33 15.28 16.42 14.93L16.50 14.52L16.61 14.14Q16.66 14.03 16.72 13.98M15.98 14.55Q16.04 14.55 16.12 14.50L16.17 14.47Q16.17 14.58 16.12 14.81Q16.06 15.04 16.04 15.18Q15.84 15.12 15.65 15.18Q15.65 15.09 15.68 15Q15.71 14.90 15.71 14.85Q15.76 14.66 15.98 14.55M16.28 15.01L16.33 14.99Q16.36 14.93 16.40 14.77Q16.44 14.60 16.50 14.52L16.42 14.93Q16.33 15.28 16.31 15.48L16.31 15.58L16.28 15.50Q16.25 15.50 16.25 15.56Q16.25 15.61 16.24 15.64Q16.23 15.67 16.12 15.64L16.04 15.64L15.98 15.75L15.98 15.58L16.09 15.07Q16.14 15.04 16.28 15.01M15.65 15.18Q15.87 15.12 16.04 15.18Q16.04 15.26 16.04 15.34L15.98 15.58Q15.93 15.61 15.82 15.60Q15.71 15.58 15.65 15.61Q15.60 15.64 15.57 15.75L15.57 15.77Q15.57 15.48 15.65 15.18M16.36 15.37Q16.42 15.37 16.52 15.33Q16.63 15.28 16.69 15.31L16.69 15.37Q16.63 15.56 16.66 15.67Q16.63 15.86 16.61 16.18L16.58 16.18Q16.61 16.10 16.52 16.02L16.28 16.02L16.20 16.21L16.23 15.96L16.33 15.42Q16.36 15.39 16.36 15.37M16.25 15.61Q16.25 15.61 16.25 15.56Q16.25 15.50 16.28 15.50L16.31 15.58L16.23 15.96L16.14 16.13L15.98 16.10L15.90 16.24L15.93 15.94Q15.95 15.80 15.98 15.75L16.04 15.64L16.12 15.64Q16.23 15.67 16.25 15.61M15.65 15.61Q15.71 15.58 15.82 15.60Q15.93 15.61 15.98 15.58L15.98 15.75Q15.95 15.80 15.93 15.94L15.90 16.07Q15.84 16.13 15.71 16.10L15.60 16.07L15.49 16.26Q15.49 16.02 15.57 15.77L15.57 15.75Q15.60 15.64 15.65 15.61M18.32 15.72Q18.35 15.72 18.37 15.69Q18.48 15.61 18.54 15.64Q17.50 16.73 17.12 18.82L17.10 18.79Q16.99 18.77 16.88 18.77L16.88 18.66Q17.07 17.90 17.20 17.52Q17.40 16.89 17.69 16.43L17.72 16.40Q17.78 16.32 17.76 16.28Q17.75 16.24 17.80 16.16L17.91 16.07Q18.16 15.83 18.32 15.72M15.98 16.10L16.14 16.13Q16.14 16.13 16.14 16.10L16.23 15.96L16.20 16.21Q16.17 16.26 16.12 16.40L16.09 16.51L15.93 16.48L15.84 16.67L15.84 16.64Q15.87 16.43 15.90 16.24L15.98 16.10M16.20 16.21L16.28 16.02L16.52 16.02Q16.61 16.10 16.58 16.18Q16.55 16.26 16.55 16.36Q16.55 16.45 16.52 16.67Q16.50 16.89 16.50 16.97L16.47 16.97L16.47 16.89Q16.50 16.75 16.44 16.74Q16.39 16.73 16.31 16.70Q16.14 16.67 16.14 16.78L16.12 16.75L16.12 16.67L16.14 16.48Q16.20 16.32 16.20 16.21M15.49 16.26L15.60 16.07Q15.63 16.07 15.71 16.10Q15.84 16.13 15.90 16.07L15.90 16.24Q15.87 16.43 15.84 16.64L15.79 16.78Q15.76 16.81 15.63 16.77Q15.49 16.73 15.46 16.84Q15.44 16.94 15.41 17.08Q15.38 16.94 15.44 16.67L15.46 16.51Q15.46 16.35 15.49 16.26M16.55 16.35Q16.55 16.26 16.58 16.18Q16.63 16.32 16.55 16.35M15.93 16.48L16.09 16.51Q16.09 16.48 16.12 16.40Q16.17 16.26 16.20 16.21Q16.20 16.32 16.14 16.48L16.12 16.67L16.04 16.86L15.90 16.84Q15.87 16.86 15.84 16.97L15.84 17L15.84 16.67L15.93 16.48M17.50 16.59Q17.53 16.56 17.56 16.48Q17.67 16.32 17.75 16.26Q17.78 16.32 17.72 16.40L17.69 16.43Q17.40 16.89 17.20 17.52Q17.07 17.90 16.88 18.66L16.88 18.77Q16.80 18.88 16.77 19.15L16.74 19.34Q16.69 19.34 16.61 19.26L16.55 19.17Q16.52 19.17 16.44 19.20L16.42 19.20Q16.47 18.93 16.63 18.44L16.72 18.20Q17.10 17.19 17.50 16.59M15.79 16.78Q15.82 16.75 15.82 16.70L15.84 16.64L15.79 17.46L15.74 18.66Q15.71 18.88 15.71 19.26L15.71 20.32L15.68 20.32L15.55 20.04Q15.44 19.83 15.36 19.72L15.33 19.72Q15.30 19.66 15.27 19.68Q15.25 19.69 15.29 19.81Q15.33 19.94 15.41 20.21Q15.55 20.62 15.55 20.86L15.49 20.70Q15.41 20.26 15.25 19.88L15.19 19.72Q15.22 19.58 15.22 19.50L15.22 19.36Q15.25 19.17 15.25 19.01L15.25 18.85Q15.25 18.74 15.27 18.52L15.30 18.17Q15.33 18.09 15.33 18L15.33 17.84Q15.33 17.60 15.38 17.35L15.41 17.08Q15.44 16.94 15.46 16.84Q15.49 16.73 15.63 16.77Q15.76 16.81 15.79 16.78M16.04 16.89L16.04 16.86Q16.04 16.86 16.04 16.86L16.12 16.67L16.12 16.75L16.06 17Q16.04 17.22 15.98 17.35L15.87 17.32Q15.84 17.41 15.79 17.57L15.79 17.60L15.84 16.97Q15.87 16.86 15.90 16.84L16.04 16.89M16.14 16.78Q16.14 16.67 16.31 16.70Q16.39 16.73 16.44 16.74Q16.50 16.75 16.47 16.89L16.47 16.97Q16.50 17.27 16.42 17.57L16.42 17.76Q16.39 17.90 16.39 18.03L16.39 18.41L16.36 18.60Q16.33 18.74 16.33 18.90L16.31 19.56L16.28 19.64Q16.23 19.77 16.23 19.83Q16.20 19.83 16.20 19.88L16.20 19.94Q16.12 19.99 16.06 20.04Q16.09 19.88 16.06 19.53L16.04 19.20Q15.98 18.77 16.04 17.87L16.04 17.43Q16.06 17.22 16.14 16.78M16.06 17L16.12 16.75L16.14 16.78Q16.06 17.22 16.04 17.43Q15.93 18.44 16.01 19.47Q15.98 19.69 15.87 20.10L15.79 20.51Q15.79 20.53 15.74 20.56L15.71 20.56L15.71 19.42Q15.74 19.23 15.74 18.85L15.74 18.66L15.79 17.57Q15.84 17.41 15.87 17.32L15.98 17.35Q16.04 17.22 16.06 17M11.08 17.13L11.08 16.86Q11.14 16.86 11.14 16.94L11.11 17.13L11.08 17.13M11.11 17.13L11.14 16.97L11.28 17.65Q11.30 17.71 11.28 17.76Q11.25 17.90 11.30 18.17Q11.36 18.58 11.25 18.74L11.19 18.68L11.19 18.58Q11.19 18.47 11.17 18.41L11.17 18.03Q11.19 17.95 11.17 17.87Q11.14 17.79 11.14 17.68L11.14 17.60Q11.14 17.46 11.13 17.35Q11.11 17.24 11.11 17.13M15.38 17.13L15.38 17.35Q15.38 17.32 15.37 17.23Q15.36 17.13 15.38 17.13M11.14 17.38Q11.14 17.46 11.14 17.60L11.14 17.68L11.11 17.68Q11.11 17.54 11.14 17.38M16.01 19.47Q15.93 18.44 16.04 17.43L16.04 17.87Q15.98 18.77 16.04 19.20L16.06 19.53Q16.09 19.88 16.06 20.04Q16.12 19.99 16.20 19.94L16.20 19.99L16.01 20.92L15.98 20.89Q15.95 20.86 15.93 20.89L15.84 20.89Q15.74 20.92 15.71 20.97L15.71 20.56L15.74 20.56Q15.79 20.53 15.79 20.51L15.87 20.10Q15.98 19.69 16.01 19.47M16.42 17.79L16.42 17.76Q16.42 17.76 16.42 17.73L16.42 17.57Q16.44 17.68 16.42 17.79M12.66 17.79Q12.64 17.81 12.57 17.77Q12.50 17.73 12.51 17.71Q12.53 17.68 12.64 17.73Q13.07 17.71 13.56 17.87L13.37 18.09L13.15 17.98Q12.83 17.81 12.66 17.79M11.19 18.68L11.28 18.74Q11.36 18.58 11.30 18.17Q11.25 17.90 11.28 17.76Q11.33 17.90 11.38 18.17L11.41 18.39Q11.36 18.33 11.33 18.40Q11.30 18.47 11.33 18.49Q11.36 18.66 11.33 18.98L11.33 19.17L11.28 19.28Q11.22 19.26 11.19 19.15L11.19 18.68M16.42 18.03L16.39 18.03Q16.39 17.90 16.42 17.79L16.42 18.03M15.33 18L15.30 18Q15.25 17.87 15.33 17.84L15.33 18M11.17 17.87Q11.19 17.95 11.17 18.03Q11.11 17.95 11.17 17.87M13.37 18.09L13.56 17.87Q13.72 17.92 13.86 18L13.80 18.09L13.89 18.14Q14 18.22 14.05 18.28Q14.10 18.33 14.12 18.49Q14.13 18.66 14.21 18.71Q14.19 18.74 14.21 18.82L14.21 18.93Q14.16 18.88 14.10 18.77L14.02 18.66L13.89 18.52Q13.59 18.25 13.42 18.14L13.40 18.11Q13.37 18.09 13.37 18.09M15.30 18L15.33 18Q15.33 18.09 15.30 18.17Q15.27 18.06 15.30 18M13.89 18.14L13.80 18.09Q13.83 18.03 13.86 18Q14.46 18.36 14.92 19.17Q14.87 19.23 14.78 19.28Q14.78 19.42 14.89 19.61Q14.97 20.02 14.84 20.40L14.87 20.67L14.84 20.67Q14.76 19.85 14.21 18.93L14.21 18.82Q14.19 18.74 14.21 18.71Q14.13 18.66 14.12 18.49Q14.10 18.33 14.05 18.28Q14 18.22 13.89 18.14M16.39 18.22L16.39 18.03L16.42 18.03L16.42 18.09Q16.42 18.20 16.39 18.22M11.17 18.03L11.17 18.22L11.14 18.22Q11.11 18.11 11.17 18.03M15.30 18.20L15.27 18.39Q15.27 18.36 15.27 18.33Q15.25 18.20 15.30 18.20M11.14 18.22L11.17 18.22L11.17 18.39L11.14 18.41Q11.14 18.30 11.14 18.22M11.33 18.49Q11.30 18.47 11.33 18.40Q11.36 18.33 11.41 18.39L11.47 18.79L11.44 18.79Q11.36 18.85 11.41 18.93Q11.38 19.01 11.41 19.15Q11.44 19.28 11.41 19.36L11.36 19.47L11.33 19.17L11.33 18.98Q11.36 18.66 11.33 18.49M11.17 18.41Q11.19 18.47 11.19 18.58L11.19 18.63L11.17 18.63Q11.17 18.52 11.17 18.41M16.36 18.63L16.36 18.60Q16.36 18.58 16.36 18.55L16.39 18.41L16.39 18.63L16.36 18.63M16.36 18.90L16.33 18.90Q16.33 18.68 16.36 18.60L16.36 18.68Q16.36 18.82 16.36 18.90M11.17 18.85L11.17 18.63L11.19 18.63L11.19 18.85L11.17 18.85M15.71 19.42Q15.71 19.36 15.71 19.26Q15.71 18.88 15.74 18.66L15.74 18.85Q15.74 19.23 15.71 19.42M16.74 19.34Q16.77 19.28 16.77 19.15Q16.80 18.88 16.88 18.77Q16.96 18.77 17.10 18.79Q17.07 18.90 17.07 19.07L17.07 19.09Q17.04 19.20 17.01 19.31Q16.99 19.42 17 19.49Q17.01 19.56 16.99 19.64L16.96 19.69Q16.88 19.69 16.85 19.72L16.74 19.83Q16.69 19.96 16.66 20.21Q16.61 20.56 16.52 20.72Q16.50 20.72 16.42 20.70L16.36 20.67L16.31 20.67Q16.23 20.64 16.17 20.62Q16.12 20.59 16.17 20.51Q16.20 20.13 16.33 19.58Q16.36 19.50 16.33 19.45L16.33 19.36Q16.39 19.31 16.42 19.20L16.44 19.20Q16.52 19.17 16.55 19.17L16.61 19.26Q16.69 19.34 16.74 19.34M11.41 18.93Q11.36 18.85 11.44 18.79L11.47 18.79L11.57 19.39Q11.52 19.36 11.49 19.42L11.49 19.80L11.44 19.85Q11.41 19.91 11.41 19.96Q11.38 19.85 11.33 19.77L11.36 19.47L11.41 19.36Q11.44 19.28 11.41 19.15Q11.38 19.01 11.41 18.93M17.07 19.09Q17.07 19.09 17.07 19.07Q17.07 18.90 17.10 18.79Q17.10 18.85 17.10 18.96Q17.10 19.07 17.07 19.09M11.17 19.07L11.17 18.85L11.19 18.85L11.19 19.07L11.17 19.07M15.25 19.01Q15.19 18.88 15.25 18.85L15.25 19.01M16.33 19.07L16.33 18.90L16.36 18.90Q16.39 18.98 16.36 19.07L16.33 19.07M15.25 19.01Q15.25 19.23 15.22 19.36L15.22 19.20Q15.22 19.07 15.25 19.01M11.17 19.15L11.17 19.07L11.19 19.07L11.19 19.31Q11.14 19.28 11.17 19.15M16.33 19.39L16.33 19.07L16.36 19.07L16.36 19.23Q16.36 19.26 16.38 19.23Q16.39 19.20 16.42 19.20Q16.39 19.31 16.33 19.39M16.33 19.36L16.31 19.56Q16.31 19.45 16.31 19.28L16.33 19.07L16.33 19.36M11.19 19.53L11.19 19.12Q11.19 19.12 11.19 19.15Q11.22 19.26 11.28 19.28L11.33 19.17L11.36 19.47L11.33 19.77Q11.28 19.75 11.22 19.75L11.22 19.66Q11.22 19.58 11.19 19.53M14.78 19.28Q14.87 19.23 14.92 19.17Q15.03 19.34 15.14 19.58L15.03 19.66L15.08 19.85Q15.16 20.15 15.14 20.32L15.08 20.48Q14.95 20.78 14.92 20.94L14.89 20.94Q14.89 20.89 14.87 20.81L14.84 20.40Q14.97 20.02 14.89 19.61Q14.81 19.45 14.78 19.28M15.22 19.50L15.19 19.50Q15.22 19.47 15.21 19.36Q15.19 19.26 15.22 19.26L15.22 19.50M17.01 19.53L17.01 19.50Q16.99 19.42 17.01 19.34Q17.10 19.47 17.01 19.53M11.47 19.80L11.49 19.42Q11.52 19.36 11.55 19.41Q11.57 19.45 11.60 19.57Q11.63 19.69 11.59 19.76Q11.55 19.83 11.57 19.91Q11.57 20.34 11.63 20.75L11.66 20.92Q11.66 21.11 11.71 21.19L11.66 21.27L11.60 21.27Q11.49 21.24 11.47 21.27L11.44 20.83Q11.44 20.67 11.41 20.34L11.41 19.96Q11.41 19.91 11.44 19.85L11.47 19.80M16.28 19.64L16.31 19.56L16.33 19.45Q16.36 19.50 16.33 19.58Q16.20 20.04 16.17 20.51Q16.12 20.59 16.17 20.62Q16.23 20.64 16.31 20.67L16.36 20.67L16.42 20.70Q16.50 20.72 16.52 20.72Q16.61 20.56 16.66 20.21Q16.69 19.96 16.74 19.83L16.85 19.72Q16.88 19.69 16.96 19.69L16.96 19.85Q16.96 19.94 16.93 20.13L16.88 20.51Q16.82 20.59 16.72 20.59Q16.63 20.67 16.61 20.86L16.55 21.02Q16.47 21.02 16.36 20.92Q16.25 20.81 16.14 20.82Q16.04 20.83 16.06 20.64L16.23 19.83Q16.23 19.77 16.28 19.64M15.19 19.72L15.19 19.50L15.22 19.50Q15.22 19.58 15.19 19.72M11.19 19.53Q11.22 19.58 11.22 19.69L11.22 19.77L11.19 19.77Q11.19 19.61 11.19 19.53M15.08 19.85L15.03 19.66Q15.06 19.64 15.14 19.58L15.14 19.64Q15.16 19.69 15.19 19.72L15.25 19.88L15.25 19.96Q15.19 19.99 15.22 20.13L15.25 20.32Q15.27 20.53 15.27 20.64L15.16 20.83Q15.03 21.08 15 21.21Q14.97 21.27 14.99 21.40Q15 21.54 15 21.60L14.97 21.60L14.95 21.40Q14.97 21.32 14.95 21.24Q14.92 21.16 14.92 20.97L14.92 20.94Q14.95 20.78 15.08 20.48L15.14 20.32Q15.16 20.15 15.08 19.85M16.96 19.85L16.96 19.69Q16.96 19.66 16.99 19.66L16.99 19.72Q17.01 19.83 16.96 19.85M15.30 19.80Q15.25 19.69 15.27 19.68Q15.30 19.66 15.33 19.72L15.36 19.72Q15.44 19.83 15.55 20.04L15.68 20.32L15.71 20.32L15.71 20.70Q15.65 20.78 15.57 20.86L15.55 21.02L15.46 21.02Q15.55 20.92 15.55 20.86Q15.55 20.62 15.41 20.21Q15.33 19.94 15.30 19.80M11.22 20.62L11.22 19.75Q11.28 19.75 11.33 19.77Q11.38 19.85 11.41 19.96L11.41 20.34Q11.44 20.67 11.44 20.83L11.41 20.72Q11.38 20.56 11.36 20.48Q11.30 20.48 11.28 20.56L11.22 20.62M11.57 19.91Q11.55 19.83 11.63 19.75Q11.66 20.02 11.74 20.53L11.79 20.92Q11.76 20.94 11.79 21.05Q11.82 21.16 11.82 21.21L11.76 21.13L11.71 21.19Q11.66 21.11 11.66 20.92L11.63 20.75Q11.57 20.34 11.57 19.91M11.19 20.04L11.19 19.77L11.22 19.77L11.22 20.04L11.19 20.04M16.20 19.99L16.20 19.94Q16.20 19.91 16.20 19.87Q16.20 19.83 16.23 19.83L16.20 19.99M15.25 19.96L15.25 19.88Q15.41 20.24 15.49 20.70L15.44 20.67L15.44 20.59Q15.36 20.26 15.25 19.96M15.25 20.32L15.25 20.18Q15.25 20.15 15.22 20.13Q15.19 19.99 15.25 19.96Q15.38 20.32 15.44 20.59L15.36 20.64Q15.33 20.67 15.34 20.74Q15.36 20.81 15.33 20.83L15.27 20.92Q15.14 21.05 15.14 21.13Q15.08 21.30 15.15 21.57Q15.22 21.84 15.19 21.98Q15.19 22.06 15.11 22.22L15.08 22.25Q15.06 22.30 15.04 22.41Q15.03 22.52 15 22.57L15 21.60Q15 21.54 14.99 21.40Q14.97 21.27 15 21.21Q15.03 21.08 15.16 20.83L15.27 20.64Q15.27 20.53 15.25 20.32M11.19 20.34L11.19 20.04L11.22 20.04L11.22 20.34L11.19 20.34M16.93 20.43L16.91 20.43Q16.91 20.40 16.91 20.37L16.93 20.18L16.93 20.43M16.91 20.75L16.88 20.51L16.91 20.43L16.91 20.75M11.25 21.08L11.22 20.62Q11.25 20.59 11.28 20.53Q11.30 20.48 11.36 20.48Q11.38 20.56 11.41 20.72L11.44 20.83L11.44 21.16Q11.44 21.32 11.38 21.30Q11.33 21.27 11.28 21.16L11.25 21.08M16.72 20.59Q16.82 20.59 16.88 20.51L16.88 20.92Q16.85 20.92 16.78 21Q16.72 21.08 16.63 21.05Q16.58 21.11 16.55 21.24L16.52 21.32Q16.52 21.19 16.43 21.06Q16.33 20.94 16.20 20.93Q16.06 20.92 16.04 20.78L16.06 20.64Q16.04 20.83 16.14 20.82Q16.25 20.81 16.36 20.92Q16.47 21.02 16.55 21.02L16.61 20.86Q16.63 20.67 16.72 20.59M15.44 20.67L15.36 20.64Q15.38 20.62 15.44 20.59L15.44 20.67M11.22 20.62Q11.25 20.70 11.25 20.86L11.25 20.92L11.22 20.92Q11.22 20.78 11.22 20.62M15.27 20.92L15.33 20.83Q15.36 20.81 15.34 20.74Q15.33 20.67 15.36 20.64L15.46 20.70Q15.41 20.72 15.37 20.82Q15.33 20.92 15.30 20.94Q15.22 21.05 15.18 21.17Q15.14 21.30 15.18 21.40Q15.22 21.51 15.33 21.68L15.38 21.79Q15.41 21.98 15.27 22.33Q15.22 22.55 15.19 22.66L15.19 22.71Q15.19 23.36 15.27 23.66L15.11 23.64Q15.08 23.61 15.08 23.61L14.95 23.06Q14.97 23.04 14.97 22.96L15 22.57Q15.03 22.52 15.04 22.41Q15.06 22.30 15.08 22.25L15.11 22.22Q15.19 22.06 15.19 21.98Q15.22 21.84 15.15 21.57Q15.08 21.30 15.14 21.13Q15.14 21.05 15.27 20.92M15.30 20.94Q15.33 20.92 15.37 20.82Q15.41 20.72 15.46 20.70L15.49 20.70Q15.52 20.78 15.41 20.86Q15.38 20.92 15.30 21.01Q15.22 21.11 15.22 21.19Q15.16 21.32 15.23 21.45Q15.30 21.57 15.44 21.68Q15.49 21.68 15.49 21.76L15.49 21.79Q15.55 22.11 15.49 22.63L15.46 22.85Q15.46 23.31 15.49 23.55Q15.52 23.64 15.49 23.72L15.27 23.66Q15.19 23.36 15.19 22.68L15.19 22.66Q15.22 22.55 15.27 22.33Q15.41 21.98 15.38 21.79L15.33 21.68Q15.22 21.51 15.18 21.40Q15.14 21.30 15.18 21.17Q15.22 21.05 15.30 20.94M15.49 20.70L15.55 20.86Q15.55 20.92 15.46 21.02Q15.27 21.11 15.27 21.30Q15.25 21.40 15.41 21.54L15.52 21.62Q15.55 21.79 15.57 22.08L15.57 22.30Q15.63 22.85 15.60 23.72L15.49 23.72Q15.52 23.64 15.49 23.55Q15.46 23.31 15.46 22.87L15.49 22.63Q15.55 22.11 15.49 21.79L15.49 21.76Q15.49 21.68 15.44 21.68Q15.30 21.57 15.23 21.45Q15.16 21.32 15.22 21.19Q15.22 21.11 15.30 21.01Q15.38 20.92 15.41 20.86Q15.52 20.78 15.49 20.70M15.55 21.02L15.57 20.86Q15.65 20.78 15.71 20.70L15.71 20.97L15.65 21.05L15.55 21.02M16.88 21.11L16.91 20.75L16.91 21.11L16.88 21.11M16.12 20.97L16.01 20.92L16.04 20.78Q16.06 20.92 16.20 20.93Q16.33 20.94 16.43 21.06Q16.52 21.19 16.52 21.32L16.55 21.24Q16.58 21.11 16.63 21.05Q16.72 21.08 16.78 21Q16.85 20.92 16.88 20.92L16.88 21.11L16.88 21.13Q16.77 21.21 16.72 21.32L16.69 21.30Q16.63 21.27 16.61 21.24L16.61 21.32Q16.58 21.46 16.58 21.51Q16.58 21.65 16.54 21.92Q16.50 22.19 16.50 22.36L16.44 22.57Q16.36 22.55 16.23 22.57Q16.09 22.60 16.04 22.60Q15.95 22.52 15.95 22.38L16.04 22.52L16.09 22.47Q16.20 22.38 16.25 22.40Q16.31 22.41 16.39 22.36L16.44 22.33Q16.50 22.19 16.50 21.89L16.52 21.70Q16.55 21.54 16.50 21.40L16.36 21.60L16.31 21.62Q16.14 21.68 16.08 21.66Q16.01 21.65 15.90 21.65Q15.95 21.60 16.09 21.58Q16.23 21.57 16.28 21.54Q16.39 21.46 16.40 21.31Q16.42 21.16 16.31 21.05Q16.28 21 16.12 20.97M10.32 20.86L10.24 20.81Q10.38 20.86 10.62 21.11L10.62 21.13Q10.57 21.13 10.57 21.21L10.54 21.21Q10.49 21.08 10.32 20.86M15.65 21.08L15.71 20.97Q15.74 20.92 15.84 20.89L15.93 20.89Q15.95 20.86 15.98 20.89L16.01 20.92L16.01 21.05Q15.90 21.08 15.87 21.20Q15.84 21.32 15.93 21.40Q15.93 21.49 15.90 21.55Q15.87 21.62 15.82 21.62Q15.76 21.62 15.74 21.57L15.65 21.40Q15.74 21.32 15.74 21.23Q15.74 21.13 15.65 21.08M11.22 21.24L11.22 20.92L11.25 20.92L11.25 21.24L11.22 21.24M16.01 21.05L16.01 20.92L16.12 20.97Q16.28 21 16.31 21.05Q16.42 21.16 16.40 21.31Q16.39 21.46 16.28 21.54Q16.23 21.57 16.09 21.58Q15.95 21.60 15.90 21.65L15.90 21.57Q15.93 21.49 15.93 21.40Q16.01 21.49 16.13 21.46Q16.25 21.43 16.31 21.32Q16.36 21.21 16.24 21.11Q16.12 21 16.01 21.05M15.27 21.30Q15.27 21.11 15.46 21.02L15.55 21.02L15.65 21.05Q15.74 21.13 15.74 21.23Q15.74 21.32 15.65 21.40L15.60 21.46Q15.38 21.51 15.27 21.30M16.01 21.05Q16.12 21 16.24 21.11Q16.36 21.21 16.31 21.32Q16.25 21.43 16.13 21.46Q16.01 21.49 15.93 21.40Q15.84 21.32 15.87 21.20Q15.90 21.08 16.01 21.05M11.25 21.35L11.25 21.08Q11.28 21.11 11.30 21.19Q11.33 21.27 11.38 21.30Q11.44 21.32 11.44 21.16L11.44 21.13L11.47 21.38L11.47 21.54L11.33 21.49Q11.30 21.46 11.28 21.40L11.25 21.35M16.88 21.32L16.85 21.13L16.88 21.11L16.88 21.32M10.62 21.35L10.57 21.21Q10.57 21.13 10.62 21.13Q10.87 21.35 11.03 21.70L10.98 21.76Q10.87 21.87 10.84 21.92Q10.79 21.73 10.62 21.35M11.71 21.21L11.71 21.19Q11.74 21.16 11.76 21.13L11.82 21.21L11.82 21.30Q11.85 21.40 11.85 21.46Q11.76 21.51 11.75 21.64Q11.74 21.76 11.72 21.81Q11.71 21.87 11.57 21.89L11.49 21.92L11.49 21.73Q11.49 21.68 11.59 21.68Q11.68 21.68 11.71 21.65L11.71 21.38Q11.74 21.27 11.71 21.21M16.69 21.30L16.72 21.32Q16.77 21.21 16.85 21.13L16.88 22Q16.80 21.95 16.70 22.04Q16.61 22.14 16.55 22.14L16.50 22.36Q16.50 22.19 16.54 21.92Q16.58 21.65 16.58 21.51Q16.58 21.46 16.61 21.32L16.61 21.24Q16.63 21.27 16.69 21.30M11.60 21.27L11.66 21.27Q11.66 21.27 11.68 21.24L11.71 21.19Q11.74 21.27 11.74 21.38L11.71 21.46Q11.68 21.49 11.59 21.47Q11.49 21.46 11.47 21.54L11.47 21.30Q11.49 21.24 11.60 21.27M11.22 21.57L11.22 21.24L11.25 21.24L11.25 21.57L11.22 21.57M14.95 21.24Q14.97 21.32 14.95 21.40Q14.92 21.32 14.95 21.24M15.52 21.62Q15.49 21.60 15.41 21.54Q15.25 21.40 15.27 21.30Q15.38 21.51 15.60 21.46L15.49 21.49Q15.52 21.51 15.57 21.55Q15.63 21.60 15.65 21.62L15.68 21.73Q15.71 21.81 15.74 21.87Q15.76 22.03 15.76 22.19L15.68 22.17L15.68 22.25Q15.65 22.36 15.65 22.41Q15.65 22.60 15.65 23.01Q15.65 23.50 15.68 23.74L15.60 23.74L15.60 23.72Q15.63 22.85 15.57 22.30L15.57 22.08Q15.55 21.79 15.52 21.62M16.88 21.89L16.88 21.32L16.91 21.51Q16.91 21.76 16.88 21.89M11.25 21.65L11.25 21.35Q11.25 21.35 11.28 21.40Q11.30 21.46 11.33 21.49L11.47 21.54L11.47 21.62L11.47 21.65Q11.44 21.81 11.30 21.76Q11.28 21.76 11.28 21.70L11.25 21.65M14.95 21.46L14.95 21.40L14.97 21.60Q14.92 21.60 14.95 21.46M15.49 21.49L15.60 21.46Q15.63 21.40 15.65 21.40L15.74 21.57L15.74 21.87Q15.71 21.81 15.68 21.73L15.65 21.62Q15.63 21.60 15.57 21.55Q15.52 21.51 15.49 21.49M16.36 21.62L16.36 21.60Q16.39 21.57 16.47 21.46L16.50 21.40Q16.52 21.49 16.52 21.70L16.50 21.89Q16.50 22.19 16.44 22.33L16.39 22.36Q16.31 22.41 16.25 22.40Q16.20 22.38 16.09 22.47L16.04 22.52L15.95 22.38Q15.90 22.25 15.87 21.98L15.87 21.84Q15.87 21.76 15.90 21.68L15.90 21.65Q16.01 21.65 16.08 21.66Q16.14 21.68 16.31 21.62L16.36 21.62M11.49 21.73L11.47 21.54Q11.49 21.46 11.59 21.47Q11.68 21.49 11.71 21.46L11.71 21.65Q11.68 21.68 11.59 21.68Q11.49 21.68 11.49 21.73M11.71 21.81L11.74 21.81Q11.74 21.76 11.75 21.64Q11.76 21.51 11.85 21.46L11.85 21.49Q11.87 21.65 11.87 21.70L11.85 21.73Q11.79 21.76 11.79 21.79L11.76 21.95Q11.76 22.14 11.71 22.25L11.52 22.41L11.49 21.92L11.57 21.89Q11.71 21.87 11.71 21.81M15.74 21.87L15.74 21.57Q15.76 21.62 15.82 21.62Q15.87 21.62 15.90 21.57L15.90 21.65Q15.87 21.76 15.87 21.84L15.84 22Q15.82 22.19 15.79 22.28L15.76 22.19Q15.76 22.03 15.74 21.87M14.97 21.81L14.97 21.60L15 21.60L14.97 21.81M11.47 21.65L11.47 21.62Q11.47 21.68 11.49 21.73L11.49 21.98L11.28 22L11.25 21.89Q11.22 21.79 11.25 21.65L11.28 21.70Q11.28 21.76 11.30 21.76Q11.44 21.81 11.47 21.65M10.89 22.19L10.84 21.92Q10.87 21.87 10.98 21.76L11.03 21.70Q11.17 21.92 11.22 22.11L11.28 22.25Q11.36 22.44 11.38 22.55Q11.30 22.57 11.32 22.71Q11.33 22.85 11.30 22.87L11.25 22.90Q11.06 23.01 11.06 23.09Q11.06 22.79 10.89 22.19M11.76 21.95L11.79 21.79Q11.79 21.76 11.85 21.73L11.87 21.70Q11.90 21.89 11.93 22.25L11.93 22.36Q11.93 22.52 11.86 22.56Q11.79 22.60 11.74 22.76Q11.71 22.82 11.68 22.96L11.68 22.98L11.63 23.06L11.57 23.39L11.55 23.42Q11.52 23.28 11.52 23.17L11.52 23.04Q11.55 22.93 11.52 22.72Q11.49 22.52 11.52 22.41L11.71 22.25Q11.76 22.14 11.76 21.95M14.95 21.81L14.97 21.81L14.97 22.55L14.95 21.81M15.82 22.30L15.79 22.28Q15.82 22.19 15.84 22L15.87 21.84L15.87 21.98Q15.90 22.25 15.93 22.38Q15.95 22.52 16.04 22.60Q16.09 22.60 16.23 22.57Q16.36 22.55 16.44 22.57L16.50 22.38L16.50 22.52L16.44 22.90Q16.39 22.87 16.27 22.93Q16.14 22.98 16.09 22.96L15.98 22.71Q15.95 22.68 15.90 22.66L15.82 22.60L15.82 22.49Q15.84 22.38 15.82 22.30M16.88 22L16.88 21.89Q16.91 21.92 16.91 22L16.88 22.06L16.88 22M11.22 22.11L11.25 21.89Q11.25 21.95 11.28 22L11.25 22.19L11.22 22.11M11.25 22.19L11.28 22Q11.30 22 11.41 22L11.49 21.98L11.52 22.41Q11.49 22.52 11.52 22.72Q11.55 22.93 11.52 23.04L11.44 23.01Q11.47 22.90 11.41 22.68L11.38 22.55Q11.36 22.44 11.28 22.25L11.25 22.19M16.50 22.38L16.55 22.14Q16.61 22.14 16.70 22.04Q16.80 21.95 16.88 22L16.88 22.06Q16.85 22.19 16.88 22.33L16.88 22.44L16.85 22.33L16.77 22.36Q16.63 22.41 16.57 22.45Q16.50 22.49 16.50 22.60L16.50 22.38M16.88 22.36L16.88 22.03L16.91 22.03L16.91 22.36L16.88 22.36M16.88 22.06L16.88 22.33Q16.85 22.19 16.88 22.06M12.58 22.14L12.58 22.11L12.85 22.11L12.85 22.14L12.58 22.14M11.93 22.28L11.96 22.44Q12.23 22.14 12.58 22.14L12.91 22.14Q12.99 22.11 12.96 22.14Q12.88 22.14 12.80 22.17Q12.47 22.22 12.31 22.55Q12.28 22.57 12.25 22.66L12.20 22.71Q12.15 22.93 12.12 23.23L12.09 23.23Q12.06 23.09 11.98 22.96L11.90 22.93Q11.74 22.85 11.76 22.76L11.79 22.71Q11.85 22.63 11.89 22.57Q11.93 22.52 11.93 22.36L11.93 22.28M12.80 22.17Q12.88 22.14 12.96 22.14Q12.96 22.19 12.91 22.19Q12.85 22.19 12.80 22.17M15.68 22.28L15.68 22.17Q15.74 22.19 15.76 22.19L15.82 22.30L15.82 22.44Q15.79 22.57 15.82 22.63Q15.84 22.68 15.84 22.76L15.87 23.15L15.87 23.34Q15.90 23.55 15.93 23.64Q15.84 23.64 15.84 23.70Q15.84 23.77 15.82 23.77L15.68 23.74Q15.65 23.50 15.65 23.01Q15.65 22.60 15.65 22.41Q15.65 22.36 15.68 22.28M15.82 22.44L15.82 22.30Q15.84 22.38 15.82 22.49L15.82 22.63Q15.79 22.57 15.82 22.44M16.50 22.60Q16.50 22.49 16.57 22.45Q16.63 22.41 16.77 22.36L16.85 22.33L16.88 22.44L16.88 22.55L16.77 22.63Q16.61 22.71 16.55 22.79Q16.50 23.04 16.50 23.55L16.50 23.64L16.47 23.66L16.47 23.55Q16.47 22.93 16.50 22.60M16.88 22.55L16.88 22.36L16.91 22.33L16.91 22.57L16.88 22.55M14.76 22.85L14.76 22.55Q14.84 22.57 14.81 22.60Q14.78 22.71 14.78 22.82L14.78 22.85L14.76 22.85M14.97 22.85L14.97 22.55L14.97 22.85M16.44 22.90Q16.47 22.87 16.47 22.79L16.50 22.52L16.50 22.60Q16.47 22.93 16.47 23.55L16.47 23.66L16.12 23.66L16.09 23.42Q16.06 23.06 15.98 22.90Q15.87 22.87 15.84 22.76Q15.84 22.68 15.82 22.63L15.82 22.60L15.90 22.66Q15.95 22.68 15.98 22.71L16.09 22.96Q16.14 22.98 16.27 22.93Q16.39 22.87 16.44 22.90M11.25 22.90L11.30 22.87Q11.33 22.85 11.32 22.71Q11.30 22.57 11.38 22.55L11.41 22.68Q11.47 22.90 11.44 23.01Q11.36 22.98 11.30 23.01Q11.25 23.04 11.25 23.12Q11.25 23.25 11.41 23.28L11.33 23.31Q11.41 23.36 11.44 23.42L11.44 23.50Q11.44 23.64 11.41 23.69L11.11 23.69L11.11 23.61L11.06 23.09Q11.06 22.98 11.25 22.90M11.76 22.76L11.74 22.76Q11.74 22.76 11.74 22.76Q11.79 22.60 11.87 22.55Q11.85 22.63 11.79 22.71L11.76 22.76M16.55 22.79Q16.61 22.71 16.77 22.63L16.88 22.55L16.88 22.60Q16.88 22.74 16.91 22.82L16.91 22.93L16.88 22.90L16.82 22.98Q16.69 23.12 16.66 23.23Q16.66 23.28 16.61 23.28L16.55 23.31Q16.55 23.42 16.50 23.58L16.50 23.55Q16.50 23.04 16.55 22.79M16.88 22.60L16.88 22.55L16.91 22.57L16.91 22.82Q16.88 22.74 16.88 22.60M14.78 22.82Q14.78 22.71 14.81 22.60Q14.84 22.79 14.92 23.01Q14.95 23.04 14.93 22.97Q14.92 22.90 14.95 22.93L14.97 22.96Q14.97 23.04 14.95 23.06L15.08 23.61Q15.08 23.61 15.11 23.64L15.16 23.64Q15.08 23.64 15.11 23.74L15.16 23.88L15.03 23.88Q14.87 23.88 14.81 23.83L14.81 23.44Q14.81 23.04 14.78 22.82M16.91 22.90L16.91 22.71Q16.96 22.71 16.93 22.82L16.93 22.90L16.91 22.90M11.74 22.76L11.76 22.76Q11.74 22.85 11.90 22.93L11.98 22.96Q12.06 23.09 12.09 23.23L12.06 23.55Q11.96 23.55 11.91 23.59Q11.87 23.64 11.87 23.77L11.87 23.83L11.82 23.99Q11.71 24.02 11.57 24.02L11.55 23.69L11.63 23.77L11.82 23.72Q11.87 23.55 11.90 23.36L11.79 23.36Q11.63 23.34 11.57 23.39L11.63 23.06Q11.55 23.20 11.68 23.25Q11.82 23.31 11.87 23.21Q11.93 23.12 11.85 23.04Q11.76 22.96 11.68 23.01L11.68 22.96Q11.71 22.82 11.74 22.76M15.87 23.15L15.84 22.76Q15.87 22.87 15.98 22.90Q16.06 23.06 16.09 23.42L16.12 23.66L16.09 23.66L16.01 23.34Q15.95 23.36 15.93 23.25Q15.90 23.15 15.87 23.15M14.78 23.85L14.78 22.82Q14.81 23.04 14.81 23.44L14.81 23.83L14.78 23.85M16.82 22.98L16.88 22.90L16.91 22.93L16.91 22.96Q16.91 23.09 16.93 23.15L16.93 23.20Q16.96 23.28 16.96 23.34L16.99 23.64L16.50 23.64L16.52 23.58Q16.55 23.42 16.55 23.28L16.61 23.28Q16.66 23.28 16.66 23.23Q16.69 23.12 16.82 22.98M16.91 22.98L16.91 22.90L16.93 22.90L16.93 22.93Q16.93 23.09 16.93 23.15Q16.91 23.09 16.91 22.98M11.63 23.06L11.68 22.98Q11.76 22.96 11.85 23.04Q11.93 23.12 11.87 23.21Q11.82 23.31 11.68 23.25Q11.55 23.20 11.63 23.06M11.25 23.12Q11.25 23.04 11.30 23.01Q11.36 22.98 11.44 23.01L11.52 23.06L11.52 23.17Q11.49 23.23 11.41 23.28Q11.25 23.25 11.25 23.12M17.01 23.80L17.20 23.44Q17.23 23.42 17.29 23.31Q17.40 23.09 17.48 22.98Q17.45 23.12 17.37 23.39L17.23 23.72Q17.20 23.83 17.18 23.85L16.99 23.85Q16.99 23.83 17.01 23.80M15.87 23.34L15.84 23.15Q15.90 23.15 15.93 23.25Q15.95 23.36 16.01 23.34L16.09 23.66L15.93 23.64Q15.90 23.55 15.87 23.34M11.33 23.31L11.41 23.28Q11.49 23.23 11.52 23.17Q11.52 23.31 11.55 23.42L11.55 23.69Q11.52 23.85 11.55 24.10L11.47 24.02Q11.44 23.91 11.45 23.72Q11.47 23.53 11.44 23.44Q11.41 23.36 11.33 23.31M14.08 23.20Q14.10 23.23 14.19 23.34L14.40 23.61Q14.29 23.66 14.21 23.50L14.13 23.36Q14.08 23.28 14.08 23.20M17.88 23.36L17.94 23.31L17.97 23.31Q17.88 23.47 17.80 23.64L17.64 23.64Q17.69 23.55 17.88 23.36M14.24 23.42L14.27 23.42Q14.35 23.44 14.53 23.39Q14.70 23.34 14.78 23.34L14.78 23.39Q14.65 23.39 14.54 23.44Q14.43 23.53 14.46 23.61Q14.57 23.69 14.78 23.74L14.78 23.80Q14.35 23.72 14.10 23.61Q14.10 23.47 14.16 23.44L14.21 23.50Q14.29 23.66 14.40 23.61L14.24 23.42M16.99 23.66L16.96 23.34Q16.99 23.34 16.99 23.38Q16.99 23.42 17.01 23.42L17.20 23.47L17.07 23.69Q17.07 23.64 16.99 23.66M11.55 23.42L11.57 23.39Q11.63 23.34 11.79 23.36L11.90 23.36Q11.87 23.55 11.82 23.72L11.63 23.77L11.55 23.69L11.55 23.42M12.06 23.61L12.06 23.55Q12.06 23.44 12.09 23.36L12.09 23.42Q12.09 23.55 12.09 23.61L12.06 23.61M14.54 23.44Q14.65 23.39 14.78 23.39L14.78 23.42Q14.65 23.44 14.65 23.55Q14.65 23.66 14.78 23.69L14.78 23.74Q14.57 23.69 14.46 23.61Q14.43 23.53 14.54 23.44M11.44 23.50L11.44 23.42Q11.47 23.53 11.45 23.72Q11.44 23.91 11.47 24.02L11.49 24.34Q11.41 24.34 11.33 24.34L11.17 24.32L11.11 24.12L11.11 23.69L11.41 23.69Q11.44 23.64 11.44 23.50M14.62 23.55Q14.65 23.44 14.78 23.42L14.78 23.69Q14.65 23.66 14.62 23.55M10.87 23.58L10.87 23.50Q10.89 23.50 10.92 23.58L10.89 23.69Q10.84 23.72 10.87 23.58M11.90 23.58Q11.96 23.55 12.06 23.55L12.06 23.74Q11.93 23.74 11.87 23.83L11.87 23.77Q11.87 23.64 11.90 23.58M10.98 24.48L10.89 23.69Q10.89 23.64 10.92 23.61L11.22 24.45L11.11 24.48L10.98 24.48M12.06 23.77L12.06 23.61L12.09 23.61Q12.09 23.69 12.09 23.77L12.06 23.77M11.11 23.61L11.11 23.69L11.11 23.91L11.08 23.91Q11.08 23.77 11.11 23.61M15.41 23.77L15.11 23.74Q15.08 23.64 15.16 23.64L15.19 23.69Q15.44 23.74 15.68 23.74L15.82 23.77L15.82 23.80Q15.65 23.80 15.41 23.77M15.19 23.69L15.16 23.64Q15.22 23.66 15.27 23.66L15.60 23.72L15.60 23.74Q15.38 23.74 15.19 23.69M15.98 23.69L15.84 23.72Q15.84 23.64 15.93 23.64L16.12 23.66Q16.09 23.69 15.98 23.69M16.12 23.66Q16.23 23.66 16.31 23.66Q16.12 23.74 15.87 23.72L15.98 23.69Q16.09 23.69 16.12 23.66M16.31 23.66Q16.39 23.66 16.47 23.66Q16.42 23.69 16.28 23.72L16.14 23.74L15.90 23.74L15.87 23.80L15.82 23.80L15.82 23.77Q15.84 23.77 15.84 23.72L15.87 23.72Q16.14 23.74 16.31 23.66M16.47 23.66L16.99 23.64L16.99 23.66L16.91 23.69L16.72 23.69Q16.63 23.66 16.44 23.70Q16.25 23.74 16.17 23.74L16.14 23.74L16.28 23.72Q16.42 23.69 16.47 23.66M16.91 23.69L16.99 23.66Q16.99 23.66 16.99 23.66Q17.07 23.64 17.07 23.69L17.01 23.80L17.01 23.74Q16.09 23.88 15.14 23.83L15.11 23.74L15.41 23.77Q15.65 23.80 15.82 23.80L15.87 23.80Q16.20 23.80 16.39 23.77Q16.66 23.80 16.91 23.69M12.39 24.40L12.64 23.69L12.66 23.66Q12.66 23.83 12.58 24.12L12.53 24.40L12.39 24.40M16.17 23.74Q16.25 23.74 16.44 23.70Q16.63 23.66 16.74 23.69Q16.63 23.72 16.44 23.74L16.39 23.77Q16.12 23.80 15.87 23.80L15.87 23.77L15.98 23.77Q16.12 23.77 16.17 23.74M16.72 23.69L16.74 23.69L16.91 23.69Q16.66 23.80 16.39 23.77L16.44 23.74Q16.63 23.72 16.72 23.69M11.55 24.26L11.55 24.10Q11.52 23.88 11.55 23.69L11.57 24.02Q11.71 24.02 11.82 23.99L11.87 23.83L11.90 24.18L11.55 24.26M11.90 24.12L11.87 23.83Q11.93 23.74 12.06 23.74L12.06 23.83Q12.06 23.96 12.09 24.02L12.09 24.10L12.06 24.10Q12.01 24.04 11.96 24.07L11.90 24.12M15.87 23.77L15.90 23.74L16.14 23.74L16.17 23.74Q16.12 23.77 15.98 23.77L15.87 23.77M12.06 23.83L12.06 23.77L12.09 23.77Q12.09 23.88 12.09 24.02Q12.06 23.96 12.06 23.83M12.96 23.96L12.99 23.96L12.93 24.21L12.80 24.21Q12.85 24.12 12.96 23.96M10.43 23.99Q10.49 24.02 10.57 24.10L10.62 24.18Q10.79 24.32 10.65 24.32Q10.60 24.29 10.54 24.18L10.49 24.10Q10.46 24.02 10.43 23.99M11.49 24.34L11.47 24.02Q11.52 24.04 11.55 24.10L11.55 24.37L11.49 24.37L11.49 24.34M12.09 24.23L12.09 24.02Q12.12 23.99 12.12 24.07L12.09 24.23M10.92 24.12L10.95 24.04Q10.95 24.23 10.98 24.40Q10.89 24.40 10.85 24.34Q10.81 24.29 10.84 24.23L10.87 24.21Q10.92 24.18 10.92 24.12M11.93 24.40L11.90 24.12Q11.90 24.12 11.93 24.10L11.96 24.07Q12.01 24.04 12.06 24.10L12.15 24.34Q12.09 24.37 11.96 24.40L11.93 24.40M10.62 24.18Q10.68 24.18 10.79 24.15L10.92 24.12Q10.92 24.18 10.87 24.21L10.84 24.23Q10.81 24.29 10.85 24.34Q10.89 24.40 10.98 24.40L10.98 24.45L10.92 24.42Q10.73 24.40 10.65 24.32Q10.79 24.32 10.62 24.18M12.12 24.18L12.12 24.12Q12.15 24.15 12.23 24.15Q12.39 24.18 12.44 24.21L12.39 24.40Q12.04 24.48 11.66 24.45L11.68 24.45Q11.85 24.42 11.93 24.42L12.01 24.42Q12.20 24.40 12.25 24.32Q12.31 24.23 12.12 24.18M10.38 24.23L10.40 24.23Q10.43 24.21 10.51 24.15L10.54 24.18Q10.60 24.29 10.66 24.34Q10.73 24.40 10.92 24.42L10.98 24.45L10.98 24.48Q10.87 24.48 10.68 24.42L10.54 24.40Q10.40 24.40 10.32 24.29Q10.30 24.26 10.38 24.23M11.55 24.48L11.55 24.26Q11.63 24.23 11.79 24.21L11.90 24.18L11.93 24.42Q11.85 24.42 11.68 24.45L11.55 24.48M12.09 24.23L12.12 24.18Q12.12 24.18 12.12 24.18Q12.31 24.23 12.25 24.32Q12.20 24.40 12.01 24.42L11.93 24.42L11.93 24.40Q12.06 24.37 12.15 24.34L12.09 24.23M11.19 24.37L11.17 24.32Q11.25 24.34 11.33 24.37Q11.41 24.40 11.49 24.37L11.55 24.37L11.55 24.40L11.19 24.37M11.33 24.34Q11.41 24.34 11.49 24.34L11.49 24.37Q11.41 24.40 11.33 24.34M11.22 24.42L11.19 24.37Q11.22 24.37 11.25 24.37L11.55 24.40L11.55 24.42L11.41 24.42Q11.28 24.40 11.22 24.42M11.22 24.45L11.22 24.42Q11.28 24.40 11.41 24.42L11.55 24.42L11.55 24.45L11.22 24.45M11.11 24.48L11.22 24.45Q11.30 24.45 11.49 24.45L11.55 24.45L11.55 24.48L11.52 24.48Q11.25 24.48 11.11 24.51"/>
</svg>