<?xml version="1.0" encoding="UTF-8"?>
<svg xmlns="http://www.w3.org/2000/svg" width="32" height="32" viewBox="0 0 32 32">
  <path fill="#498ba7" d="M15.36 16.73L15.08 17.24Q14.43 18.55 14.32 19.36Q14.24 19.56 14.24 20.04L14.24 20.40Q14.87 20.64 15.60 20.64Q16.04 20.64 16.88 20.48L16.63 20.24Q16.31 19.69 16.01 18.82Q15.76 18.11 15.36 16.73M13.40 13.24Q12.61 13.84 12.15 14.71Q11.68 15.58 11.68 16.58Q11.68 17.57 12.15 18.43Q12.61 19.28 13.40 19.88Q13.51 19.42 13.78 18.82Q13.94 18.44 14.40 17.57Q14.89 16.59 15.16 15.96Q15.14 15.88 15.10 15.72Q15.06 15.56 15 15.48Q14.57 14.31 14.08 13.68Q13.70 13.54 13.40 13.24M19.24 21.24Q18.24 21.08 17.88 21Q16.88 21.49 15.76 21.49Q14.43 21.49 13.33 20.83Q12.23 20.18 11.57 19.07Q10.92 17.95 10.92 16.64Q10.92 15.61 11.38 14.63Q11.79 13.73 12.55 13Q12.28 12.92 11.68 12.92Q10.51 12.92 9.62 13.57Q8.61 14.33 8.12 15.88Q8.04 16.24 8.04 16.73Q8.04 18.82 9.06 20.58Q10.08 22.33 11.83 23.36Q13.59 24.40 15.68 24.40Q17.56 24.40 19.24 23.50Q20.88 22.66 21.96 21.16Q20.82 21.40 19.84 21.40Q19.60 21.24 19.24 21.24M15.68 8.92Q13.80 8.92 12.16 9.79Q10.51 10.66 9.48 12.16Q10.43 11.56 11.60 11.56Q12.17 11.56 12.77 11.69Q13.23 11.83 13.56 11.97Q13.61 12.02 13.70 12.06Q13.78 12.10 13.80 12.16Q14.81 11.72 15.76 11.72Q17.10 11.72 18.21 12.39Q19.33 13.05 19.97 14.16Q20.60 15.26 20.60 16.56Q20.60 18.47 19.16 20.04L19.84 20.04Q21.45 20.04 22.32 19.28Q23.11 18.66 23.32 17.52Q23.32 17.32 23.38 16.97Q23.43 16.70 23.41 16.56Q23.38 14.47 22.33 12.71Q21.28 10.96 19.57 9.95Q17.78 8.92 15.68 8.92"/>
</svg>