<?xml version="1.0" encoding="UTF-8"?>
<svg xmlns="http://www.w3.org/2000/svg" width="32" height="32" viewBox="0 0 32 32">
  <path fill="#cc6d2e" d="M10.24 10.96Q13.21 10.91 15.79 12.48Q18.24 13.98 19.68 16.50Q21.12 19.01 21.04 21.76L18.84 21.76Q18.76 19.96 18.16 18.47Q17.56 16.97 16.38 15.72Q15.19 14.47 13.61 13.84Q12.09 13.24 10.32 13.24Q10.24 12.48 10.24 10.96M17.56 21.84L15.36 21.84L15.08 20.48Q14.57 18.93 13.57 18.03Q12.58 17.13 11 16.84Q10.84 16.73 10.40 16.73Q10.30 16.73 10.27 16.69Q10.24 16.64 10.24 16.56L10.24 14.44Q12.83 14.44 14.92 16.16Q17.42 18.41 17.56 21.84M13.23 20.32Q13.23 20.94 12.78 21.39Q12.34 21.84 11.70 21.84Q11.06 21.84 10.64 21.40Q10.21 20.97 10.16 20.32Q10.16 19.66 10.61 19.22Q11.06 18.77 11.70 18.77Q12.34 18.77 12.78 19.22Q13.23 19.66 13.23 20.32"/>
</svg>