<?xml version="1.0" encoding="UTF-8"?>
<svg xmlns="http://www.w3.org/2000/svg" width="32" height="32" viewBox="0 0 32 32">
  <path fill="#cc6d2e" d="M9.02 11.86L12.09 10.96L10.05 13.46L9.02 11.86M6.87 10.96L12.09 10.96L10.62 12.21L10.05 13.46L9.37 13.46L9.37 19.23L10.38 19.23L9.15 19.80L8.23 21.73L6.87 21.73L6.87 10.96M7.33 20.48L10.38 19.23L8.23 21.73L7.33 20.48M11.06 13.46L13.23 10.96L13.91 12.54L11.06 13.46M13.23 12.10L13.23 10.96L19.46 10.96L19.46 13.46L11.06 13.46L13.23 12.10M17.07 20.26L20.03 19.23L17.86 21.73L17.07 20.26M11.63 19.23L20.03 19.23L18.21 20.26L17.86 21.73L11.63 21.73L11.63 19.23M18.32 10.96L23.87 8.46L12.77 21.73L7.22 24.34L18.32 10.96M20.71 13.57L22.86 10.96L22.75 13L20.71 13.57M22.86 10.96L24.22 10.96L24.22 21.73L18.89 21.73L20.47 20.37L21.04 19.23L21.72 19.23L21.72 13.57L20.71 13.57L21.83 12.54L22.86 10.96M18.89 21.73L21.04 19.23L21.61 20.94"/>
</svg>