<?xml version="1.0" encoding="UTF-8"?>
<svg xmlns="http://www.w3.org/2000/svg" width="32" height="32" viewBox="0 0 32 32">
  <path fill="#498ba7" d="M12.06 16.78L12.55 17.08L15.60 18.88L15.68 18.88Q18.76 17 20.36 16.16L20.36 16.07Q19.79 15.04 19 13.84L15.68 8.32L15 9.44Q14.29 10.61 14 11.20Q13.78 11.59 13.30 12.36Q12.83 13.14 12.64 13.52Q11.60 15.20 11.08 15.96L11.08 16.07Q11.33 16.35 12.06 16.78M16.20 20.32Q16.12 20.34 15.90 20.48L15.60 20.64Q15.27 20.43 14.59 20.04Q13.91 19.66 13.55 19.46Q13.18 19.26 12.42 18.78Q11.66 18.30 11.28 18.09Q11.22 18.06 11.08 18L10.92 17.92L11.60 18.88Q12.80 20.56 13.48 21.40Q13.80 21.92 14.53 22.90Q15.25 23.88 15.60 24.40L15.60 24.42Q15.63 24.48 15.68 24.48L18.84 20.04Q19.08 19.72 19.60 19Q20.12 18.28 20.36 17.92Q18.02 19.17 16.20 20.32"/>
</svg>