<?xml version="1.0" encoding="UTF-8"?>
<svg xmlns="http://www.w3.org/2000/svg" width="32" height="32" viewBox="0 0 32 32">
  <path fill="#9068b0" d="M15.95 23.04L15.84 23.04Q15.74 23.04 15.52 22.87L15.36 22.76Q12.80 20.56 11.44 19.45L11.36 19.39L11.28 19.36L7.68 19.36Q7.25 19.36 7.11 18.96L7.11 14.12Q7.11 13.79 7.29 13.61Q7.47 13.44 7.79 13.44L11.36 13.44Q11.52 13.44 11.52 13.33L15.44 9.93Q15.68 9.74 15.93 9.75Q16.17 9.76 16.36 10.04Q16.44 10.12 16.44 10.36L16.44 22.36Q16.44 22.82 16.12 22.96L16.04 22.96L15.95 23.04M24.09 16.48L24.11 16.48Q24.11 17 24 17.24Q23.90 18.79 23.24 20.32Q22.70 21.68 21.88 22.60Q21.77 22.82 21.39 22.96Q21.04 22.96 20.80 22.68Q20.66 22.57 20.66 22.40Q20.66 22.22 20.80 22.08Q20.82 22 20.96 21.84Q21.09 21.68 21.12 21.60Q22.40 19.80 22.64 17.76Q23.16 13.90 20.80 10.88Q20.47 10.42 20.80 10.12Q20.99 9.84 21.27 9.84Q21.56 9.84 21.80 10.12Q22.84 11.42 23.24 12.56Q23.90 14.09 24 15.80L24 16.40Q24.06 16.40 24.09 16.45L24.09 16.48M21.80 16.32Q21.80 18.88 20.36 21Q20.25 21.19 19.84 21.32Q19.52 21.32 19.24 21.08Q19.14 20.94 19.14 20.77Q19.14 20.59 19.24 20.40Q19.24 20.34 19.30 20.30Q19.35 20.26 19.33 20.24Q20.28 18.96 20.52 17.24Q20.90 14.60 19.24 12.32Q19.08 11.97 19.08 11.80Q19.16 11.59 19.24 11.48Q19.33 11.37 19.52 11.29Q19.92 11.15 20.18 11.52Q20.44 11.88 20.96 12.76Q21.72 14.41 21.72 15.72Q21.80 16.07 21.80 16.32M19.44 16.40Q19.44 18.09 18.56 19.28Q18.46 19.53 18.22 19.60Q17.99 19.66 17.75 19.53Q17.50 19.39 17.44 19.16Q17.37 18.93 17.56 18.68Q17.99 18.03 18.16 17Q18.27 16.26 18.10 15.52Q17.94 14.77 17.56 14.12Q17.42 13.84 17.48 13.61Q17.53 13.38 17.72 13.26Q17.91 13.14 18.18 13.19Q18.46 13.24 18.56 13.44Q18.95 14.01 19.24 15.04L19.30 15.26Q19.44 16.05 19.44 16.40"/>
</svg>