<?xml version="1.0" encoding="UTF-8"?>
<svg xmlns="http://www.w3.org/2000/svg" width="32" height="32" viewBox="0 0 32 32">
  <path fill="#9068b0" d="M20.12 17.41Q20.74 17.41 21.19 16.97Q21.64 16.54 21.64 15.90Q21.64 15.26 21.19 14.81Q20.74 14.36 20.10 14.36Q19.46 14.36 19.01 14.81Q18.56 15.26 18.56 15.90Q18.56 16.54 19.01 16.97Q19.46 17.41 20.12 17.41M23.68 12.76L10.68 12.76L10.68 23.28L23.68 23.28L23.68 12.76M11.28 21.16L11.28 13.33L23.08 13.33L23.08 22.52L20.03 19.04L18.16 21.24L14.40 17.24L11.28 21.16M19.60 10.96L19.60 9.52L7.52 9.52L7.52 18.68L9.15 18.68L9.15 10.96"/>
</svg>