<?xml version="1.0" encoding="UTF-8"?>
<svg xmlns="http://www.w3.org/2000/svg" width="32" height="32" viewBox="0 0 32 32">
  <path fill="#498ba7" d="M15.60 9.16L15.60 15.56Q15.65 15.56 15.67 15.54Q15.68 15.53 15.68 15.48L15.74 15.45Q15.76 15.42 15.76 15.37L15.82 15.37Q15.84 15.34 15.84 15.28Q15.93 15.28 15.94 15.28Q15.95 15.28 15.95 15.20Q16.01 15.20 16.02 15.19Q16.04 15.18 16.04 15.12Q16.12 15.12 16.12 14.96L16.12 9.76Q16.12 9.52 16.36 9.52L16.88 9.52Q17.07 9.52 17.10 9.55Q17.12 9.57 17.12 9.76L17.12 14.01L17.20 14.01Q17.29 14.01 17.30 14.01Q17.31 14.01 17.31 13.92L17.31 13.84L17.48 13.68Q17.53 13.63 17.50 13.57L17.48 13.52L17.48 10.28L18.40 10.28L18.40 12.65Q18.46 12.65 18.50 12.61Q18.54 12.56 18.56 12.56L19.52 11.64Q19.60 11.64 19.60 11.48L19.60 10.20Q19.71 10.14 19.92 10.17L20.12 10.20L20.31 10.17Q20.55 10.14 20.60 10.20Q20.66 10.25 20.63 10.52L20.60 10.72L20.60 11.12L20.63 11.20L20.71 11.29L20.66 11.29L21.48 11.29Q21.56 11.29 21.60 11.33Q21.64 11.37 21.64 11.48L21.64 12.32L21.39 12.32Q21.42 12.27 21.50 12.27Q21.58 12.27 21.64 12.24L20.44 12.24Q20.39 12.24 20.37 12.25Q20.36 12.27 20.36 12.32L20.01 12.65Q19.49 13.14 19.24 13.44Q19.24 13.52 19.44 13.52L21.48 13.52Q21.58 13.52 21.61 13.53Q21.64 13.54 21.64 13.68L21.64 14.28Q21.64 14.41 21.60 14.47Q21.56 14.52 21.39 14.52L18.32 14.52L18.27 14.52Q18.21 14.50 18.18 14.51Q18.16 14.52 18.16 14.60L17.12 15.64L21.64 15.64L21.64 16.40Q21.64 16.51 21.58 16.54Q21.53 16.56 21.39 16.56L16.04 16.56Q15.95 16.56 15.95 16.58Q15.95 16.59 15.95 16.64Q15.87 16.64 15.86 16.66Q15.84 16.67 15.84 16.73Q15.79 16.73 15.78 16.74Q15.76 16.75 15.76 16.84Q15.71 16.84 15.70 16.84Q15.68 16.84 15.68 16.92Q15.63 16.92 15.61 16.93Q15.60 16.94 15.60 17Q15.55 17 15.53 17.01Q15.52 17.03 15.52 17.08Q15.46 17.08 15.45 17.09Q15.44 17.11 15.46 17.16Q15.49 17.22 15.55 17.19L15.60 17.16L21.96 17.16Q22.05 17.16 22.06 17.18Q22.07 17.19 22.07 17.24L22.07 17.84Q22.07 18.03 22.03 18.07Q21.99 18.11 21.80 18.11L14.24 18.11L14.16 18.20Q14.10 18.28 13.98 18.40Q13.86 18.52 13.80 18.60Q13.86 18.66 14 18.63L14.08 18.60L22.48 18.60Q22.56 18.60 22.60 18.63Q22.64 18.66 22.64 18.79L22.64 19.64L12.96 19.64Q12.80 19.64 12.72 19.72L11.76 20.64Q11.76 20.70 11.87 20.72L11.96 20.72L23.52 20.72Q23.62 20.72 23.65 20.75Q23.68 20.78 23.68 20.92L23.68 22.52Q23.68 22.71 23.65 22.74Q23.62 22.76 23.41 22.76L10.92 22.76Q10.87 22.82 10.89 22.90L10.92 22.96L10.92 24.89L8.96 24.89Q8.85 24.89 8.83 24.85Q8.80 24.80 8.80 24.72L8.80 22.76Q8.75 22.71 8.70 22.74Q8.66 22.76 8.64 22.76L6.92 22.76Q6.81 22.76 6.79 22.75Q6.76 22.74 6.76 22.60L6.76 20.92Q6.76 20.78 6.80 20.75Q6.84 20.72 6.92 20.72L8.80 20.72L6.76 20.72Q6.81 20.67 6.86 20.70Q6.90 20.72 6.92 20.72L8.88 20.72Q8.96 20.64 8.88 20.56L8.88 8.24Q8.88 8.10 8.91 8.09Q8.94 8.08 9.04 8.08L10.68 8.08Q10.87 8.08 10.89 8.10Q10.92 8.13 10.92 8.32L10.92 20.04Q11.03 19.99 11.19 19.80L11.52 19.45Q11.79 19.15 11.96 19.04Q12.04 19.04 12.04 18.88L12.04 9.16Q12.15 9.11 12.44 9.16L12.64 9.16L12.80 9.16Q12.99 9.11 13.04 9.16Q13.10 9.22 13.07 9.41L13.04 9.60L13.04 17.84Q13.72 17.16 14.16 16.84Q14.21 16.78 14.24 16.70L14.24 16.64L14.24 9.16L15.16 9.16Q15.25 9.16 15.26 9.18Q15.27 9.19 15.27 9.25Q15.46 9.14 15.55 9.16L15.60 9.16Q15.52 11.29 15.52 15.37L15.52 15.56Q15.57 15.50 15.55 15.37L15.52 15.28L15.52 9.36Q15.55 9.36 15.55 9.29Q15.55 9.22 15.60 9.16M23.92 22.76L11.36 22.76Q11.41 22.71 11.52 22.76L11.60 22.76L23.84 22.76Q24.03 22.76 24.07 22.74Q24.11 22.71 24.11 22.52L24.11 20.92Q24.11 20.78 24.09 20.75Q24.06 20.72 23.92 20.72L12.36 20.72L12.31 20.75Q12.25 20.75 12.23 20.74Q12.20 20.72 12.20 20.64L24 20.64Q24.09 20.64 24.10 20.67Q24.11 20.70 24.11 20.81L24.11 22.60Q24.11 22.74 24.09 22.75Q24.06 22.76 23.92 22.76M11.36 8.08L11.36 19.88Q11.30 19.83 11.33 19.72L11.36 19.64L11.36 8.16Q11.36 7.97 11.32 7.93Q11.28 7.89 11.08 7.89L9.48 7.89Q9.34 7.89 9.33 7.91Q9.32 7.94 9.32 8.08L9.32 8Q9.24 7.91 9.25 7.90Q9.26 7.89 9.40 7.89L11.19 7.89Q11.28 7.89 11.32 7.93Q11.36 7.97 11.36 8.08M17.72 13.44Q17.67 13.38 17.69 13.30L17.72 13.24L17.72 9.16Q17.72 8.97 17.69 8.95Q17.67 8.92 17.48 8.92L16.96 8.92Q16.72 8.92 16.72 9.16L16.72 14.36Q16.72 14.52 16.61 14.52Q16.72 14.44 16.72 14.28L16.72 9Q16.72 8.87 16.73 8.85Q16.74 8.84 16.88 8.84L17.64 8.84Q17.72 8.84 17.76 8.87Q17.80 8.89 17.80 9L17.80 13.08Q17.72 13.24 17.72 13.44M15.25 17.41L15.27 17.43Q15.33 17.35 15.44 17.41L15.52 17.41L22.84 17.41Q23.03 17.43 23.05 17.39Q23.08 17.35 23.08 17.16L23.08 16.56Q23.08 16.48 23.07 16.45Q23.05 16.43 23 16.48L16.44 16.48L23 16.48Q23.13 16.48 23.15 16.51Q23.16 16.54 23.16 16.64L23.16 17.32Q23.16 17.43 23.13 17.47Q23.11 17.52 23 17.52L15.52 17.52Q15.36 17.41 15.25 17.41M12.44 9.06L12.44 9Q12.50 9.06 12.47 9.10Q12.44 9.14 12.44 9.16L12.44 18.68Q12.44 18.88 12.36 18.88L12.36 9.16Q12.42 9.11 12.44 9.06M23 19.56L23 18.68Q23 18.60 22.97 18.56Q22.94 18.52 22.84 18.52L14.16 18.52L22.64 18.52Q22.84 18.52 22.88 18.55Q22.92 18.58 22.92 18.79L22.92 19.47Q22.97 19.47 23.01 19.51Q23.05 19.56 23 19.56M14.59 9L14.59 16.48Q14.59 16.64 14.48 16.64L14.48 9.08Q14.54 9.08 14.54 9.04Q14.54 9 14.59 9M19.52 13.19L19.52 13.24Q19.52 13.16 19.68 13.16L22.75 13.16Q23 13.16 23 12.92L23 12.32Q23 12.18 22.97 12.17Q22.94 12.16 22.84 12.16L20.80 12.16Q20.60 12.16 20.60 12.08L23.08 12.08Q23.13 12.08 23.16 12.10L23.16 12.16L23.16 13.16L19.92 13.16Q19.73 13.16 19.65 13.18Q19.57 13.19 19.52 13.24L19.52 13.19M15.60 9L15.60 9.16Q15.55 9.22 15.57 9.30L15.60 9.36L15.60 15.37Q15.46 12.35 15.60 9.16Q15.55 9.16 15.55 9.11Q15.55 9.06 15.60 9M17.40 15.28Q17.45 15.23 17.50 15.26L17.56 15.28L22.75 15.28Q22.89 15.28 22.94 15.26Q23 15.23 23 15.12L23 14.36Q23.08 14.36 23.08 14.52L23.08 15.28Q23.08 15.37 23.05 15.42Q23.03 15.48 22.92 15.48Q21.67 15.34 20.14 15.31Q19.24 15.28 17.40 15.28M7.11 22.60L7.11 20.64L9.15 20.64L7.28 20.64Q7.14 20.64 7.13 20.67Q7.11 20.70 7.11 20.81L7.11 22.52Q7.11 22.66 7.13 22.67Q7.14 22.68 7.28 22.68L9.15 22.68L7.20 22.68Q7.11 22.68 7.11 22.67Q7.11 22.66 7.11 22.60M18.84 9L18.84 9.08Q18.84 9.06 18.81 9.02Q18.78 8.97 18.84 9M23 13.16L19.60 13.16L23 13.16M19.84 9L19.84 11.29Q19.79 11.29 19.82 11.23L19.84 11.12L19.84 8.92Q19.90 8.92 19.87 8.97L19.84 9M22.64 11.04L21.64 11.04Q21.64 10.96 21.72 10.96L22.92 10.96Q22.86 11.01 22.78 11.01Q22.70 11.01 22.64 11.04M20.60 12.16L23 12.16L20.60 12.16M11.28 24.91L11.28 24.89L11.28 22.76L11.28 24.72Q11.33 24.80 11.33 24.82Q11.33 24.83 11.28 24.91M23.03 10.72L23 11.04L23 10.20Q23 10.12 22.97 10.08Q22.94 10.04 22.84 10.04L22.02 10.04L23 10.04Q23.05 10.25 23.03 10.72M20.96 9Q21.01 9 20.99 9.08L20.96 9.16L20.96 10.28L20.93 10.36L20.88 10.44Q20.88 10.12 20.93 9.60Q20.96 9.19 20.96 9M17.12 15.64Q17.12 15.58 17.14 15.57Q17.15 15.56 17.20 15.56L17.18 15.56Q17.12 15.58 17.12 15.64M16.52 16.16Q16.52 16.07 16.54 16.06Q16.55 16.05 16.63 16.05L16.61 16.10Q16.58 16.16 16.52 16.16M17.04 15.69L17.04 15.72Q17.04 15.69 17.04 15.67L17.04 15.72L17.04 15.69M15.65 15.58L15.68 15.56Q15.68 15.58 15.68 15.61L15.68 15.56L15.65 15.58M17.20 15.48Q17.20 15.39 17.25 15.39Q17.29 15.39 17.20 15.48Q17.29 15.39 17.29 15.43Q17.29 15.48 17.20 15.48M16.80 15.88Q16.80 15.83 16.82 15.83Q16.85 15.83 16.80 15.88Q16.85 15.83 16.85 15.86Q16.85 15.88 16.80 15.88M16.14 15.09L16.20 15.04Q16.20 15.09 16.17 15.09Q16.14 15.09 16.20 15.04L16.14 15.09M16.31 14.93L16.36 14.88Q16.36 14.93 16.33 14.93Q16.31 14.93 16.36 14.88L16.31 14.93M16.44 16.24M16.36 16.35L16.36 16.40Q16.36 16.37 16.36 16.35L16.36 16.40L16.36 16.35M18.08 13.14L18.16 13.08Q18.16 13.14 18.12 13.14Q18.08 13.14 18.16 13.08L18.08 13.14M15.76 15.48M15.82 15.37L15.84 15.37Q15.84 15.39 15.84 15.42L15.84 15.37L15.82 15.37M14.51 9.16L14.59 9.16Q14.54 9.16 14.51 9.16M23 10.04M14.59 18.09M16.96 15.72M16.96 15.77L16.96 15.80Q16.96 15.80 16.96 15.77L16.96 15.80L16.96 15.77M14.68 18.09M16.91 15.80L16.88 15.80Q16.88 15.80 16.91 15.80L16.88 15.80L16.91 15.80M14.68 18M16.80 15.88M16.80 15.94L16.80 15.96Q16.80 15.96 16.80 15.94L16.80 15.96L16.80 15.94M16.74 15.96L16.72 15.96Q16.72 15.96 16.74 15.96L16.72 15.96L16.74 15.96M14.73 18L14.68 18Q14.70 18 14.73 18L14.68 18L14.73 18M16.72 15.99L16.72 16.05Q16.72 16.02 16.72 15.99L16.72 16.05L16.72 15.99M16.69 16.05L16.61 16.05Q16.66 16.05 16.69 16.05L16.61 16.05L16.69 16.05M14.76 17.95L14.76 18Q14.76 17.98 14.76 17.95L14.76 18L14.76 17.95M14.78 17.92L14.76 17.92Q14.76 17.92 14.78 17.92L14.76 17.92L14.78 17.92M16.52 16.16L16.52 16.24Q16.52 16.21 16.52 16.16L16.52 16.24L16.52 16.16M14.89 17.84L14.84 17.84Q14.87 17.84 14.89 17.84L14.84 17.84L14.89 17.84M18.76 12.46L18.76 12.40Q18.76 12.43 18.76 12.46L18.76 12.40L18.76 12.46M15.27 17.52M15.16 17.52M15.16 17.57L15.16 17.60Q15.16 17.57 15.16 17.57L15.16 17.60L15.16 17.57M15.08 17.60M15.06 17.68L15 17.68Q15.03 17.68 15.06 17.68L15 17.68L15.06 17.68M15 17.68M15 17.73L15 17.76Q15 17.73 15 17.73L15 17.76L15 17.73M14.95 17.76L14.92 17.76Q14.95 17.76 14.95 17.76L14.92 17.76L14.95 17.76M17.80 13.44M17.86 13.38L17.88 13.33Q17.88 13.35 17.88 13.35L17.86 13.38L17.88 13.33L17.86 13.38M17.91 13.33L17.99 13.24Q17.94 13.30 17.91 13.33L17.99 13.24L17.91 13.33M17.99 13.24M17.99 13.24M18.56 12.67M18.08 13.16M18.16 13.08M18.16 13.05L18.16 13Q18.16 13 18.16 13L18.16 13.05L18.16 13L18.16 13.05M18.24 13M18.29 12.95L18.32 12.92Q18.32 12.92 18.29 12.95L18.32 12.92L18.29 12.95M18.32 12.92M18.35 12.89L18.40 12.84Q18.40 12.84 18.40 12.84L18.35 12.89L18.40 12.84L18.35 12.89M18.40 12.84M18.46 12.78L18.48 12.76Q18.48 12.76 18.48 12.76L18.46 12.78L18.48 12.76L18.46 12.78M18.48 12.76M18.51 12.73L18.56 12.67Q18.54 12.70 18.51 12.73L18.56 12.67L18.51 12.73M17.07 15.64L17.04 15.64Q17.07 15.64 17.07 15.64L17.04 15.64L17.07 15.64M15.74 15.50L15.76 15.48Q15.76 15.48 15.76 15.48L15.74 15.50L15.76 15.48L15.74 15.50M17.20 15.48M17.31 15.39M15.90 15.34L15.95 15.28Q15.93 15.31 15.93 15.31L15.90 15.34L15.95 15.28L15.90 15.34M15.95 15.28M16.04 15.20M16.12 15.15L16.12 15.12Q16.12 15.15 16.12 15.15L16.12 15.12L16.12 15.15M16.20 15.04M16.20 15.04M16.36 14.88M16.39 14.85L16.44 14.80Q16.42 14.82 16.39 14.85L16.44 14.80L16.39 14.85M16.44 14.80M16.50 14.74L16.52 14.71Q16.52 14.71 16.52 14.71L16.50 14.74L16.52 14.71L16.50 14.74M16.52 14.71M16.63 14.60M18.76 12.48"/>
</svg>