<?xml version="1.0" encoding="UTF-8"?>
<svg xmlns="http://www.w3.org/2000/svg" width="32" height="32" viewBox="0 0 32 32">
  <path fill="#7fae42" d="M9.04 15.96Q9.04 13.98 10.13 12.29Q11.14 10.69 12.78 9.84Q14.43 9 16.14 9.22Q18.02 9.44 19.44 10.88L17.56 13Q16.33 12.18 15.33 12.16Q14.43 12.10 13.78 12.70Q13.18 13.24 12.88 14.20Q12.61 15.09 12.64 16.14Q12.66 17.19 13.02 18.09Q13.37 18.98 14 19.45Q14.70 19.99 15.57 19.85Q16.58 19.72 17.72 18.77L19.60 20.92Q18.18 22.52 16.31 22.85Q14.57 23.12 12.88 22.28Q11.19 21.43 10.16 19.77Q9.04 18.03 9.04 15.96M23 14.28L24.20 17.92L23.52 17.92L23.24 17.08L22.07 17.08L21.80 17.92L21.12 17.92L22.32 14.28L23 14.28M22.24 16.48L23.08 16.48L22.64 15.12L22.24 16.48M15.38 14.28L15.41 14.28L16.01 14.28L16.01 16.26Q16.01 16.73 16.04 16.86Q16.06 17.11 16.21 17.24Q16.36 17.38 16.61 17.38Q16.80 17.38 16.93 17.28Q17.07 17.19 17.12 17.03Q17.18 16.86 17.18 16.32L17.18 14.28L17.78 14.28L17.78 16.21Q17.78 16.94 17.71 17.27Q17.64 17.60 17.35 17.80Q17.07 18 16.62 18Q16.17 18 15.90 17.83Q15.63 17.65 15.50 17.34Q15.38 17.03 15.38 16.24L15.38 14.28M18.40 17.92L18.40 14.28L19.52 14.28Q19.92 14.28 20.14 14.37Q20.36 14.47 20.54 14.69Q20.71 14.90 20.82 15.27Q20.93 15.64 20.93 16.13Q20.93 16.62 20.81 16.97Q20.69 17.32 20.54 17.53Q20.39 17.73 20.14 17.83Q19.90 17.92 19.54 17.92L18.40 17.92M19.27 14.90L19.03 14.90L19.03 17.30L19.46 17.30Q19.76 17.30 19.90 17.26Q20.03 17.22 20.12 17.11Q20.20 17 20.25 16.75Q20.31 16.51 20.31 16.10Q20.31 15.69 20.25 15.49Q20.20 15.28 20.06 15.14Q19.92 14.99 19.79 14.94Q19.65 14.90 19.27 14.90"/>
</svg>