<?xml version="1.0" encoding="UTF-8"?>
<svg xmlns="http://www.w3.org/2000/svg" width="32" height="32" viewBox="0 0 32 32">
  <path fill="#7fae42" d="M14.29 10.72L14.27 10.72Q13.86 10.85 13.48 11.10Q13.37 11.15 13.15 11.31Q12.83 11.56 12.55 11.91L12.36 12.16Q12.09 12.59 12.01 12.95Q11.96 13.11 11.93 13.33Q11.87 13.73 11.93 14.17Q11.96 14.44 12.01 14.71Q12.12 15.12 12.36 15.50L12.55 15.75Q12.80 16.05 13.18 16.32L13.59 16.62Q13.89 16.84 14.35 17.03L15 17.30L15.30 17.41Q15.68 17.54 15.82 17.60L15.87 17.65Q16.74 17.90 17.12 18.58Q17.29 18.90 17.29 19.17L17.29 19.28Q17.34 19.64 17.26 19.80Q16.93 20.45 16.42 20.64Q16.09 20.75 15.25 20.72Q14.68 20.59 14.35 20.24Q14.05 19.91 13.86 19.31L13.83 19.20Q13.80 19.01 13.68 18.89Q13.56 18.77 13.37 18.77L12.01 18.77Q11.82 18.77 11.70 18.89Q11.57 19.01 11.60 19.20Q11.60 19.61 11.70 19.99Q11.79 20.37 12.01 20.81Q12.15 21.02 12.31 21.23Q12.47 21.43 12.93 21.79Q13.15 21.95 13.32 22.03Q13.56 22.17 14.10 22.38L14.29 22.44Q14.48 22.49 14.61 22.62Q14.73 22.74 14.73 22.93L14.73 23.61Q14.73 23.80 14.85 23.92Q14.97 24.04 15.16 24.04L16.09 24.04Q16.28 24.04 16.40 23.92Q16.52 23.80 16.52 23.61L16.52 22.93Q16.52 22.74 16.65 22.59Q16.77 22.44 16.93 22.41Q17.04 22.38 17.23 22.30Q17.72 22.11 18.02 21.95Q18.59 21.60 19.11 20.86Q19.41 20.43 19.49 20.10Q19.57 19.91 19.60 19.64Q19.63 19.20 19.60 18.79Q19.57 18.52 19.49 18.33Q19.38 17.90 19.14 17.54Q18.78 16.97 17.91 16.35Q17.53 16.10 17.15 15.91Q16.85 15.77 16.23 15.53L15.63 15.31Q15.06 15.09 14.87 14.93Q14.54 14.66 14.39 14.40Q14.24 14.14 14.21 13.87L14.21 13.84Q14.21 13.54 14.25 13.33Q14.29 13.11 14.51 12.78Q14.68 12.56 14.92 12.51Q15.22 12.40 15.49 12.40Q15.95 12.37 16.18 12.42Q16.42 12.46 16.70 12.69Q16.99 12.92 17.12 13.19Q17.29 13.54 17.29 13.87Q17.31 14.06 17.44 14.18Q17.56 14.31 17.72 14.31L19.08 14.31Q19.27 14.31 19.39 14.17Q19.52 14.03 19.49 13.87Q19.46 13.54 19.39 13.23Q19.33 12.92 19.11 12.43Q19.03 12.24 18.92 12.08Q18.65 11.64 18.37 11.40Q18.24 11.26 18.10 11.15Q17.97 11.04 17.56 10.82L17.34 10.72L17.12 10.61Q16.93 10.52 16.81 10.38Q16.69 10.23 16.69 10.06L16.69 9.19Q16.69 9 16.57 8.88Q16.44 8.76 16.28 8.76L15.33 8.76Q15.14 8.76 15.02 8.88Q14.89 9 14.89 9.19L14.89 10.14Q14.89 10.44 14.51 10.61Q14.46 10.66 14.29 10.72"/>
</svg>