<?xml version="1.0" encoding="UTF-8"?>
<svg xmlns="http://www.w3.org/2000/svg" width="32" height="32" viewBox="0 0 32 32">
  <path fill="#b8383d" d="M24.11 19.72Q23.87 18.44 24 16.84Q24.11 16.32 24.11 16.05Q24.14 15.61 24 15.20Q23.84 14.69 23.68 13.68L23.65 13.52Q23.49 12.46 23.38 11.91Q23.19 10.99 22.92 10.28Q22.75 9.98 22.62 9.84Q22.43 9.68 22.16 9.68Q21.64 9.68 21.64 10.20Q21.67 10.58 21.80 11.38Q21.94 12.18 21.96 12.56Q22.02 12.86 22.14 13.42Q22.26 13.98 22.32 14.28L22.32 14.60Q22.07 14.60 21.96 14.52L21.69 14.33Q21.23 14.01 21.04 13.76Q20.41 12.86 20.03 11.97L19.63 11.04Q18.92 9.33 18.48 8.59Q18.13 8 17.59 7.75Q17.15 7.56 16.44 7.56Q16.12 7.56 16.12 7.89L16.17 8.16Q16.25 8.48 16.36 8.68Q16.74 9.36 17.46 10.76Q18.18 12.16 18.56 12.84Q18.78 13.16 19.27 13.82L19.44 14.01Q19.68 14.39 19.63 14.58Q19.57 14.77 19.16 14.96L19.08 14.96L19 15.04Q18.13 15.26 17.40 14.52Q16.69 13.98 15.84 13.84Q15.74 13.84 15.44 13.80Q15.14 13.76 15 13.76Q13.97 13.68 13.26 13.73Q12.34 13.82 11.52 14.12Q10.32 14.52 9.48 15.50Q8.77 16.35 8.28 17.68Q8.12 18.20 7.79 19.36Q7.68 19.20 7.60 19.12Q7.44 18.96 7.44 18.79L7.33 18.85Q7.17 19.01 7.11 19.12L7.11 19.56Q7.11 19.88 7.28 20.24Q8.26 22.60 8.96 24.64Q9.24 25.16 9.72 25.16Q11.17 25.29 12.20 25.08L13.72 24.80Q13.40 24.48 13.23 24.40Q13.23 24.34 13.27 24.30Q13.32 24.26 13.32 24.21L14.48 24.48Q16.63 25.27 18.67 25.16Q19.14 25.16 19.24 24.80L19.52 24.32Q19.71 23.50 20.36 22.52L20.39 22.47Q20.69 22.06 20.80 21.95Q20.90 21.84 21.05 21.84Q21.20 21.84 21.56 21.95L21.80 22Q22.56 22.28 23.19 21.94Q23.81 21.60 24 20.81Q24.11 20.48 24.11 19.72M23.16 18.68Q22.92 18.96 22.84 18.96Q21.42 19.09 20.60 18.68Q20.41 18.63 20.12 18.30L19.92 18.11Q20.44 17.92 20.60 17.84Q21.67 17.73 22.75 18.28Q22.78 18.28 22.86 18.30L22.92 18.36Q23.16 18.60 23.16 18.68"/>
</svg>