<?xml version="1.0" encoding="UTF-8"?>
<svg xmlns="http://www.w3.org/2000/svg" width="32" height="32" viewBox="0 0 32 32">
  <path fill="#7fae42" d="M17.37 18.68L17.40 18.77Q17.40 18.98 17.35 19.46Q17.31 19.94 17.31 20.15Q17.12 22.85 17.12 24.23L17.12 24.80Q17.12 24.89 17.11 24.90Q17.10 24.91 17.04 24.91L14.48 24.40Q14.29 24.34 13.90 24.30Q13.51 24.26 13.32 24.23L13.10 24.18Q12.47 24.04 12.20 24.04Q11.66 23.96 10.54 23.76Q9.43 23.55 8.88 23.44Q8.53 23.31 7.71 23.15L7.52 23.12Q7.44 23.12 7.44 22.96Q7.60 22.08 7.77 20.26L7.79 20.04Q7.79 19.96 7.83 19.76Q7.88 19.56 7.88 19.47Q7.90 19.42 7.90 19.31Q7.90 19.20 7.96 19.12Q7.98 18.90 8.04 18.45Q8.09 18 8.12 17.76Q8.28 16.92 8.28 16.40Q8.61 14.28 8.72 13Q8.72 12.67 9.04 12.48L10.60 11.99Q10.65 11.99 10.70 11.93Q10.76 11.86 10.76 11.72Q10.98 10.50 11.87 9.16Q12.42 8.35 13.12 8Q13.32 8 13.61 7.95Q13.91 7.91 14.08 7.91Q14.78 7.91 15.08 8.32L15.16 8.40L15.25 8.40Q15.60 8.40 15.89 8.54Q16.17 8.68 16.36 8.92Q16.63 9.27 16.96 9.95Q16.96 10.04 17.12 10.04L17.56 9.84Q17.69 9.84 17.71 9.87Q17.72 9.90 17.72 10.04Q17.72 10.42 17.68 11.14Q17.64 11.86 17.64 12.24Q17.59 12.70 17.54 13.68Q17.50 14.66 17.48 15.12Q17.42 15.72 17.38 16.86Q17.34 18 17.29 18.60L17.37 18.68M11.08 18.36Q11.44 18.68 11.68 18.88Q12.17 19.17 12.28 19.64Q12.36 19.96 12.23 20.19Q12.09 20.43 11.76 20.48L11.36 20.48Q10.73 20.37 10.08 19.88Q10.02 19.83 10 19.84Q9.97 19.85 9.92 19.96Q9.72 20.64 9.59 21Q9.45 21.35 9.72 21.51Q10.89 22.38 12.20 22.28Q12.91 22.19 13.40 21.83Q13.89 21.46 14.14 20.82Q14.40 20.18 14.40 19.56Q14.40 18.93 14 18.36Q14 18.30 13.95 18.26Q13.91 18.22 13.91 18.20Q13.72 17.90 13.42 17.65Q13.23 17.52 12.80 17.24Q12.64 17.16 12.28 16.84Q12.09 16.48 12.23 16.07Q12.36 15.67 12.80 15.56Q13.56 15.45 14.40 15.72Q14.46 15.77 14.51 15.73Q14.57 15.69 14.57 15.64L15.08 14.12Q15.16 13.92 15.14 13.87Q15.11 13.82 14.92 13.76Q14.13 13.54 13.12 13.68Q12.04 13.87 11.33 14.55Q10.57 15.31 10.51 16.40Q10.38 16.94 10.54 17.45Q10.70 17.95 11.08 18.36M14.48 8.57Q14.43 8.51 14.40 8.51L14.32 8.48Q14.21 8.43 13.97 8.48L13.72 8.48Q13.04 8.73 12.55 9.36Q11.82 10.17 11.36 11.72Q11.36 11.78 11.37 11.79Q11.38 11.80 11.44 11.80Q11.66 11.78 12.04 11.64Q12.42 11.50 12.64 11.48Q12.69 11.48 12.69 11.42L12.72 11.40Q12.72 11.29 12.76 11.12Q12.80 10.96 12.80 10.88Q13.10 10.06 13.42 9.57Q13.86 8.92 14.48 8.57M15.08 10.36Q15.08 9.95 14.92 9.25Q14.87 9.14 14.84 9.12Q14.81 9.11 14.76 9.16Q14.35 9.38 14.24 9.60Q13.75 10.20 13.48 11.04L13.48 11.12L13.56 11.12Q13.80 11.07 14.29 10.93L14.76 10.80Q15 10.72 15.04 10.66Q15.08 10.61 15.08 10.36M15.76 10.52Q15.95 10.44 16.44 10.28L16.44 10.20Q16.31 9.63 15.95 9.25Q15.76 9.08 15.60 9L15.52 9L15.52 9.08Q15.52 9.14 15.56 9.26Q15.60 9.38 15.60 9.44Q15.68 9.68 15.68 10.36Q15.68 10.52 15.76 10.52M23.32 20.92L23.60 21.84L23.84 23.64L23.84 23.72L23.76 23.80Q23.24 23.88 22.26 24.10Q21.28 24.32 20.80 24.40Q19.52 24.70 18.67 24.80L18.59 24.83Q18.54 24.83 18.54 24.82Q18.54 24.80 18.56 24.72Q18.56 24.12 18.65 23.88Q18.70 23.28 18.74 22.14Q18.78 21 18.84 20.40L18.84 19.56Q18.84 18.96 18.92 18.68L18.92 18.09L19.16 13.60L19.16 12.76Q19.24 12.08 19.24 10.80L19.24 9.93Q19.33 9.93 19.33 9.94Q19.33 9.95 19.33 10.04L19.68 10.36L19.87 10.52Q20.06 10.69 20.12 10.80Q20.17 10.91 20.26 10.93Q20.36 10.96 20.54 10.96Q20.71 10.96 21.09 11Q21.48 11.04 21.64 11.04Q21.69 11.04 21.75 11.10Q21.80 11.15 21.80 11.20Q21.86 11.40 21.90 11.74Q21.94 12.08 21.96 12.24L22.24 13.92Q22.32 14.36 22.44 15.26Q22.56 16.16 22.64 16.56Q22.78 17.30 23 18.74Q23.22 20.18 23.32 20.92"/>
</svg>