<?xml version="1.0" encoding="UTF-8"?>
<svg xmlns="http://www.w3.org/2000/svg" width="32" height="32" viewBox="0 0 32 32">
  <path fill="#b7b73b" d="M21.01 13.33L22.59 11.88Q23.24 10.85 23.24 9.63L23.24 9.44Q23.24 9.19 23.13 8.97Q22.70 8.10 21.67 7.70Q20.85 7.15 18.46 7.04Q15.74 7.42 13.56 8.38Q12.58 9.06 11.68 9.55L11.68 9.68Q11.71 9.68 11.76 9.65Q11.82 9.63 11.85 9.63Q11.96 9.63 11.96 9.68L12.09 9.63L12.15 9.63L12.15 9.68L12.09 9.76Q12.01 9.84 11.85 9.93Q11.68 10.01 11.14 10.42L10.79 10.69L10.98 10.82L10.84 10.74Q10.84 10.82 10.68 10.82L10.68 10.88L10.79 11.04Q10.68 11.04 10.60 10.99Q10.08 11.07 9.78 11.59L9.78 11.83L9.81 11.80Q10.02 11.59 10.19 11.48L10.19 11.64L10.13 11.64L10.02 11.72L10.02 11.78L10.13 11.94L10.13 12.02Q10.21 11.88 10.32 11.78L10.79 11.29L11.08 11.12Q11.33 11.20 11.33 11.29L11.44 11.29Q12.85 10.25 14.27 9.74L14.27 9.84Q14.21 9.98 14.02 10.14Q13.97 10.23 13.91 10.23Q13.91 10.33 14.02 10.44Q13.45 12.29 12.74 13.68Q10.70 19.04 7.96 24.07Q7.96 24.10 7.98 24.17Q8.01 24.23 8.01 24.26L8.17 24.21Q8.36 24.12 8.61 24.02L8.66 24.02L8.66 24.12L8.77 24.12L8.91 24.07L9.02 24.07L9.02 24.32L8.83 24.75Q8.47 25.32 8.42 25.70L8.42 25.76L8.61 25.76L8.77 25.51Q9.48 24.70 9.78 24.02L10.38 23.83Q10.98 23.66 11.44 23.47L11.55 23.42Q12.74 22.96 13.32 22.66Q13.80 22.66 14.31 22.48Q14.81 22.30 15.22 21.98L15.22 21.92L14.92 22.06L14.87 22.06L14.87 21.92Q15.63 21.84 16.09 21.51Q17.42 20.51 18.76 19.53Q21.50 17.49 21.42 15.58Q20.90 14.74 20.36 14.28L20.17 14.03Q20.17 13.82 21.01 13.33M18.16 17.87L16.52 19.17Q15.22 20.02 14.57 20.37Q12.96 21.35 11.19 21.98L10.98 22.06L10.89 22.06Q10.95 21.87 12.25 19.23L13.51 16.73Q15.27 16.45 16.93 15.72L17.34 15.67Q17.83 15.56 18.29 15.69Q18.76 15.83 19.11 16.13L19.11 16.37Q18.67 17.60 18.16 17.87M19.16 12.43Q18.54 13.05 17.75 13.49Q16.14 14.01 14.97 14.63Q14.92 14.63 14.87 14.58L14.68 14.58L14.68 14.47Q14.68 13.95 14.97 13.57Q15.16 12.51 15.38 12.43L16.74 9.38Q16.74 9.25 16.97 9.12Q17.20 9 17.64 8.97L17.80 8.97L17.80 9.14Q18.40 9.03 18.89 9.03Q19.60 8.95 20.02 9.08Q20.44 9.22 20.52 9.55L20.52 9.68L20.66 9.68L20.66 9.27L20.77 9.27Q21.15 9.46 21.23 9.79L21.23 9.93Q21.23 10.28 20.96 10.58Q20.82 10.58 20.82 10.39L20.71 10.39L20.71 10.74Q19.92 12.02 19.52 12.02Q19.38 12.24 19.16 12.43"/>
</svg>