<?xml version="1.0" encoding="UTF-8"?>
<svg xmlns="http://www.w3.org/2000/svg" width="32" height="32" viewBox="0 0 32 32">
  <path fill="#627379" d="M15.16 8.76L16.20 8.76Q16.42 8.78 16.80 8.82Q17.18 8.87 17.40 8.92Q18.92 9.30 20.20 10.20Q21.23 10.99 21.80 11.88Q22.92 13.35 23.16 15.28Q23.16 15.37 23.20 15.56Q23.24 15.75 23.24 15.88L23.24 17Q23.22 17.16 23.18 17.47Q23.13 17.79 23.08 17.92Q22.67 19.58 21.82 20.81Q20.96 22.03 19.52 22.96Q18.70 23.39 18.08 23.61Q17.29 23.91 16.52 23.96Q16.44 23.96 16.28 24Q16.12 24.04 16.04 24.04L14.92 24.04Q14.76 24.02 14.44 23.98Q14.13 23.93 14 23.88Q12.34 23.47 11.11 22.62Q9.89 21.76 8.96 20.32Q8.53 19.50 8.31 18.88Q8.01 18.09 7.96 17.32Q8.01 17.27 7.98 17.09Q7.96 16.92 7.96 16.84L7.96 15.80Q7.98 15.58 8.02 15.20Q8.07 14.82 8.12 14.60Q8.50 13.08 9.40 11.80Q10.19 10.66 11.68 9.76Q13.04 8.95 14.48 8.84Q14.62 8.84 14.84 8.80Q15.06 8.76 15.16 8.76M9.24 16.56Q9.26 18.28 10.15 19.72Q11.03 21.16 12.50 22.02Q13.97 22.87 15.71 22.86Q17.45 22.85 18.93 21.96Q20.41 21.08 21.26 19.56Q22.10 18.03 22.07 16.24Q22.02 14.55 21.12 13.11Q20.22 11.67 18.76 10.85Q17.20 9.98 15.44 10.04Q13.75 10.06 12.31 10.93Q10.87 11.80 10.05 13.27Q9.18 14.80 9.24 16.56M15.95 16.37L15.95 16.40Q16.04 16.32 16.24 16.20Q16.44 16.07 16.52 15.96Q18.08 14.96 18.76 14.44L18.84 14.39Q18.92 14.33 18.92 14.28Q19.03 14.14 19.20 14.18Q19.38 14.22 19.50 14.35Q19.63 14.47 19.60 14.65Q19.57 14.82 19.44 14.96L18.05 15.91Q17.12 16.54 16.72 16.92L15.76 17.60Q15.57 17.71 15.37 17.62Q15.16 17.54 15.16 17.32L15.16 11.80Q15.16 11.40 15.52 11.40Q15.65 11.31 15.80 11.42Q15.95 11.53 15.95 11.72L15.95 16.40"/>
</svg>