<?xml version="1.0" encoding="UTF-8"?>
<svg xmlns="http://www.w3.org/2000/svg" width="32" height="32" viewBox="0 0 32 32">
  <path fill="#cc6d2e" d="M21.15 8.76Q20.99 8.92 20.80 9.11Q20.33 9.52 19.79 9.90Q19 10.39 18.13 10.66Q17.01 11.01 15.84 11.01Q14.68 11.01 13.59 10.66Q12.72 10.39 11.93 9.90Q11.38 9.52 10.92 9.11L10.57 8.76L10.27 9.27Q9.92 9.93 9.62 10.61Q9.21 11.59 9.02 12.51Q8.75 13.68 8.80 14.69Q8.91 16.26 9.37 17.52Q9.94 19.07 11.17 20.45Q12.85 22.33 15.84 24.04Q18.59 22.49 20.22 20.81Q21.64 19.34 22.29 17.68Q22.81 16.35 22.92 14.69Q23.03 12.86 22.10 10.61Q21.64 9.49 21.15 8.76M10.84 10.36Q11.36 10.74 11.90 11.01Q10.81 11.40 10.11 12.29Q10.40 11.29 10.84 10.36M20.63 18.68Q19.92 19.77 18.81 20.75L18.81 19.85L17.80 19.85L17.80 21.60Q17.15 22.08 16.36 22.57L16.36 21.11L15.36 21.11L15.36 22.57Q14.62 22.11 13.91 21.60L13.91 19.85L12.91 19.85L12.91 20.75Q12.39 20.32 11.93 19.80Q10.95 18.68 10.43 17.46Q11.19 18.20 12.23 18.45Q13.26 18.71 14.27 18.39L15.84 19.99L17.45 18.39Q18.46 18.71 19.49 18.45Q20.52 18.20 21.28 17.46Q21.01 18.11 20.63 18.68M15.84 18.55L15.25 17.95Q15.57 17.73 15.84 17.46Q16.14 17.73 16.47 17.95L15.84 18.55M18.56 17.57Q17.64 17.57 16.89 17.03Q16.14 16.48 15.84 15.61Q15.52 16.62 14.62 17.15Q13.72 17.68 12.68 17.52Q11.63 17.35 10.95 16.55Q10.27 15.75 10.27 14.70Q10.27 13.65 10.95 12.85Q11.63 12.05 12.68 11.87Q13.72 11.69 14.62 12.24Q15.52 12.78 15.84 13.76Q16.20 12.73 17.16 12.20Q18.13 11.67 19.20 11.90Q20.28 12.13 20.92 13.03Q21.56 13.92 21.43 15.01Q21.31 16.10 20.50 16.84Q19.68 17.57 18.56 17.57M19.82 11.01Q20.36 10.74 20.88 10.36Q21.31 11.29 21.61 12.29Q20.90 11.40 19.82 11.01M11.71 14.69Q11.71 15.28 12.13 15.71Q12.55 16.13 13.14 16.13Q13.72 16.13 14.14 15.71Q14.57 15.28 14.57 14.69Q14.57 14.09 14.14 13.68Q13.72 13.27 13.14 13.27Q12.55 13.27 12.13 13.68Q11.71 14.09 11.71 14.69M17.15 14.69Q17.15 15.28 17.57 15.71Q17.99 16.13 18.58 16.13Q19.16 16.13 19.58 15.71Q20.01 15.28 20.01 14.69Q20.01 14.09 19.58 13.68Q19.16 13.27 18.58 13.27Q17.99 13.27 17.57 13.68Q17.15 14.09 17.15 14.69"/>
</svg>