<?xml version="1.0" encoding="UTF-8"?>
<svg xmlns="http://www.w3.org/2000/svg" width="32" height="32" viewBox="0 0 32 32">
  <path fill="#9068b0" d="M12.42 22.47L9.64 24.89L9.64 20.04L12.42 22.47M19.63 15.07Q20.31 15.72 20.55 16.67Q20.71 17.19 20.69 17.62L20.69 24.89L18.24 24.89L18.24 17.65Q18.24 17.13 17.94 16.81Q17.56 16.40 16.72 16.40Q15.14 16.40 13.12 17.03Q11.98 17.38 11.38 17.65L9.64 18.44L9.64 7.89L12.12 7.89L12.12 14.80Q14.68 13.98 16.72 13.98Q18.54 13.98 19.63 15.07M18.86 11.86L16.42 11.86Q17.83 9.98 18.24 7.89L20.71 7.89Q20.44 10.09 18.86 11.86"/>
</svg>