<?xml version="1.0" encoding="UTF-8"?>
<svg xmlns="http://www.w3.org/2000/svg" width="32" height="32" viewBox="0 0 32 32">
  <path fill="#b8383d" d="M19 15.56Q18.62 15.39 18.56 14.96Q18.51 14.63 18.62 14.22L18.76 13.84L19.68 13L19.84 13.03Q20.03 13.03 20.18 12.93Q20.33 12.84 20.39 12.70Q20.44 12.56 20.44 12.43L20.44 12.32L21.15 11.53Q21.18 11.48 21.12 11.40Q21.07 11.31 20.89 11.14Q20.71 10.96 20.36 10.70Q20.01 10.44 19.71 10.33Q19.49 10.23 19.33 10.24Q19.16 10.25 19.08 10.31L18.24 10.96L18.08 10.96Q17.91 10.99 17.80 11.04Q17.69 11.10 17.75 11.29Q17.78 11.40 17.80 11.48L14.32 14.36L12.55 10.28L12.61 10.17Q12.69 10.01 12.66 9.86Q12.64 9.71 12.50 9.63L12.36 9.60Q12.09 9.11 11.90 8.92Q11.82 8.84 11.76 8.84Q10.87 8.62 10.21 9Q9.89 9.19 9.72 9.44Q9.67 9.49 9.75 9.76L9.83 10.04L9.78 10.06Q9.72 10.12 9.71 10.23Q9.70 10.33 9.72 10.52Q9.83 10.91 10.05 10.93Q10.16 10.93 10.24 10.88L12.55 15.96Q12.55 16.40 10.76 23.12Q11.60 24.02 12.96 24.04Q13.64 24.04 14.16 23.88Q14.16 23.04 15.16 18.11Q15.90 18.77 16.80 19.07Q17.40 19.28 17.88 19.28Q17.88 19.64 17.97 19.88L18.24 19.96Q18.56 20.02 18.89 20.02Q19.35 20.02 19.71 19.85Q20.14 19.64 20.44 19.20Q20.52 19.12 20.52 18.96L20.77 18.82Q21.04 18.66 21.23 18.44Q21.48 18.14 21.48 17.76Q21.48 16.97 20.55 16.35Q20.01 15.96 19 15.56M20.71 18.60Q20.77 18.36 20.74 18.11Q20.69 17.92 20.60 17.79L20.52 17.68L20.47 17.81Q20.39 17.98 20.20 18.14Q19.92 18.33 19.50 18.44Q19.08 18.55 18.78 18.52Q18.56 18.47 18.43 18.36L18.32 18.28L18.21 18.44Q18.08 18.66 17.99 18.88Q16.12 18.55 15.27 17.30L15.27 17.24Q15.16 17 15.36 16.40L17.88 14.52Q17.78 15.28 18.43 15.77Q18.76 16.05 19.08 16.16L19.60 16.35Q20.17 16.64 20.52 16.94Q21.04 17.38 21.04 17.84Q21.09 18.14 20.96 18.36Q20.88 18.52 20.71 18.60"/>
</svg>