<?xml version="1.0" encoding="UTF-8"?>
<svg xmlns="http://www.w3.org/2000/svg" width="32" height="32" viewBox="0 0 32 32">
  <path fill="#b8383d" d="M7.11 24.89L7.11 7.89L24.11 7.89L24.11 24.89L7.11 24.89M14.29 18.25L13.04 18.25L13.04 20.24L14.29 20.24Q14.81 20.24 15.10 19.98Q15.38 19.72 15.38 19.24Q15.38 18.77 15.10 18.51Q14.81 18.25 14.29 18.25M18.08 23.42L18.08 16.89L23.22 16.89L23.22 18.25L19.79 18.25L19.79 19.47L22.89 19.47L22.89 20.81L19.79 20.83L19.79 22.06L23.30 22.06L23.30 23.42L18.08 23.42M15.82 21.27L17.18 23.42L15.27 23.42L14.32 21.60L13.04 21.60L13.04 23.42L11.36 23.42L11.36 16.89L14.27 16.89Q15.57 16.89 16.28 17.49Q16.99 18.09 16.99 19.17Q16.99 20.67 15.82 21.27"/>
</svg>