<?xml version="1.0" encoding="UTF-8"?>
<svg xmlns="http://www.w3.org/2000/svg" width="32" height="32" viewBox="0 0 32 32">
  <path fill="#dd4b78" d="M17.31 17.43L17.31 17.52Q16.82 17.81 15.82 18.44L14.32 19.36Q14.81 20.48 14.40 21.68Q14.10 22.66 13.38 23.24Q12.66 23.83 11.68 23.96Q11.30 24.07 10.76 23.88Q10.32 23.77 10.16 23.28Q9.64 22.14 10.40 21.24L10.68 20.97Q11.19 20.43 11.52 20.24Q11.76 20.02 12.36 19.69Q12.83 19.45 13.04 19.28Q13.10 19.23 13.23 19.20L13.40 19.12Q13.29 19.07 13.14 18.93Q12.99 18.79 12.88 18.79Q11.74 18.06 10.92 17.24Q10.24 16.56 10 16.16Q9.43 15.72 9.33 15.12Q9.24 14.52 9.56 13.92Q9.97 12.95 11.08 11.80Q13.04 10.09 15.68 9.16Q17.56 8.51 19.24 8.76Q19.44 8.84 19.86 8.96Q20.28 9.08 20.44 9.16Q21.42 9.57 21.77 10.31Q22.13 11.04 21.80 12.08Q21.26 13.82 19.76 14.69Q18.73 15.34 17.67 15.58Q16.61 15.83 15.44 15.64Q14.73 15.53 14.08 14.88Q13.91 14.52 13.80 14.44L13.83 14.39Q13.86 14.33 13.91 14.28L13.94 14.28Q14.02 14.31 14.08 14.36Q14.95 15.26 16.28 14.96Q17.45 14.74 18.29 14.33Q19.27 13.87 19.92 13.08Q20.58 12.29 20.80 11.56Q21.01 10.61 20.03 10.04Q19.22 9.63 17.99 9.76Q15.71 10.12 13.40 11.56Q12.12 12.27 11.44 13.16Q11.19 13.52 10.84 14.20Q10.65 14.71 10.73 15.20Q10.81 15.69 11.19 16.05Q11.87 16.73 12.20 17L13.80 18.36L13.91 18.39Q14.02 18.41 14.08 18.36Q14.40 18.14 14.76 18Q16.04 17.30 17.12 17.08Q17.12 17.27 17.15 17.34Q17.18 17.41 17.26 17.46L17.31 17.52L17.31 17.43M13.64 19.64Q12.50 20.26 11.68 21.08Q11.22 21.54 11.08 22.17Q11.03 22.55 11.25 22.74Q11.47 22.93 11.87 22.85Q12.83 22.63 13.40 21.76Q13.70 21.27 13.75 20.75Q13.78 20.32 13.64 19.64"/>
</svg>