<?xml version="1.0" encoding="UTF-8"?>
<svg xmlns="http://www.w3.org/2000/svg" width="32" height="32" viewBox="0 0 32 32">
  <path fill="#b7b73b" d="M16.63 12.24L15.55 11.29L14.38 12.21Q13.89 12.18 13.18 12.29Q12.39 12.40 11.93 12.56Q11.57 12.32 11.17 12.02L10.84 11.78L10.11 12.97Q9.34 13.38 8.91 13.79L7.96 13.38L8.26 14.01Q8.66 14.93 8.94 15.34Q9.37 16.02 9.94 16.40Q10.54 15.45 12.15 14.96Q13.61 14.50 15.48 14.52Q17.34 14.55 18.84 15.01Q20.44 15.53 21.07 16.37Q21.75 16.02 22.26 15.18Q22.54 14.69 22.97 13.57L23.03 13.44Q22.48 13.63 21.99 13.79Q21.83 13.63 21.52 13.38Q21.20 13.14 20.93 12.97L20.22 11.75L19.14 12.51Q17.42 12.18 16.63 12.24M8.56 15.86L9.92 19.17Q10.79 20.32 12.28 20.97Q13.72 21.60 15.40 21.62Q17.07 21.65 18.54 21.05Q20.09 20.43 21.04 19.23L22.54 15.83Q21.75 16.97 20.06 17.92Q19.76 18.09 19.08 18.22L18.46 18.33L15.52 16.81L12.55 18.30L11.93 18.20Q11.25 18.03 10.95 17.90Q10.21 17.52 9.64 17Q9.10 16.54 8.56 15.86"/>
</svg>