<?xml version="1.0" encoding="UTF-8"?>
<svg xmlns="http://www.w3.org/2000/svg" width="32" height="32" viewBox="0 0 32 32">
  <path fill="#dd4b78" d="M14.32 11.80L14.32 10.12L16.04 10.12L16.04 11.80L14.32 11.80M14.32 13.76L14.32 12.08L16.04 12.08L16.04 13.76L14.32 13.76M14.32 15.80L14.32 14.12L16.04 14.12L16.04 15.80L14.32 15.80M12.36 13.76L12.36 12.08L14.08 12.08L14.08 13.76L12.36 13.76M12.36 15.80L12.36 14.12L14.08 14.12L14.08 15.80L12.36 15.80M10.32 13.76L10.32 12.08L12.04 12.08L12.04 13.76L10.32 13.76M10.32 15.80L10.32 14.12L12.04 14.12L12.04 15.80L10.32 15.80M8.36 15.80L8.36 14.12L10.08 14.12L10.08 15.80L8.36 15.80M16.36 15.80L16.36 14.12L18.08 14.12L18.08 15.80L16.36 15.80M25.04 14.36Q24.36 14.20 23.92 14.20Q23.32 14.31 23.08 13.68Q22.84 13.05 22.32 12.65Q21.94 12.21 21.58 12.31Q21.23 12.40 21.04 12.92Q20.80 13.73 20.96 14.80Q21.09 15.37 20.97 15.57Q20.85 15.77 20.26 15.91Q19.68 16.05 12.99 16.07Q9.64 16.07 6.43 16.05Q6.30 16.05 6.23 16.30Q6.16 16.56 6.16 16.92Q6.16 17.38 6.24 18Q6.32 18.82 6.52 19.20Q7.17 20.67 8.23 21.54Q9.40 22.49 10.92 22.60L14.76 22.60Q16.52 22.55 18.10 21.70Q19.52 20.97 20.88 19.56Q21.96 18.30 22.56 17Q22.81 16.54 23.35 16.43Q23.90 16.32 24.17 16.24Q24.58 16.13 24.88 15.88Q24.96 15.72 25.20 15.48Q25.64 15.15 25.60 14.82Q25.56 14.50 25.04 14.36M12.36 18.68Q12.64 18.68 12.84 18.88Q13.04 19.07 13.04 19.38Q13.04 19.69 12.87 19.87Q12.69 20.04 12.39 20.04Q12.09 20.04 11.89 19.87Q11.68 19.69 11.68 19.38Q11.68 19.07 11.89 18.88Q12.09 18.68 12.36 18.68M8.20 20.56Q8.50 20.53 9.07 20.56Q9.83 20.59 10.16 20.48Q10.79 20.26 11.21 20.41Q11.63 20.56 11.96 21.16Q12.09 21.46 12.42 21.70Q12.61 21.84 13.10 22.11L13.40 22.28Q11.98 22.47 10.57 21.99Q9.15 21.51 8.20 20.56"/>
</svg>