<?xml version="1.0" encoding="UTF-8"?>
<svg xmlns="http://www.w3.org/2000/svg" width="32" height="32" viewBox="0 0 32 32">
  <path fill="#b8383d" d="M15.95 7.45L15.76 7.56Q15.44 7.83 14.89 8.24Q13.97 8.97 13.61 9.30Q13.10 9.79 12.64 10.44Q12.20 11.07 12.09 12.24Q11.98 13.41 12.31 14.50Q12.69 15.72 13.48 16.32Q13.21 16.32 12.25 15.80L11.36 15.28L12.61 17.03Q14 18.88 14.59 19.45Q16.61 22.38 17.12 25.76Q17.50 22.96 16.12 20.40L16.12 20.32Q16.04 19.96 16.13 19.70Q16.23 19.45 16.52 19.20Q16.96 18.96 18.76 17.24L17.75 17.81Q16.69 18.39 16.36 18.44L16.99 17.79Q17.45 17.30 17.67 17.08Q18.05 16.73 18.40 16.48Q20.06 15.15 19.76 12.92Q19.76 12.65 19.63 12.16L19.60 11.99Q18.97 9.27 16.52 6.96Q16.33 7.21 15.95 7.45"/>
</svg>