<?xml version="1.0" encoding="UTF-8"?>
<svg xmlns="http://www.w3.org/2000/svg" width="32" height="32" viewBox="0 0 32 32">
  <path fill="#9068b0" d="M12.80 19.56Q12.66 18.68 11.96 18.44L11.36 18.09Q10.84 17.92 10.68 17.84Q10.43 17.73 10.16 18Q10.05 18.25 10.24 18.44Q10.32 18.60 10.60 18.88Q10.76 19.12 11.19 19.56L11.25 19.64Q11.38 19.83 11.41 19.94Q11.49 20.10 11.44 20.32Q11.30 21.30 10.68 21.92Q10.62 21.98 10.54 22L10.51 22Q10.32 22 10.09 21.91Q9.86 21.81 9.72 21.68Q9.56 21.49 9.59 21.31Q9.62 21.13 9.83 21Q9.89 21 9.94 20.94Q10 20.89 10 20.81Q10.27 20.53 10.16 20.24Q10.11 20.18 10.06 20.10Q10.02 20.02 10 19.96Q9.64 19.64 8.80 18.96Q7.22 17.73 7.11 15.88Q6.98 13.92 8.04 12.08Q8.50 11.29 9.15 10.96Q9.48 10.80 10.16 10.61Q11.87 10.14 13.12 10.36Q14.57 10.66 14.92 11.80Q15.19 12.78 15.08 13.52Q15.03 14.39 14.42 15.09Q13.80 15.80 12.96 16.05Q12.58 16.18 12.36 16.11Q12.15 16.05 11.96 15.72L11.82 15.53Q11.49 15.04 11.36 14.80L11.36 14.69Q11.36 14.66 11.32 14.62Q11.28 14.58 11.28 14.52Q11.36 15.04 11.41 15.28Q11.52 15.69 11.68 15.96Q11.85 16.18 12 16.29Q12.15 16.40 12.36 16.40Q14.02 16.54 15 15.28Q15.95 13.98 15.68 12.08Q15.68 11.86 15.57 11.53L15.52 11.40Q15.52 11.23 15.55 11.16Q15.57 11.10 15.68 11.04Q15.84 11.04 15.84 10.96Q17.31 10.66 18.48 10.80Q20.17 10.93 21.28 11.72Q23.24 12.95 23.92 15.37Q24 15.64 24 16.05Q24 16.18 23.95 16.20Q23.90 16.21 23.77 16.14Q23.65 16.07 23.49 15.91L23.43 15.80Q23.38 15.77 23.30 15.64Q23.22 15.50 23.16 15.45Q23.11 15.39 23.05 15.39Q23 15.39 23 15.45Q23 15.50 22.96 15.58Q22.92 15.67 22.92 15.72Q22.48 17.19 21.72 17.92Q21.67 18 21.61 18.10Q21.56 18.20 21.56 18.28L21.53 18.60Q21.50 19.07 21.56 19.28L21.80 21.40Q21.86 21.70 21.76 21.87Q21.67 22.03 21.37 22.17Q20.88 22.36 20.52 22.36L19.16 22.36Q19.16 21.84 19.11 21.62Q19.03 21.24 18.76 21.08Q18.92 20.40 19.01 19.96Q19.11 19.53 18.84 19.12Q18.62 18.79 18.16 18.96Q17.23 19.53 16.04 19.12Q15.74 19.04 15.56 19.09Q15.38 19.15 15.27 19.36Q15 19.88 15 20.40Q15 20.92 15.16 21.76Q15.16 21.98 15.14 22.04Q15.11 22.11 14.92 22.17Q14.10 22.41 13.23 22.28L13.12 22.28Q13.12 21.76 13.07 21.54Q12.93 21.16 12.55 21Q12.96 20.56 12.80 19.56M9.32 17.60Q9.48 17.41 9.48 17.24Q9.53 17.05 9.40 16.81Q9.26 16.56 9.04 16.48Q8.94 16.43 8.87 16.45Q8.80 16.48 8.72 16.56Q8.58 16.70 8.38 16.96Q8.17 17.22 8.04 17.32Q8.04 17.38 8 17.42Q7.96 17.46 7.96 17.52Q7.88 17.62 7.93 17.73Q7.98 17.84 8.12 17.84Q8.36 17.84 8.47 17.92Q8.96 17.92 9.32 17.60M9.32 14.80Q9.32 14.66 9.21 14.55Q9.10 14.44 8.96 14.44Q8.83 14.44 8.70 14.56Q8.58 14.69 8.64 14.88Q8.64 15.01 8.76 15.11Q8.88 15.20 9.04 15.20Q9.32 14.96 9.32 14.80"/>
</svg>