<?xml version="1.0" encoding="UTF-8"?>
<svg xmlns="http://www.w3.org/2000/svg" width="32" height="32" viewBox="0 0 32 32">
  <path fill="#cc6d2e" d="M18.16 18.96L18.16 20.86L12.96 20.86Q12.88 20.53 12.69 20.24L19.44 13.49Q20.01 13.84 20.71 13.84Q21.69 13.84 22.43 13.18Q23.16 12.51 23.24 11.52Q23.32 10.52 22.71 9.74Q22.10 8.95 21.12 8.78Q20.14 8.62 19.31 9.16Q18.48 9.71 18.24 10.66L12.96 10.66Q12.72 9.74 11.93 9.19Q11.14 8.65 10.17 8.77Q9.21 8.89 8.58 9.61Q7.96 10.33 7.96 11.30Q7.96 12.27 8.58 12.99Q9.21 13.71 10.17 13.83Q11.14 13.95 11.93 13.41Q12.72 12.86 12.96 11.94L18.24 11.94Q18.32 12.27 18.51 12.56L11.76 19.31Q11.19 18.96 10.51 18.96Q9.51 18.96 8.77 19.62Q8.04 20.29 7.96 21.28Q7.88 22.28 8.49 23.06Q9.10 23.85 10.08 24.02Q11.06 24.18 11.89 23.64Q12.72 23.09 12.96 22.14L18.16 22.14L18.16 24.04L23.24 24.04L23.24 18.96L18.16 18.96M10.51 12.56Q10.05 12.56 9.70 12.28Q9.34 11.99 9.26 11.54Q9.18 11.10 9.38 10.70Q9.59 10.31 10.01 10.13Q10.43 9.95 10.87 10.09Q11.30 10.23 11.56 10.59Q11.82 10.96 11.78 11.42Q11.74 11.88 11.41 12.21Q11.03 12.56 10.51 12.56M20.69 10.04Q21.09 10.04 21.41 10.24Q21.72 10.44 21.87 10.81Q22.02 11.18 21.95 11.56Q21.88 11.94 21.61 12.21Q21.34 12.48 20.96 12.55Q20.58 12.62 20.21 12.47Q19.84 12.32 19.64 12.01Q19.44 11.69 19.44 11.29Q19.44 10.77 19.80 10.40Q20.17 10.04 20.69 10.04M10.51 22.76Q9.97 22.76 9.60 22.40Q9.24 22.03 9.24 21.50Q9.24 20.97 9.60 20.60Q9.97 20.24 10.50 20.24Q11.03 20.24 11.41 20.60Q11.79 20.97 11.79 21.50Q11.79 22.03 11.41 22.40Q11.03 22.76 10.51 22.76M19.44 22.76L19.44 20.24L21.96 20.24L21.96 22.76"/>
</svg>