<?xml version="1.0" encoding="UTF-8"?>
<svg xmlns="http://www.w3.org/2000/svg" width="32" height="32" viewBox="0 0 32 32">
  <path fill="#cc6d2e" d="M12.77 15.26L15.60 25.65L18.43 15.26L12.77 15.26M8.83 15.26L15.60 25.65L12.77 15.26L8.83 15.26M15.60 25.65L8.83 15.26L7.98 18.41Q7.93 18.63 7.98 18.85Q8.04 19.07 8.20 19.20L15.60 25.65M10.54 9L8.83 15.26L12.77 15.26L11.08 9Q11.03 8.76 10.81 8.76Q10.60 8.76 10.54 9M22.37 15.26L15.60 25.65L18.43 15.26L22.37 15.26M15.60 25.65L22.37 15.26L23.22 18.41Q23.27 18.63 23.22 18.85Q23.16 19.07 23 19.20L15.60 25.65M20.66 9L22.37 15.26L18.43 15.26L20.12 9Q20.17 8.76 20.39 8.76Q20.60 8.76 20.66 9"/>
</svg>