<?xml version="1.0" encoding="UTF-8"?>
<svg xmlns="http://www.w3.org/2000/svg" width="32" height="32" viewBox="0 0 32 32">
  <path fill="#b8383d" d="M23.52 12.24Q23.52 13.11 23.07 13.87Q22.62 14.63 21.86 15.09Q21.09 15.56 20.18 15.56Q19.27 15.56 18.51 15.12Q17.75 14.69 17.31 13.92Q16.88 13.16 16.88 12.24Q16.88 11.31 17.31 10.55Q17.75 9.79 18.51 9.36Q19.27 8.92 20.17 8.92Q21.07 8.92 21.83 9.36Q22.59 9.79 23.05 10.55Q23.52 11.31 23.52 12.24M11.52 8.84L14.32 8.84L14.32 21Q14.32 21.73 14.29 22Q14.27 22.41 14.14 22.71Q14.02 23.01 13.74 23.30Q13.45 23.58 13.12 23.72Q12.91 23.83 12.50 23.85Q12.25 23.88 11.44 23.88Q10.70 23.88 10.43 23.85Q10.02 23.83 9.72 23.70Q9.43 23.58 9.14 23.30Q8.85 23.01 8.72 22.68Q8.61 22.47 8.56 22.06Q8.56 21.79 8.56 21L8.56 11.80Q8.56 10.91 8.56 10.58Q8.61 10.09 8.73 9.84Q8.85 9.60 9.09 9.37Q9.32 9.14 9.59 9.02Q9.86 8.89 10.32 8.87Q10.62 8.84 11.52 8.84"/>
</svg>