<?xml version="1.0" encoding="UTF-8"?>
<svg xmlns="http://www.w3.org/2000/svg" width="32" height="32" viewBox="0 0 32 32">
  <path fill="#b7b73b" d="M20.96 19.53L20.96 22.28Q20.03 22.74 19.07 23Q18.10 23.25 17.04 23.25Q13.86 23.25 12.01 21.40Q10.16 19.56 10.16 16.40Q10.16 13.24 12.01 11.40Q13.86 9.55 17.04 9.55Q18.10 9.55 19.08 9.79Q20.06 10.04 20.96 10.52L20.96 13.27Q20.03 12.62 19.15 12.32Q18.27 12.02 17.31 12.02Q15.55 12.02 14.54 13.19Q13.53 14.36 13.53 16.40Q13.53 18.44 14.54 19.61Q15.55 20.78 17.31 20.78Q18.27 20.78 19.15 20.48Q20.03 20.18 20.96 19.53"/>
</svg>