<?xml version="1.0" encoding="UTF-8"?>
<svg xmlns="http://www.w3.org/2000/svg" width="32" height="32" viewBox="0 0 32 32">
  <path fill="#7fae42" d="M23.32 5.52Q23.08 5.52 22.73 5.68Q22.24 5.85 21.75 6.28Q21.48 6.53 20.96 7.12Q19.46 8.73 18.40 10.88Q17.10 13.16 16.28 15.96Q15.93 17.32 15.93 18.20Q15.95 18.49 16.16 18.67Q16.36 18.85 16.61 18.79Q17.10 18.74 17.48 18.41Q17.72 18.20 18.13 17.73L18.24 17.60L18.24 17.32Q17.72 17.84 17.48 18Q17.29 18.14 17.16 18.09Q17.04 18.03 17.04 17.84L17.04 17Q17.04 15.67 17.64 14.01Q18.32 12.16 18.76 11.31Q19.79 9.06 21.12 7.72Q21.80 6.66 23 6.55Q23.32 6.55 23.52 6.64Q23.71 6.72 23.76 6.96Q23.76 7.04 23.84 7.04L23.90 7.02Q23.95 6.96 24 6.96Q24.20 6.44 24.20 6.19Q24.20 5.93 23.92 5.70Q23.65 5.47 23.32 5.52M14.84 14.12Q14.40 14.12 13.83 14.51Q13.26 14.90 13.04 15.28L13.04 15.48L13.12 15.45L13.23 15.37L13.29 15.28Q13.45 15.09 13.56 15.04Q13.72 14.88 13.83 14.82Q14 14.74 14.16 14.80Q14.32 14.85 14.36 15.04Q14.40 15.23 14.32 15.37Q14.24 16.29 13.97 17.87L13.89 18.20Q13.32 20.43 12.55 21.84Q11.41 24.10 10 25.40Q9.51 25.81 9.15 26Q8.66 26.25 8.20 26.25Q7.88 26.25 7.73 26.15Q7.58 26.06 7.52 25.76Q7.52 25.70 7.44 25.65L7.36 25.57Q6.98 26.08 7.11 26.68Q7.25 27.28 7.60 27.28Q8.04 27.28 8.56 27.12Q8.88 27.01 9.24 26.74Q9.43 26.57 9.81 26.19L10 26Q11.47 24.53 12.55 22.52Q14.21 19.66 15.08 16.56L15.14 16.43Q15.27 15.83 15.33 15.53Q15.41 15.04 15.36 14.60Q15.36 14.41 15.19 14.26Q15.03 14.12 14.84 14.12"/>
</svg>