<?xml version="1.0" encoding="UTF-8"?>
<svg xmlns="http://www.w3.org/2000/svg" width="32" height="32" viewBox="0 0 32 32">
  <path fill="#498ba7" d="M15.41 7.42Q15.36 7.42 15.33 7.45L15.16 7.56Q13.91 8.32 13.32 8.78Q12.31 9.63 12.06 10.39Q11.98 10.63 11.98 10.82Q11.98 10.93 12.04 11.18L12.06 11.26Q12.25 11.91 12.69 12.59Q12.80 12.81 13.11 13.20Q13.42 13.60 13.45 13.60Q14.95 12.65 15.71 11.91L15.71 9.82Q15.71 8.48 15.68 8.08Q15.65 7.67 15.59 7.56Q15.52 7.45 15.41 7.42M11.76 10.96Q11.68 10.96 11.62 11.31Q11.55 11.67 11.29 12.69Q11.03 13.71 10.87 14.22Q10.76 14.63 10.72 15.01Q10.68 15.39 10.76 15.50Q10.87 15.69 13.64 16.56Q14.24 16.75 14.43 16.74Q14.62 16.73 14.73 16.51L14.76 16.48Q14.87 16.26 14.85 16.11Q14.84 15.96 14.57 15.56Q14.35 15.26 13.59 14.22L13.48 14.03Q12.55 12.78 12.30 12.35Q12.04 11.91 11.93 11.34Q11.82 10.96 11.76 10.96M20.22 11.48Q20.12 11.48 20.01 11.48Q19.65 11.53 18.59 11.60Q17.53 11.67 17.01 11.69Q16.58 11.69 16.20 11.78Q15.82 11.86 15.74 11.97Q15.60 12.13 15.65 15.04Q15.65 15.67 15.72 15.84Q15.79 16.02 16.01 16.07L16.06 16.07Q16.31 16.13 16.44 16.06Q16.58 15.99 16.88 15.58Q17.10 15.31 17.86 14.28L17.99 14.09Q18.89 12.84 19.23 12.46Q19.57 12.08 20.06 11.78Q20.41 11.59 20.39 11.53Q20.36 11.48 20.22 11.48M21.01 11.64Q20.77 11.64 20.60 11.69Q20.47 11.72 20.28 11.86L20.20 11.88Q19.63 12.27 19.11 12.89Q18.95 13.08 18.66 13.50Q18.37 13.92 18.40 13.95Q19.76 15.09 20.71 15.56L22.70 14.93Q23.95 14.52 24.34 14.37Q24.74 14.22 24.82 14.12Q24.90 14.01 24.88 13.90Q24.85 13.84 24.82 13.84L24.68 13.71Q23.57 12.76 22.92 12.35Q21.83 11.64 21.01 11.64M6.60 14.25Q6.54 14.25 6.52 14.28Q6.38 14.31 6.35 14.41Q6.32 14.44 6.32 14.50L6.38 14.66Q6.73 16.10 6.98 16.81Q7.47 18.03 8.12 18.49Q8.34 18.66 8.50 18.71Q8.61 18.74 8.85 18.77L8.94 18.77Q9.62 18.79 10.40 18.60Q10.65 18.55 11.13 18.37Q11.60 18.20 11.60 18.17Q11.17 16.45 10.70 15.50L8.69 14.85Q6.87 14.25 6.60 14.25M20.66 15.64L20.63 15.61Q20.25 15.61 17.72 16.48Q17.12 16.67 16.97 16.79Q16.82 16.92 16.85 17.16L16.85 17.19Q16.88 17.43 16.99 17.54Q17.10 17.65 17.56 17.84Q17.88 17.95 19.14 18.33L19.33 18.41Q20.82 18.88 21.28 19.09Q21.75 19.31 22.18 19.69Q22.48 19.94 22.54 19.90Q22.59 19.85 22.44 19.53Q22.29 19.20 21.90 18.22Q21.50 17.24 21.34 16.75Q21.18 16.35 20.99 16.01Q20.80 15.67 20.66 15.64M14.38 17.62Q14.19 17.62 13.70 17.76Q13.37 17.87 12.23 18.22L12.04 18.30Q10.54 18.79 10.04 18.89Q9.53 18.98 8.96 18.93Q8.58 18.90 8.56 18.97Q8.53 19.04 8.85 19.22Q9.18 19.39 10.06 19.96Q10.95 20.53 11.38 20.83Q11.74 21.05 12.09 21.21Q12.44 21.38 12.58 21.35Q12.80 21.30 14.46 18.90Q14.84 18.39 14.89 18.21Q14.95 18.03 14.76 17.87L14.73 17.84Q14.62 17.71 14.55 17.66Q14.48 17.62 14.38 17.62M16.28 18.22Q16.20 18.22 16.06 18.28L16.04 18.30Q15.82 18.39 15.75 18.52Q15.68 18.66 15.65 19.15Q15.63 19.50 15.65 20.81L15.65 21.02Q15.65 22.57 15.60 23.09Q15.55 23.61 15.30 24.12Q15.16 24.48 15.22 24.52Q15.27 24.56 15.55 24.32Q15.82 24.07 16.62 23.40Q17.42 22.74 17.86 22.41Q18.18 22.14 18.44 21.85Q18.70 21.57 18.70 21.43Q18.73 21.21 16.99 18.90Q16.69 18.49 16.54 18.36Q16.39 18.22 16.28 18.22M19.60 18.77Q19.60 18.77 19.60 18.77Q18.95 20.43 18.78 21.46L20.01 23.15Q20.77 24.21 21.04 24.53Q21.31 24.86 21.43 24.91Q21.56 24.97 21.67 24.89Q21.69 24.89 21.69 24.83L21.77 24.67Q22.35 23.31 22.54 22.57Q22.86 21.32 22.62 20.53Q22.54 20.29 22.43 20.15Q22.35 20.04 22.18 19.88L22.10 19.83Q21.58 19.42 20.82 19.12Q20.60 19.04 20.14 18.89Q19.68 18.74 19.60 18.77M13.97 21.32Q13.18 21.35 12.58 21.43L11.36 23.12Q10.57 24.21 10.34 24.55Q10.11 24.89 10.11 25.02Q10.11 25.16 10.19 25.24Q10.21 25.27 10.27 25.27L10.46 25.27Q11.93 25.40 12.66 25.35Q13.97 25.29 14.62 24.80Q14.84 24.64 14.95 24.51Q15 24.40 15.11 24.18L15.14 24.10Q15.38 23.47 15.44 22.66Q15.46 22.41 15.44 21.91Q15.41 21.40 15.38 21.38Q14.57 21.32 13.97 21.32"/>
</svg>