<?xml version="1.0" encoding="UTF-8"?>
<svg xmlns="http://www.w3.org/2000/svg" width="32" height="32" viewBox="0 0 32 32">
  <path fill="#498ba7" d="M8.04 16.32Q8.04 14.69 8.54 13.42Q9.04 12.16 9.89 11.31Q10.73 10.47 11.96 9.93Q12.91 9.52 14.40 9.52Q15.68 9.52 16.70 10.02Q17.72 10.52 18.40 11.20L16.52 13.33L16.31 13.16Q15.87 12.81 15.60 12.76L15.33 12.67Q14.78 12.48 14.40 12.48Q13.80 12.48 13.32 12.76Q12.72 13.03 12.36 13.50Q12.01 13.98 11.76 14.73Q11.52 15.48 11.52 16.32Q11.52 18.28 12.36 19.12Q12.83 19.64 13.36 19.90Q13.89 20.15 14.57 20.15Q15.25 20.15 15.76 19.88Q16.33 19.61 16.72 19.12L18.56 21.24Q17.78 22.14 16.72 22.68Q15.68 23.20 14.40 23.20Q13.23 23.20 11.96 22.76Q10.79 22.38 9.92 21.51Q9.51 21.11 9.18 20.45Q8.96 20.04 8.64 19.20Q8.04 18.14 8.04 16.32M20.31 18.39L20.52 17.32L19.68 17.32L19.35 19.36L18.32 19.36L18.67 17.32L17.64 17.32L17.64 16.40L18.92 16.40L19.08 15.04L17.99 15.04L17.99 14.12L19.24 14.12L19.60 12.08L20.60 12.08L20.28 14.12L21.12 14.12L21.48 12.08L22.48 12.08L22.16 14.12L23.24 14.12L23.24 15.04L21.88 15.04L21.72 16.40L22.84 16.40L22.84 17.32L21.48 17.32L21.12 19.36L20.12 19.36Q20.12 19.42 20.31 18.39M20.03 15.12L19.84 16.48L20.71 16.48L20.88 15.12"/>
</svg>