<?xml version="1.0" encoding="UTF-8"?>
<svg xmlns="http://www.w3.org/2000/svg" width="32" height="32" viewBox="0 0 32 32">
  <path fill="#b8383d" d="M20.71 8.76L20.71 18.30Q20.69 18.41 20.69 18.63Q20.69 19.26 20.66 19.58Q20.60 20.15 20.47 20.53Q20.12 21.65 19.31 22.48Q18.51 23.31 17.45 23.74Q16.96 23.93 16.48 23.99Q16.01 24.04 15.25 24.04Q13.70 24.04 12.58 23.61Q11.36 23.04 10.49 21.98L12.20 19.77Q12.72 20.45 13.49 20.83Q14.27 21.21 15.16 21.21Q16.36 21.21 17.03 20.43Q17.69 19.64 17.69 18.06L17.69 8.76"/>
</svg>