<?xml version="1.0" encoding="UTF-8"?>
<svg xmlns="http://www.w3.org/2000/svg" width="32" height="32" viewBox="0 0 32 32">
  <path fill="#627379" d="M16.61 13.68L16.63 13.68Q17.72 13.68 18.76 13.92L19.16 14.12Q19.90 14.47 20.06 15.12Q20.22 15.69 19.92 16.32Q19.84 16.59 19.63 16.89Q19.49 17.05 19.16 17.32L19 17.52Q18.51 17.92 17.42 18.63L16.80 19.04Q16.58 19.17 16.14 19.45Q15.36 19.96 15 20.32Q14.92 20.40 14.80 20.56Q14.68 20.72 14.57 20.81Q14.46 21 14.44 21.23Q14.43 21.46 14.48 21.68Q14.68 22.06 15.04 22.36Q15.41 22.66 15.89 22.78Q16.36 22.90 16.72 22.63Q17.07 22.36 17.12 21.84L17.12 21.49Q17.12 21.16 17.40 20.92Q17.83 20.59 18.32 20.48Q19.22 20.29 19.68 20.40Q19.84 20.40 19.92 20.48Q20.25 20.62 20.33 20.81Q20.41 21 20.36 21.32Q20.01 22.74 18.84 23.80Q17.80 24.70 16.52 24.80Q15.52 24.94 14.48 24.56Q11.14 23.28 10 19.80Q9.62 18.52 9.97 17.41Q10.32 16.29 11.36 15.48Q12.53 14.39 14.68 13.92Q15.36 13.76 15.68 13.76Q16.12 13.68 16.61 13.68M17.72 11.20Q17.86 9.16 19.52 8.24Q20.52 7.72 21.56 8Q22.13 8.10 22.35 8.43Q22.56 8.76 22.47 9.36Q22.37 9.95 21.88 10.62Q21.39 11.29 21.09 11.61Q20.60 12.13 20.12 12.40Q19.57 12.81 19 12.92Q18.59 12.97 18.31 12.84Q18.02 12.70 17.88 12.32Q17.72 11.80 17.72 11.20M16.52 9.76Q16.52 10.99 15.93 11.80Q15.82 12.05 15.60 12.16Q15.41 12.35 15.18 12.35Q14.95 12.35 14.76 12.16Q14.48 11.88 14.32 11.40Q14.02 10.36 14.24 9.52Q14.51 8.57 15.52 8.57Q15.84 8.57 16.08 8.70Q16.31 8.84 16.36 9.08Q16.44 9.16 16.44 9.36Q16.44 9.60 16.52 9.76M13.04 11.29L13.04 11.56Q13.04 11.97 13.02 12.18Q12.96 12.51 12.80 12.76Q12.66 13.08 12.42 13.12Q12.17 13.16 11.87 12.92Q11.14 12.32 11 11.40L11 10.80Q11.08 10.39 11.37 10.12Q11.66 9.84 12.04 9.84Q12.47 9.84 12.72 10.20Q13.04 10.66 13.04 11.29M10.68 14.03L10.68 14.01Q10.68 14.28 10.51 14.60Q10.38 14.99 10 14.88L9.92 14.85L9.83 14.80Q9.32 14.60 8.98 14.02Q8.64 13.44 8.64 12.92Q8.64 12.62 8.83 12.37Q9.02 12.13 9.32 11.97Q9.70 11.86 10.08 12.24Q10.30 12.46 10.40 12.81Q10.49 13 10.57 13.44L10.60 13.52Q10.68 13.76 10.68 14.03"/>
</svg>