<?xml version="1.0" encoding="UTF-8"?>
<svg xmlns="http://www.w3.org/2000/svg" width="32" height="32" viewBox="0 0 32 32">
  <path fill="#b8383d" d="M25.01 24.91L11.63 24.91Q11.44 24.91 11.33 24.79Q11.22 24.67 11.22 24.51L11.22 8.32Q11.22 8.16 11.33 8.04Q11.44 7.91 11.63 7.91L25.01 7.91Q25.17 7.91 25.30 8.04Q25.42 8.16 25.42 8.32L25.42 24.51Q25.42 24.67 25.31 24.79Q25.20 24.91 25.01 24.91M18.05 18.22L18.05 7.89L18.59 7.89L18.59 18.22L18.05 18.22M18.18 9.08L18.18 8.51L19.84 8.51L19.84 9.08L18.18 9.08M18.18 10.25L18.18 9.68L19.84 9.68L19.84 10.25L18.18 10.25M18.18 11.45L18.18 10.88L19.84 10.88L19.84 11.45L18.18 11.45M18.18 12.62L18.18 12.05L19.84 12.05L19.84 12.62L18.18 12.62M18.18 13.82L18.18 13.24L19.84 13.24L19.84 13.82L18.18 13.82M18.18 14.99L18.18 14.44L19.84 14.44L19.84 14.99L18.18 14.99M18.18 16.18L18.18 15.61L19.84 15.61L19.84 16.18L18.18 16.18M18.18 17.35L18.18 16.78L19.84 16.78L19.84 17.35L18.18 17.35M16.74 9.63L16.74 9.06L18.43 9.06L18.43 9.63L16.74 9.63M16.74 10.80L16.74 10.25L18.43 10.25L18.43 10.80L16.74 10.80M16.74 11.99L16.74 11.42L18.43 11.42L18.43 11.99L16.74 11.99M16.74 13.19L16.74 12.62L18.43 12.62L18.43 13.19L16.74 13.19M16.74 14.36L16.74 13.79L18.43 13.79L18.43 14.36L16.74 14.36M16.74 15.56L16.74 14.99L18.43 14.99L18.43 15.56L16.74 15.56M16.74 16.73L16.74 16.16L18.43 16.16L18.43 16.73L16.74 16.73M16.74 8.46L16.74 7.89L18.43 7.89L18.43 8.46L16.74 8.46M16.74 17.90L16.74 17.35L18.43 17.35L18.43 17.90L16.74 17.90M20.33 21.70Q20.28 21.21 20.09 20.24L19.98 19.56L19.95 19.47Q19.82 19.20 19.44 19.07Q19.05 18.93 18.33 18.93Q17.61 18.93 17.22 19.07Q16.82 19.20 16.69 19.47L16.66 19.56L16.55 20.24Q16.36 21.21 16.31 21.70Q16.25 22.08 16.55 22.32Q16.85 22.55 17.42 22.57L19.22 22.57Q19.79 22.55 20.09 22.32Q20.39 22.08 20.33 21.70M18.35 20.92L18.29 20.92Q17.88 20.92 17.64 20.74Q17.40 20.56 17.38 20.25Q17.37 19.94 17.63 19.73Q17.88 19.53 18.29 19.56L18.35 19.53Q18.76 19.53 19.01 19.73Q19.27 19.94 19.26 20.25Q19.24 20.56 19 20.74Q18.76 20.92 18.35 20.92"/>
</svg>