<?xml version="1.0" encoding="UTF-8"?>
<svg xmlns="http://www.w3.org/2000/svg" width="32" height="32" viewBox="0 0 32 32">
  <path fill="#dd4b78" d="M23.08 18.77Q23.03 18.77 22.97 18.71Q22.78 18.60 22.64 18.60L22.64 14.20Q22.92 14.20 23.08 14.03Q23.68 13.68 23.87 13.01Q24.06 12.35 23.71 11.74Q23.35 11.12 22.67 10.95Q21.99 10.77 21.39 11.12Q21.15 11.23 21.04 11.48L17.20 9.27Q17.20 9.11 17.26 8.97Q17.31 8.84 17.29 8.76Q17.31 8.05 16.81 7.55Q16.31 7.04 15.60 7.04Q14.89 7.04 14.40 7.55Q13.91 8.05 13.91 8.76Q13.91 9.08 14 9.27L10.16 11.48Q10.11 11.34 9.92 11.20L9.83 11.12Q9.21 10.77 8.53 10.95Q7.85 11.12 7.52 11.71Q7.20 12.29 7.37 12.96Q7.55 13.63 8.12 14.03L8.23 14.09Q8.42 14.20 8.56 14.20L8.56 18.60Q8.28 18.60 8.12 18.79Q7.52 19.12 7.33 19.79Q7.14 20.45 7.49 21.06Q7.85 21.68 8.53 21.85Q9.21 22.03 9.83 21.68Q10.05 21.57 10.16 21.32L14 23.55Q14 23.69 13.95 23.83Q13.91 23.96 13.89 24.04Q13.91 24.75 14.40 25.25Q14.89 25.76 15.60 25.76Q16.31 25.76 16.81 25.25Q17.31 24.75 17.31 24.04Q17.31 23.72 17.20 23.55L21.04 21.32Q21.12 21.51 21.48 21.68Q22.05 22 22.71 21.83Q23.38 21.65 23.76 21.08Q24.09 20.51 23.87 19.84Q23.65 19.17 23.08 18.77M20.60 19.88L10.60 19.88Q10.60 19.64 10.40 19.45Q10.32 19.28 10.16 19.12L15.16 10.36Q15.27 10.36 15.46 10.42L15.60 10.44Q15.95 10.44 16.04 10.36L21.04 19.12Q20.80 19.36 20.80 19.45L20.71 19.58Q20.60 19.77 20.60 19.88M16.88 9.84L20.60 12.08Q20.47 12.81 20.80 13.33Q21.18 13.98 21.80 14.12L21.80 18.52L21.72 18.52L16.80 9.93L16.88 9.84M10.51 12.16L14.40 9.84Q14.40 9.87 14.40 9.90L14.40 9.84L9.40 18.60L9.32 18.60L9.32 14.20Q9.94 14.06 10.32 13.44Q10.65 12.89 10.51 12.16M20.60 20.72L16.80 22.96Q16.28 22.44 15.60 22.44Q14.78 22.44 14.40 22.96L10.60 20.72L10.60 20.64L20.60 20.64"/>
</svg>