<?xml version="1.0" encoding="UTF-8"?>
<svg xmlns="http://www.w3.org/2000/svg" width="32" height="32" viewBox="0 0 32 32">
  <path fill="#3b4b52" d="M25.80 12.40L5.40 12.40L5.40 19.20L11.19 19.20L11.19 20.40L15.68 20.40L15.68 19.28L25.80 19.28L25.80 12.40M11 13.60L11 18.09L9.92 18.09L9.92 14.80L8.80 14.80L8.80 18.09L6.52 18.09L6.52 13.60L11 13.60M16.61 18.09L16.63 18.09L14.32 18.09L14.32 19.28L12.04 19.28L12.04 13.68L16.52 13.68Q16.63 15.04 16.61 18.09M24.60 13.60L24.60 18.09L23.52 18.09L23.52 14.80L22.40 14.80L22.40 18.09L21.20 18.09L21.20 14.80L20.12 14.80L20.12 18.09L17.80 18.09L17.80 13.60L24.60 13.60M15.52 17L15.52 14.80L14.40 14.80L14.40 17"/>
</svg>