<?xml version="1.0" encoding="UTF-8"?>
<svg xmlns="http://www.w3.org/2000/svg" width="32" height="32" viewBox="0 0 32 32">
  <path fill="#cc6d2e" d="M26.04 15.69L26.02 15.50Q25.91 14.82 25.85 14.47L25.58 15.04L25.53 15.04Q25.80 12.56 24.11 11.10L24.06 11.23Q23.79 10.88 23.13 10.42Q23.05 10.66 23.27 10.88Q24.06 11.59 24.52 12.40L24.60 12.54Q24.33 12.16 23.65 11.50L23.38 11.23Q22.62 10.42 21.39 10.04L21.04 9.93L21.34 10.20Q21.91 10.63 22.18 10.88Q22.51 11.20 22.79 11.57Q23.08 11.94 23.11 12.08Q22.43 11.53 21.80 11.48Q23.49 13 23.30 15.20Q23.05 14.74 22.67 14.50L22.78 15.53Q22.86 16.32 22.78 16.73L22.62 17.46L22.43 17.08L22.35 17.46Q22.18 18.06 22.10 18.36Q21.91 19.04 21.48 19.45Q21.37 19.53 21.23 19.61Q21.20 19.64 21.15 19.64L21.09 19.64L21.09 19.45L21.04 19.45Q20.96 19.45 20.93 19.47Q20.82 19.58 20.71 19.69Q20.52 19.96 20.20 20.15L20.25 19.94L19.54 20.10Q19.11 20.18 18.89 20.21Q18.54 20.26 18.24 20.21Q17.78 20.13 17.56 19.88L18.02 19.88Q17.94 19.80 17.86 19.77L17.04 19.58Q16.66 19.47 16.48 19.36Q16.31 19.26 16.01 18.93L15.95 18.88Q15.11 18.06 15.30 16.73Q15.36 16.32 15.41 16.13Q15.52 15.83 15.76 15.64Q15.49 15.45 15.19 15.45Q14.76 15.42 14.38 15.71Q14 15.99 13.86 16.43Q13.51 17.46 14.27 18.47L14.35 18.58Q13.86 18.17 13.68 17.47Q13.51 16.78 13.78 16.16Q14 15.64 14.44 15.38Q14.89 15.12 15.40 15.20Q15.90 15.28 16.28 15.67L16.42 15.83Q16.50 15.58 16.48 15.27Q16.47 14.96 16.33 14.77Q15.65 13.84 15.86 12.82Q16.06 11.80 16.88 11.01L16.99 10.91Q16.42 10.77 15.79 11.15Q15.16 11.53 14.57 12.35L14.68 11.69L14.46 11.67Q13.21 11.50 12.25 12.29Q11.33 13.03 10.92 14.36L10.60 15.53L10.62 15.53L10.84 15.20Q10.73 15.80 10.68 16.51Q10.62 17.22 10.65 17.57L10.81 17.08Q11.17 19.69 12.83 21.43Q13.64 22.28 14.99 23.05Q16.33 23.83 16.93 23.77L16.63 23.58Q16.80 23.61 17.10 23.69L17.37 23.74L18.27 23.96L18.76 23.96L18.51 23.74L19.35 23.69Q20.60 23.61 21.83 23.17Q22.18 23.06 22.51 22.76Q22.73 22.55 23.03 22.17Q23.13 22 23.27 21.92Q24.47 21.27 25.15 20.04Q25.47 19.47 25.31 18.74Q25.28 18.60 25.34 18.47L25.50 18.09Q25.69 17.71 25.76 17.50Q25.83 17.30 25.94 16.86L26.04 16.45L26.04 15.69M15.84 17.03L15.60 16.86Q15.49 17.46 15.76 18.06Q16.04 18.66 16.55 18.96Q16.61 18.98 16.69 18.98Q17.94 19.07 18.84 18.33L19.03 18.17Q19.27 17.95 19.65 18Q19.79 18.03 19.86 17.96Q19.92 17.90 19.90 17.76Q19.84 17.46 19.57 17.30Q18.73 16.86 17.94 17.30Q17.72 17.43 17.50 17.49Q16.99 17.62 16.39 17.32Q16.23 17.24 15.84 17.03M13.07 11.31L13.12 11.29Q13.18 11.23 13.21 11.20Q16.01 8.59 19.68 9.36Q20.28 9.49 21.45 9.84L22.21 10.06Q20.80 9.08 19.05 8.91Q17.31 8.73 15.67 9.30Q14.02 9.87 12.85 11.12L13.07 11.31M18.10 13.33Q18.13 13.16 18.08 13.11Q18.02 13.05 17.88 13.03Q17.61 13 17.04 13L16.91 13Q16.66 12.97 16.55 12.95Q16.33 12.92 16.20 12.76Q16.04 13.14 16.17 13.73Q16.31 14.33 16.61 14.60L16.93 14.41Q17.42 14.14 17.69 14.01Q18.08 13.82 18.10 13.33M12.91 11.50Q12.39 11.07 12.34 10.33Q11.93 10.77 11.74 11.34Q11.60 11.80 11.57 12.46Q12.20 11.80 12.91 11.50"/>
</svg>