<?xml version="1.0" encoding="UTF-8"?>
<svg xmlns="http://www.w3.org/2000/svg" width="32" height="32" viewBox="0 0 32 32">
  <path fill="#b8383d" d="M20.96 23.12L18.67 18.52Q18.59 18.39 18.61 18.32Q18.62 18.25 18.76 18.20Q19.52 17.81 20.03 17.16Q20.71 16.35 21.03 15.34Q21.34 14.33 21.20 13.26Q21.07 12.18 20.60 11.40Q20.58 11.34 20.54 11.26Q20.50 11.18 20.44 11.12Q20.22 10.91 19.87 10.72Q19.63 10.61 19.16 10.44Q18.65 10.36 18.40 10.36Q17.99 10.33 17.67 10.43Q17.34 10.52 17.16 10.61Q16.99 10.69 16.88 10.88Q16.28 11.59 16.52 12.48Q16.66 12.95 16.96 13.35Q17.18 13.65 17.64 14.01Q17.99 14.20 18.24 14.28Q18.40 14.28 18.50 14.24Q18.59 14.20 18.67 14.01Q18.76 13.92 18.76 13.68Q18.76 13.35 18.56 12.84Q18.40 12.48 18.40 12.32Q18.51 12.62 18.81 13.16L19 13.52Q19.08 13.71 19.05 13.94Q19.03 14.17 18.92 14.36L18.76 14.52Q18.54 14.69 18.12 15.08Q17.69 15.48 17.48 15.64Q16.58 16.40 15.95 17.16Q15.25 18 14.08 19.72Q13.75 20.15 13.23 21.02L12.88 21.60Q12.72 21.84 12.42 22.34Q12.12 22.85 11.97 23.10Q11.82 23.36 11.49 23.85L11.36 24.04L21.20 24.04Q21.39 24.04 21.46 23.93Q21.53 23.83 21.48 23.64Q21.23 23.50 21.12 23.36Q21.04 23.28 20.96 23.12M12.80 15.64Q12.99 15.31 13.34 14.63Q14.29 12.95 14.84 12.16Q15.52 11.12 15.84 10.72Q16.39 10.17 16.96 9.93Q17.86 9.76 18.40 9.84Q19.46 9.98 20.20 10.72L20.36 10.88L20.36 10.80Q18.73 8.76 16.28 8.76L10.16 8.76Q9.92 8.76 9.92 9.08L9.92 21.32Q10.32 20.24 11.52 18Q11.96 17.16 12.80 15.64"/>
</svg>