<?xml version="1.0" encoding="UTF-8"?>
<svg xmlns="http://www.w3.org/2000/svg" width="32" height="32" viewBox="0 0 32 32">
  <path fill="#498ba7" d="M23.16 12.65Q23.68 12.16 23.68 11.23Q23.68 10.31 23.04 9.65Q22.40 9 21.48 9Q20.96 9 20.28 9.36Q18.29 7.89 15.60 7.89Q13.29 7.89 11.33 9.06Q9.40 10.20 8.26 12.13Q7.09 14.09 7.10 16.40Q7.11 18.71 8.26 20.67Q9.40 22.60 11.33 23.74Q13.29 24.91 15.60 24.90Q17.91 24.89 19.87 23.74Q21.80 22.60 22.94 20.67Q24.11 18.71 24.11 16.40Q24.11 14.39 23.16 12.65M15.60 23.53Q13.64 23.55 11.98 22.55Q10.35 21.62 9.41 19.98Q8.47 18.33 8.47 16.40Q8.47 14.47 9.44 12.84Q10.40 11.20 12.04 10.24Q13.67 9.27 15.60 9.27Q17.80 9.25 19.52 10.44Q19.35 10.96 19.33 11.20Q19.35 12.13 19.98 12.78Q20.60 13.44 21.56 13.44Q21.88 13.44 22.07 13.33Q22.75 14.85 22.75 16.40Q22.75 18.36 21.80 20Q20.85 21.65 19.20 22.59Q17.56 23.53 15.60 23.53M15.60 12.92Q14.65 12.92 13.85 13.38Q13.04 13.84 12.55 14.63Q12.06 15.42 12.05 16.39Q12.04 17.35 12.50 18.15Q12.96 18.96 13.75 19.45Q14.54 19.94 15.50 19.95Q16.47 19.96 17.27 19.50Q18.08 19.04 18.56 18.25Q19.05 17.46 19.07 16.50Q19.08 15.53 18.62 14.70Q18.16 13.87 17.35 13.39Q16.55 12.92 15.60 12.92"/>
</svg>