<?xml version="1.0" encoding="UTF-8"?>
<svg xmlns="http://www.w3.org/2000/svg" width="32" height="32" viewBox="0 0 32 32">
  <path fill="#cc6d2e" d="M23.24 19.88L23.16 19.80L21.48 16.40L23.16 13L23.24 12.92L23.24 8.76L19.08 8.76L19 8.84L15.60 10.52L12.20 8.84L12.12 8.76L7.96 8.76L7.96 12.92L8.04 13L9.72 16.40L8.04 19.80L7.96 19.88L7.96 24.04L12.12 24.04L12.20 23.96L15.60 22.28L19 23.96L19.08 24.04L23.24 24.04L23.24 19.88M22.32 9.68L20.71 16.05L15.95 11.29L22.32 9.68M15.27 11.29L10.51 16.05L8.88 9.68L15.27 11.29M8.88 23.12L10.51 16.73L15.27 21.49L8.88 23.12M15.95 21.49L20.71 16.73L22.32 23.12"/>
</svg>