<?xml version="1.0" encoding="UTF-8"?>
<svg xmlns="http://www.w3.org/2000/svg" width="32" height="32" viewBox="0 0 32 32">
  <path fill="#3b4b52" d="M7.96 16.56L7.96 16.32Q7.98 16.10 8.09 15.94Q8.17 15.83 8.34 15.64L8.56 15.39L12.80 11.12L12.83 11.15Q12.88 11.15 12.88 11.20L14.40 12.76Q14.54 12.86 14.40 13Q14.35 13.38 14.48 13.73Q14.62 14.09 14.92 14.28Q15.03 14.33 15.06 14.40Q15.08 14.47 15.08 14.60L15.08 18.36Q15.08 18.52 14.92 18.68Q14.59 18.90 14.44 19.26Q14.29 19.61 14.42 19.98Q14.54 20.34 14.84 20.59Q15.14 20.83 15.52 20.83Q15.90 20.83 16.20 20.62Q16.50 20.40 16.62 20.03Q16.74 19.66 16.63 19.31Q16.52 18.96 16.20 18.68Q16.09 18.63 16.06 18.56Q16.04 18.49 16.04 18.36L16.04 14.52L16.12 14.52L17.48 15.88Q17.53 15.94 17.53 16.02L17.56 16.07L17.56 16.56Q17.61 17.08 18.01 17.37Q18.40 17.65 18.92 17.58Q19.44 17.52 19.75 17.08Q20.06 16.64 19.92 16.16Q19.87 15.72 19.45 15.43Q19.03 15.15 18.56 15.20Q18.40 15.20 18.24 15.12L16.80 13.68Q16.72 13.60 16.72 13.44Q16.80 13.05 16.61 12.70Q16.42 12.35 16.06 12.17Q15.71 11.99 15.36 12.08Q15.08 12.08 15.08 11.99Q14.08 10.96 13.56 10.52Q13.42 10.42 13.56 10.28Q13.86 10.06 14.32 9.52L14.68 9.16Q15.44 8.40 16.20 9.16L22.64 15.64Q23.43 16.40 22.64 17.16L16.33 23.50Q16.09 23.74 15.98 23.83Q15.76 24.02 15.52 24.04L15.36 24.04L15.22 23.99Q14.89 23.85 14.76 23.72L14.24 23.20Q13.48 22.49 13.12 22.08L8.47 17.43Q8.42 17.30 8.23 17.08Q7.98 16.75 7.96 16.56"/>
</svg>