<?xml version="1.0" encoding="UTF-8"?>
<svg xmlns="http://www.w3.org/2000/svg" width="32" height="32" viewBox="0 0 32 32">
  <path fill="#627379" d="M20.44 9.60L20.44 9.93L20.44 10.44L20.52 10.52L20.60 10.52Q20.74 10.50 21 10.46Q21.26 10.42 21.38 10.36Q21.50 10.31 21.60 10.40Q21.69 10.50 21.64 10.62Q21.58 10.74 21.54 11Q21.50 11.26 21.48 11.40L21.48 11.48L21.56 11.56Q21.56 11.64 21.72 11.64L22.48 11.64Q22.75 11.64 22.73 11.88L22.73 12.08Q22.67 12.24 22.51 12.56L22.40 12.76L22.40 12.84L22.45 12.89Q22.48 12.95 22.48 13L22.56 13Q22.70 13.05 22.96 13.10Q23.22 13.14 23.34 13.15Q23.46 13.16 23.52 13.31Q23.57 13.46 23.52 13.60L23.30 13.90Q23.13 14.09 23.08 14.20L23.08 14.36Q23.08 14.41 23.16 14.47L23.24 14.52L23.92 14.80Q24.06 14.85 24.10 14.97Q24.14 15.09 24 15.20Q23.68 15.56 23.43 15.72L23.43 15.96L23.46 16.02Q23.54 16.05 23.60 16.05L23.79 16.18Q24.03 16.35 24.17 16.40Q24.30 16.45 24.30 16.60Q24.30 16.75 24.20 16.84L23.52 17.24L23.52 17.32Q23.52 17.46 23.52 17.49Q23.52 17.52 23.60 17.60Q23.92 17.92 24.11 18Q24.22 18.14 24.18 18.25Q24.14 18.36 24 18.44Q23.52 18.60 23.32 18.68L23.30 18.71Q23.24 18.74 23.22 18.79Q23.19 18.85 23.24 18.96L23.24 19.04Q23.38 19.15 23.54 19.45L23.68 19.64Q23.73 19.69 23.72 19.80Q23.71 19.91 23.60 19.96L23.52 19.99L23.41 20.04Q23.30 20.04 23.08 20.10Q22.86 20.15 22.75 20.15L22.64 20.15Q22.64 20.18 22.60 20.22Q22.56 20.26 22.56 20.32L22.59 20.40L22.64 20.48L22.92 21.08Q22.97 21.13 22.93 21.24Q22.89 21.35 22.84 21.40L21.80 21.40Q21.72 21.51 21.72 21.68Q21.77 21.79 21.82 22Q21.86 22.22 21.91 22.34Q21.96 22.47 21.86 22.57Q21.75 22.68 21.56 22.68Q21.42 22.66 21.16 22.62Q20.90 22.57 20.80 22.52L20.71 22.52L20.58 22.66Q20.55 22.68 20.60 22.68L20.60 23.44Q20.60 23.72 20.36 23.72L20.20 23.72Q19.84 23.61 19.52 23.36L19.44 23.36Q19.35 23.36 19.30 23.42Q19.24 23.47 19.24 23.55Q19.24 23.66 19.20 23.88Q19.16 24.10 19.16 24.22Q19.16 24.34 19.01 24.40Q18.86 24.45 18.76 24.40Q18.48 24.12 18.16 23.96L18.08 23.96Q17.99 23.96 17.94 24.02Q17.88 24.07 17.88 24.12L17.64 24.80Q17.56 25 17.40 25Q17.34 25 17.31 24.94L17.29 24.91Q16.96 24.56 16.80 24.32L16.61 24.32Q16.55 24.32 16.50 24.37Q16.44 24.42 16.44 24.48L16.12 25.08Q16.04 25.19 15.89 25.19Q15.74 25.19 15.68 25.08L15.25 24.40L15 24.40L14.40 25Q14.32 25.08 14.08 25.08Q14 25.08 14 24.91L13.72 24.10Q13.70 24.04 13.64 24.04L13.40 24.04Q13.26 24.18 12.99 24.34L12.80 24.48L12.64 24.40Q12.39 24.29 12.30 24.22Q12.20 24.15 12.20 24.04Q12.12 23.80 12.12 23.28L12.09 23.25Q12.09 23.20 12.04 23.20Q11.98 23.20 11.94 23.16Q11.90 23.12 11.87 23.12L11.76 23.12L11.68 23.20L11.08 23.44Q10.98 23.53 10.87 23.47Q10.76 23.42 10.76 23.28L10.76 22.36L10.68 22.28L10.60 22.28Q10.46 22.30 10.20 22.34Q9.94 22.38 9.82 22.44Q9.70 22.49 9.60 22.40Q9.51 22.30 9.56 22.18Q9.62 22.06 9.66 21.80Q9.70 21.54 9.72 21.40L9.72 21.32L9.64 21.24L8.80 21.24Q8.56 21.24 8.56 21L8.56 20.81Q8.61 20.64 8.80 20.32L8.88 20.13L8.88 20.02Q8.85 19.96 8.80 19.96Q8.80 19.91 8.75 19.91L8.72 19.88Q8.58 19.88 8.32 19.84Q8.07 19.80 7.94 19.80Q7.82 19.80 7.77 19.65Q7.71 19.50 7.79 19.36Q8.04 19.12 8.20 18.77L8.20 18.60L8.07 18.49Q8.01 18.44 7.96 18.44L7.36 18.20Q7.22 18.11 7.18 17.99Q7.14 17.87 7.28 17.76Q7.41 17.71 7.68 17.49Q7.85 17.32 7.96 17.24L7.96 17.08Q7.96 16.92 7.88 16.92L7.28 16.56Q7.14 16.51 7.14 16.36Q7.14 16.21 7.28 16.16L7.96 15.72L7.96 15.56L7.36 14.96Q7.30 14.90 7.30 14.80Q7.30 14.69 7.36 14.60L7.39 14.60Q7.44 14.58 7.44 14.52L8.20 14.28L8.20 14.20Q8.26 14.14 8.23 14.01L8.20 13.92Q8.12 13.84 8 13.68Q7.88 13.52 7.79 13.41Q7.71 13.30 7.77 13.15Q7.82 13 7.94 12.97Q8.07 12.95 8.32 12.90Q8.58 12.86 8.72 12.84L8.80 12.84Q8.80 12.78 8.84 12.74Q8.88 12.70 8.88 12.65L8.88 12.56L8.80 12.48L8.56 11.88Q8.47 11.78 8.53 11.67Q8.58 11.56 8.72 11.56L9.64 11.56L9.67 11.50Q9.67 11.48 9.72 11.48L9.72 11.40Q9.56 10.88 9.56 10.63Q9.51 10.50 9.60 10.40Q9.70 10.31 9.83 10.36Q10.08 10.36 10.60 10.52L10.68 10.52L10.79 10.42Q10.81 10.36 10.76 10.36L10.76 9.60Q10.76 9.36 11 9.36L11.19 9.36Q11.36 9.41 11.68 9.60L11.87 9.68L11.98 9.68Q12.04 9.65 12.04 9.60Q12.09 9.60 12.09 9.55L12.12 9.52Q12.12 9.38 12.16 9.12Q12.20 8.87 12.20 8.74Q12.20 8.62 12.35 8.57Q12.50 8.51 12.64 8.57Q12.88 8.84 13.23 9L13.40 9L13.48 8.92L13.48 8.87Q13.51 8.81 13.56 8.76L13.80 8.16Q13.89 8.05 13.94 8.02Q14 8 14.16 8L14.24 8.08Q14.29 8.21 14.51 8.48Q14.68 8.65 14.76 8.76L14.84 8.76Q14.89 8.76 14.95 8.70L15 8.68L15.36 8.08Q15.46 7.94 15.59 7.93Q15.71 7.91 15.76 8L15.84 8.08L16.28 8.76L16.52 8.76Q16.58 8.76 16.61 8.70L16.63 8.68Q16.96 8.32 17.04 8.16Q17.10 8.10 17.20 8.10Q17.31 8.10 17.40 8.16L17.40 8.24Q17.56 8.76 17.64 8.92L17.72 9L17.88 9Q18.27 8.87 18.56 8.57Q18.70 8.51 18.85 8.57Q19 8.62 19 8.74Q19 8.87 19.04 9.12Q19.08 9.38 19.08 9.52L19.11 9.55Q19.11 9.60 19.16 9.60L19.24 9.60Q19.33 9.65 19.38 9.65Q19.44 9.65 19.44 9.60Q19.60 9.52 20.12 9.36Q20.25 9.27 20.35 9.34Q20.44 9.41 20.44 9.60M11 12.24L17.48 12.24Q17.99 12.24 18.24 12.32Q19.05 12.59 19.44 13.08Q19.84 13.52 19.84 14.12Q19.84 14.60 19.60 15.12Q19.33 15.53 18.92 15.80Q18.76 15.96 18.65 15.96Q18.70 16.02 18.78 16.06Q18.86 16.10 18.92 16.16L19.05 16.26Q19.35 16.54 19.44 16.73Q19.68 17.13 19.68 17.60Q19.68 17.68 19.84 17.84Q19.95 17.95 20.17 18Q20.28 18 20.54 18Q20.80 18 20.96 17.84Q21.07 17.73 21.15 17.52L21.20 17.32L21.20 16.92Q21.20 16.84 21.22 16.84Q21.23 16.84 21.28 16.84L21.88 16.84L21.88 15.72Q21.77 15.67 21.52 15.54Q21.26 15.42 21.12 15.37Q21.09 15.34 20.96 15.30Q20.82 15.26 20.80 15.20Q20.39 15.07 20.52 14.52Q20.88 13.68 21.12 13.24L21.12 13.16Q20.80 12.65 20.60 12.43Q20.28 12.02 19.92 11.72Q18.67 10.58 16.88 10.20L16.80 10.20Q16.28 10.72 15.95 10.96Q15.82 11.10 15.60 11.10Q15.38 11.10 15.25 10.96L14.48 10.20L14.40 10.20Q14.08 10.28 13.56 10.44Q12.23 10.93 11.17 11.97Q11 12.16 11 12.24M20.60 20.04L18.08 20.04Q17.80 20.04 17.72 19.96Q17.29 19.75 17.12 19.12L17.10 18.96Q16.96 18.47 16.96 18.20Q16.96 18 16.81 17.68Q16.66 17.35 16.42 17.18Q16.17 17 15.84 17L14.32 17L14.32 18.09L15.84 18.09Q15.93 18.09 15.94 18.10Q15.95 18.11 15.95 18.20L15.95 19.88Q15.95 19.94 15.94 19.95Q15.93 19.96 15.84 19.96L10.76 19.96Q10.92 20.24 11.28 20.56L11.36 20.56Q12.04 20.40 12.36 20.40Q12.55 20.34 12.73 20.44Q12.91 20.53 12.96 20.72L13.23 21.84L13.23 21.92Q13.91 22.19 14.24 22.28Q14.81 22.44 15.25 22.44Q15.65 22.49 16.14 22.47Q16.44 22.44 17.04 22.36Q17.48 22.28 18.32 21.92L18.32 21.84L18.56 20.72Q18.73 20.29 19.16 20.40L20.20 20.64L20.28 20.64Q20.28 20.40 20.60 20.04M11.52 14.12L10.51 14.12L10.76 14.60L10.79 14.69Q10.81 14.82 10.76 14.88Q10.76 15.01 10.57 15.15L10.51 15.20Q9.83 15.56 9.48 15.64L9.43 15.64Q9.40 15.67 9.40 15.72L9.40 16.16Q9.40 17 9.64 18L9.67 18.06Q9.67 18.11 9.72 18.11L11.52 18.11L11.52 14.12M14.16 15.28Q14.19 15.28 14.21 15.28L14.16 15.28L16.12 15.28Q16.44 15.28 16.63 15.20L16.72 15.15Q16.82 15.07 16.88 14.94Q16.93 14.82 16.92 14.65Q16.91 14.47 16.80 14.36Q16.52 14.12 16.20 14.12L14.08 14.12Q14.16 14.52 14.16 15.28M9.04 14.44Q9.04 14.63 9.21 14.80Q9.37 14.96 9.56 14.96Q9.75 14.96 9.92 14.80Q10.08 14.63 10.08 14.44Q10.08 14.25 9.92 14.09Q9.75 13.92 9.56 13.92Q9.37 13.92 9.21 14.09Q9.04 14.25 9.04 14.44M19.84 21.60Q19.84 21.40 19.69 21.24Q19.54 21.08 19.34 21.08Q19.14 21.08 18.99 21.24Q18.84 21.40 18.84 21.60Q18.84 21.79 18.99 21.94Q19.14 22.08 19.34 22.08Q19.54 22.08 19.69 21.95Q19.84 21.81 19.84 21.60M11.87 21.08Q11.66 21.08 11.51 21.24Q11.36 21.40 11.36 21.60Q11.36 21.79 11.51 21.94Q11.66 22.08 11.86 22.08Q12.06 22.08 12.21 21.94Q12.36 21.79 12.36 21.60Q12.36 21.40 12.21 21.24Q12.06 21.08 11.87 21.08M16.12 9.93Q16.12 9.74 15.98 9.59Q15.84 9.44 15.61 9.44Q15.38 9.44 15.23 9.57Q15.08 9.71 15.08 9.93Q15.08 10.14 15.22 10.29Q15.36 10.44 15.60 10.44Q15.95 10.44 16.12 9.93M21.64 15.04Q21.83 15.04 21.99 14.88Q22.16 14.71 22.16 14.52Q22.16 14.33 21.99 14.17Q21.83 14.01 21.64 14.01Q21.45 14.01 21.28 14.17Q21.12 14.33 21.12 14.54Q21.12 14.74 21.26 14.89Q21.39 15.04 21.64 15.04"/>
</svg>