<?xml version="1.0" encoding="UTF-8"?>
<svg xmlns="http://www.w3.org/2000/svg" width="32" height="32" viewBox="0 0 32 32">
  <path fill="#cc6d2e" d="M23.32 15.96Q23.24 15.94 23.03 15.83Q22.70 15.69 22.48 15.64Q21.34 15.31 19.05 14.96L17.88 14.80Q17.78 14.80 17.50 14.74Q17.23 14.69 17.04 14.71Q17.12 14.36 17.29 14.22Q17.45 14.09 17.88 14.01Q17.94 14.06 17.98 14.18Q18.02 14.31 18.05 14.37Q18.08 14.44 18.13 14.47Q18.18 14.50 18.24 14.44L18.84 14.44Q19.60 14.31 20.12 13.90Q20.63 13.49 20.96 12.76Q21.12 12.08 21.20 11.80Q21.37 10.63 22.05 9.93L22.24 9.76Q21.61 9.60 20.80 9.80Q19.98 10.01 19.24 10.52Q18.46 11.12 18.08 11.97Q17.99 11.94 17.78 11.90Q17.56 11.86 17.48 11.83Q17.40 11.80 17.35 11.75Q17.31 11.69 17.31 11.64Q16.77 10.20 15.44 9.36Q14.95 9.06 14.27 8.95Q13.67 8.84 13.04 8.92Q10.40 9.30 8.72 11.40Q7.90 12.40 7.51 13.63Q7.11 14.85 7.20 16.16Q7.30 18.79 8.88 21.16Q9.15 21.54 9.92 22.28L10.24 22.60Q10.70 22.87 11.22 22.83Q11.74 22.79 12.12 22.44Q12.15 22.38 12.24 22.26Q12.34 22.14 12.36 22.08Q12.36 22.14 12.40 22.18Q12.44 22.22 12.44 22.28Q12.53 22.41 12.66 22.79Q12.80 23.23 12.88 23.36Q13.02 23.64 13.38 23.77Q13.75 23.91 14.08 23.80Q14.19 23.66 14.32 23.80Q14.84 24.04 15.36 23.80Q15.41 23.77 15.52 23.66Q15.65 23.55 15.76 23.51Q15.87 23.47 16.12 23.53L16.28 23.55Q16.66 23.47 16.85 23.31Q17.12 23.09 17.12 22.68L17.15 22.66Q17.15 22.60 17.20 22.60Q17.34 22.55 17.45 22.42Q17.56 22.30 17.56 22.17Q17.67 21.81 17.56 21.32L17.29 20.86Q16.93 20.15 16.72 19.88L16.63 19.80Q17.12 19.96 17.48 20.04Q18.24 20.21 18.65 19.80Q18.70 19.80 18.74 19.84Q18.78 19.88 18.84 19.88Q19.33 20.21 19.95 20.10Q20.58 19.99 20.96 19.56L21.12 19.56Q21.91 19.66 22.48 19.20Q22.64 19.04 22.73 18.93Q22.84 18.77 22.84 18.60L22.84 18.52Q23.49 18.47 23.79 18.17Q24.09 17.87 24.09 17.24Q24.03 16.75 23.87 16.45Q23.71 16.16 23.32 15.96M19.60 13.68Q19.08 13.92 18.40 13.92L18.37 13.92Q18.32 13.90 18.29 13.83Q18.27 13.76 18.22 13.60Q18.18 13.44 18.17 13.35Q18.16 13.27 18.17 13.26Q18.18 13.24 18.24 13.24Q18.46 13.24 18.51 13.30Q18.56 13.35 18.56 13.60Q18.70 13.41 18.76 13.38Q18.81 13.35 19 13.44Q19.08 13.46 19.26 13.50Q19.44 13.54 19.52 13.60L19.65 13.68Q19.65 13.68 19.60 13.68M18.48 11.88Q18.84 11.26 19.76 10.52Q20.47 10.12 21.12 10.12Q20.96 10.28 20.88 10.44Q20.69 10.69 20.58 11.31L20.52 11.64Q20.36 12.48 20.20 12.92Q20.20 13.03 20.09 13.14Q20.03 13.22 20.03 13.24Q19.82 13.05 19.38 12.73L19.16 12.56L19.16 12.40L19.27 12.21Q19.60 11.67 19.79 11.40Q20.09 10.96 20.44 10.72Q19.87 10.93 19.49 11.40Q19.22 11.69 18.84 12.40L18.40 12.16Q18.40 12.10 18.44 12.02Q18.48 11.94 18.48 11.88M16.20 13.33Q16.20 12.59 16.52 12.16Q16.52 12.10 16.63 12.08L16.72 12.08Q17.94 12.18 18.92 12.92Q19 12.95 19.12 13.08Q19.24 13.22 19.33 13.24Q19.24 13.22 19.04 13.18Q18.84 13.14 18.76 13.08Q17.99 12.92 17.40 13.16Q16.96 13.49 16.20 13.33Q16.36 13.52 16.57 13.54Q16.77 13.57 17.04 13.52Q17.26 13.52 17.59 13.38L17.72 13.35Q17.72 13.38 17.69 13.46L17.64 13.52Q17.37 13.71 16.61 14.01L16.36 14.12L16.28 14.12Q16.20 13.84 16.20 13.33M13.64 11.29Q14.24 11.29 14.70 11.75Q15.16 12.21 15.16 12.84Q15.16 13.46 14.73 13.91Q14.29 14.36 13.66 14.36Q13.02 14.36 12.57 13.91Q12.12 13.46 12.12 12.81Q12.12 12.16 12.55 11.72Q12.99 11.29 13.64 11.29M17.56 16.48Q18.24 16.64 18.76 16.64L20.28 16.92Q20.41 16.92 20.44 16.98Q20.47 17.05 20.36 17.16Q20.22 17.35 19.95 17.46Q19.68 17.57 19.44 17.52L19.24 17.52Q19.33 17.62 19.27 17.79Q19.22 17.95 19.08 18Q18.76 18.36 18.24 18.36Q18.16 18.36 17.94 18.32Q17.72 18.28 17.64 18.28Q17.59 18.52 17.31 18.66Q17.04 18.79 16.67 18.77Q16.31 18.74 16.04 18.52Q16.20 19.04 16.28 19.36L16.28 19.64Q16.14 20.59 15.46 21.23Q14.78 21.87 13.80 21.92Q11.96 22.06 10.40 20.92Q9.07 20.04 8.36 18.52Q8.36 18.49 8.32 18.44Q8.28 18.39 8.28 18.36Q8.96 18.52 9.24 18.60Q9.75 18.68 10.11 18.63Q10.60 18.55 11 18.28L11.19 18.28Q12.17 18.55 13.04 18.44Q13.72 18.33 14.29 17.95Q14.81 17.60 15.36 17Q15.60 16.75 15.95 16.07Q16.12 15.80 16.44 15.48L16.63 15.48L18.76 15.72L19.65 15.88Q20.88 16.13 21.56 16.24L21.58 16.24Q21.64 16.26 21.64 16.32L20.77 16.37Q18.62 16.56 17.56 16.48M13.64 13.68Q14.05 13.68 14.31 13.45Q14.57 13.22 14.58 12.84Q14.59 12.46 14.32 12.21Q14.05 11.97 13.66 11.97Q13.26 11.97 12.99 12.24Q12.72 12.51 12.72 12.84Q12.72 13.16 12.98 13.42Q13.23 13.68 13.64 13.68M13.12 12.16Q13.18 12.10 13.33 12.06Q13.48 12.02 13.56 11.97L14 12.16Q14.10 12.21 14.10 12.33Q14.10 12.46 13.98 12.58Q13.86 12.70 13.59 12.70Q13.32 12.70 13.04 12.56Q12.91 12.27 13.12 12.16"/>
</svg>