<?xml version="1.0" encoding="UTF-8"?>
<svg xmlns="http://www.w3.org/2000/svg" width="32" height="32" viewBox="0 0 32 32">
  <path fill="#9068b0" d="M13.91 8.76L7.96 8.76L7.96 24.04L23.24 24.04L23.24 8.76L17.31 8.76Q17.31 9.38 16.77 9.91Q16.23 10.44 15.60 10.44Q14.97 10.44 14.44 9.91Q13.91 9.38 13.91 8.76M13.64 22.36L12.36 17.24L13.40 17.24L14.16 20.18L14.92 17.24L15.68 17.24L16.44 20.18L17.20 17.24L18.24 17.24L16.96 22.36L16.06 22.36L15.30 19.04L15.16 19.75Q14.81 21.43 14.54 22.36L13.64 22.36M17.86 22.36L19.14 17.24L20.66 17.24L21.94 22.36L20.80 22.36L20.52 21.08L19.24 21.08L19 22.36L17.86 22.36M20.41 20.18L20.03 18.28L19.76 18.28L19.38 20.18"/>
</svg>