<?xml version="1.0" encoding="UTF-8"?>
<svg xmlns="http://www.w3.org/2000/svg" width="32" height="32" viewBox="0 0 32 32">
  <path fill="#498ba7" d="M15.60 20.72Q13.53 20.72 11.79 20.04Q10.05 19.36 9.02 18.20Q7.98 17.03 7.98 15.64Q7.98 14.25 9.02 13.08Q10.05 11.91 11.79 11.22Q13.53 10.52 15.60 10.52Q17.67 10.52 19.41 11.22Q21.15 11.91 22.18 13.08Q23.22 14.25 23.22 15.64Q23.22 17.03 22.18 18.20Q21.15 19.36 19.41 20.04Q17.67 20.72 15.60 20.72M16.77 12.54Q15.19 12.54 13.86 13Q12.53 13.46 11.75 14.26Q10.98 15.07 10.98 16.01Q10.98 16.94 11.75 17.75Q12.53 18.55 13.86 19.02Q15.19 19.50 16.77 19.50Q19.30 19.50 20.74 18.66Q22.32 17.76 22.32 16.02Q22.32 14.28 20.74 13.35Q19.30 12.54 16.77 12.54M19.92 18.36L19.57 18.41Q19.71 18.47 19.84 18.52Q20.14 18.60 20.31 18.71Q20.52 18.82 20.69 18.96Q20.74 19.04 20.80 19.12L22.67 22.25L19.73 22.25L18.35 19.69L18.18 19.42Q18.02 19.15 17.91 19.07Q17.69 18.90 17.56 18.90L16.85 18.90L16.85 22.28L14.27 22.28L14.27 13.71L19.49 13.71L19.84 13.73Q20.31 13.82 20.66 14.01Q21.18 14.25 21.48 14.69Q21.86 15.23 21.86 16.01Q21.86 16.78 21.50 17.32Q21.20 17.79 20.71 18.06Q20.36 18.25 19.92 18.36M18.46 15.56L16.88 15.56L16.88 17.03L18.46 17L18.65 16.97Q18.86 16.92 19 16.78Q19.19 16.59 19.16 16.26Q19.19 15.80 18.81 15.64Q18.62 15.56 18.46 15.56"/>
</svg>