<?xml version="1.0" encoding="UTF-8"?>
<svg xmlns="http://www.w3.org/2000/svg" width="32" height="32" viewBox="0 0 32 32">
  <path fill="#498ba7" d="M24.09 17.24L24.11 17.24Q24.11 17.62 23.98 18.25L23.92 18.44L12.72 18.44Q11.60 18.44 11.60 19.56Q11.60 19.99 11.91 20.24Q12.23 20.48 12.80 20.48L23.16 20.48Q22.16 22.41 20.51 23.53Q18.86 24.64 16.67 24.90Q14.48 25.16 12.42 24.32Q10.43 23.47 9.04 21.81Q7.66 20.15 7.28 18Q6.84 15.80 7.55 13.71Q8.26 11.67 9.83 10.18Q11.41 8.70 13.56 8.16Q15.33 7.70 17.14 8.02Q18.95 8.35 20.47 9.38Q21.99 10.42 22.92 11.97Q22.73 12.08 22.24 12.08L16.72 12.08Q16.25 12.08 15.97 12.36Q15.68 12.65 15.68 13.10Q15.68 13.54 15.93 13.78Q16.17 14.01 16.63 14.01L23.76 14.01Q24 14.66 24 15.28L14.76 15.28Q13.56 15.28 13.56 16.32Q13.56 16.75 13.87 17Q14.19 17.24 14.76 17.24L23.32 17.24Q23.71 17.13 24.09 17.24"/>
</svg>