<?xml version="1.0" encoding="UTF-8"?>
<svg xmlns="http://www.w3.org/2000/svg" width="32" height="32" viewBox="0 0 32 32">
  <path fill="#9068b0" d="M11.08 10.36L14.08 10.36Q14.57 11.10 15.55 12.58Q16.52 14.06 17.04 14.80L18.51 16.97Q20.90 20.53 22.07 22.36L19.08 22.36L19 22.28Q18.62 21.68 17.82 20.48Q17.01 19.28 16.63 18.68Q16.58 18.66 16.58 18.64Q16.58 18.63 16.58 18.63Q16.58 18.63 16.58 18.64Q16.58 18.66 16.52 18.68Q16.14 19.28 15.34 20.48Q14.54 21.68 14.16 22.28L14.08 22.36L11.08 22.36L11.08 22.28Q11.74 21.30 13.06 19.34Q14.38 17.38 15 16.40L15 16.32Q14.38 15.34 13.06 13.38Q11.74 11.42 11.08 10.44L11.08 10.36M10.13 22.38L10.08 22.44L7.11 22.44L7.11 22.36L7.39 21.89Q7.90 21.11 8.20 20.72L11 16.48L11 16.40Q8.99 13.16 7.11 10.44L10.08 10.44L10.16 10.52Q10.51 11.01 11.14 11.98Q11.76 12.95 12.12 13.44L12.69 14.28Q13.64 15.67 14.08 16.40L14.08 16.48Q13.32 17.65 11.71 19.99L10.08 22.44L10.13 22.38M24.11 13.84L24.11 15.88L18.76 15.88L17.48 13.92L17.48 13.84L24.11 13.84M24.11 16.92L24.11 18.96Q24.11 18.93 24.11 18.93L24.11 18.96L20.71 18.96L19.44 17L19.44 16.92"/>
</svg>