<?xml version="1.0" encoding="UTF-8"?>
<svg xmlns="http://www.w3.org/2000/svg" width="32" height="32" viewBox="0 0 32 32">
  <path fill="#498ba7" d="M20.28 18.09L13.04 18.09L14.76 13.84L17.56 13.84L18.16 12.56L15.60 12.56L14.76 11.29L15.60 10.04L18.16 10.04L17.56 8.76L14.76 8.76L12.88 11.29L13.64 12.56L8.56 18.96Q8.28 19.28 8.12 19.75Q7.96 20.21 7.96 20.64Q7.96 21.60 8.57 22.33Q9.18 23.06 10.08 23.20L14.70 23.64Q19.49 24.04 20.28 24.04Q21.07 24.04 21.75 23.64Q22.43 23.23 22.84 22.55Q23.24 21.87 23.24 21.08Q23.24 20.29 22.84 19.60Q22.43 18.90 21.75 18.49Q21.07 18.09 20.28 18.09M10.51 21.92Q10 21.92 9.62 21.54Q9.24 21.16 9.24 20.64Q9.24 20.13 9.62 19.75Q10 19.36 10.50 19.36Q11 19.36 11.38 19.75Q11.76 20.13 11.76 20.64Q11.76 21.16 11.38 21.54Q11 21.92 10.51 21.92M20.28 22.76Q19.57 22.76 19.07 22.28Q18.56 21.79 18.56 21.08Q18.56 20.37 19.07 19.87Q19.57 19.36 20.28 19.36Q20.99 19.36 21.48 19.87Q21.96 20.37 21.96 21.08Q21.96 21.79 21.48 22.28Q20.99 22.76 20.28 22.76"/>
</svg>