<?xml version="1.0" encoding="UTF-8"?>
<svg xmlns="http://www.w3.org/2000/svg" width="32" height="32" viewBox="0 0 32 32">
  <path fill="#b8383d" d="M15.60 15.12L15.60 17.76L14.59 17.76Q13.18 17.68 12.47 17.60Q11.33 17.46 10.40 17.16Q9.72 17 8.56 16.48Q8.20 16.40 7.68 16.07Q7.39 15.80 7.25 15.53Q7.11 15.26 7.11 14.88L7.11 12.65Q7.11 12.16 7.52 11.72Q8.07 11.18 9.15 10.88Q10.89 10.25 12.80 10.12L13.02 10.09Q15.16 9.93 16.28 9.93Q19.30 9.93 21.96 10.80Q22.32 10.91 22.97 11.26L23.52 11.56Q24.20 11.97 24.20 12.84L24.20 14.96Q24.20 15.80 23.60 16.16Q23.32 16.35 22.75 16.62L22.48 16.75Q22.43 16.81 22.24 16.75L22.16 16.75Q18.08 15.72 15.95 15.20Q15.76 15.12 15.60 15.12M15.60 20.72L15.60 22.96L13.91 22.96Q11.36 22.79 9.64 22.28Q9.29 22.17 8.75 21.92L7.88 21.49Q7.11 21 7.11 20.04L7.11 18.09Q7.60 18.77 8.47 19.20Q8.96 19.45 10.08 19.80Q12.44 20.40 15.27 20.40Q15.46 20.40 15.53 20.47Q15.60 20.53 15.60 20.72M24.11 18L24.11 20.40Q24.09 20.86 23.60 21.24Q22.75 21.76 22.32 21.92Q22.26 21.98 22.07 21.95L21.88 21.92L15.76 20.40Q15.71 20.40 15.65 20.32L15.60 20.24L15.60 17.84Q15.90 17.92 16.46 18.06Q17.01 18.20 17.31 18.28Q18.10 18.49 19.68 18.88Q21.26 19.26 22.07 19.45L22.40 19.45L22.73 19.26Q23.24 18.96 23.49 18.77Q23.87 18.44 24.11 18"/>
</svg>