<?xml version="1.0" encoding="UTF-8"?>
<svg xmlns="http://www.w3.org/2000/svg" width="32" height="32" viewBox="0 0 32 32">
  <path fill="#9068b0" d="M18.29 13.57L18.29 13.54Q18.51 13.76 18.92 14.17Q19.82 15.15 20.22 15.64Q20.88 16.51 21.18 17.32Q21.53 18.33 21.42 19.47Q21.26 21.60 20.22 23.01Q19.41 24.18 18.10 24.78Q17.07 25.27 15.94 25.31Q14.81 25.35 13.75 25.02Q12.34 24.61 11.38 23.64Q10.19 22.41 9.75 20.43Q9.37 18.68 9.89 16.40Q10.38 14.39 11.47 12.27Q12.50 10.31 13.75 8.85Q15 7.40 16.01 6.99Q15.93 7.89 16.09 9.06Q16.28 10.28 16.66 11.18Q16.36 11.15 16.09 11.15Q14.38 11.15 13.30 12.08Q12.23 13 12.23 14.47Q12.23 15.31 12.65 15.80Q13.07 16.29 14.35 16.84L15.14 17.16Q15.57 17.35 15.82 17.65Q16.06 17.95 16.06 18.36Q16.06 19.04 15.55 19.42Q15.03 19.80 14.16 19.80Q13.45 19.80 12.73 19.51Q12.01 19.23 11.38 18.71L11 20.72Q11.76 21.08 12.58 21.27Q13.32 21.43 14.08 21.43Q15.90 21.43 16.97 20.52Q18.05 19.61 18.05 18.09Q18.05 17.19 17.60 16.59Q17.15 15.99 16.17 15.56L15.36 15.20Q14.13 14.63 14.13 14.06Q14.13 13.49 14.62 13.12Q15.11 12.76 15.87 12.76Q16.63 12.76 17.25 12.96Q17.86 13.16 18.29 13.57M14.35 23.72Q15.46 23.96 15.90 23.96Q16.52 23.99 16.61 23.66Q16.80 22.82 12.01 22.30Q12.44 22.74 13.17 23.19Q13.89 23.64 14.35 23.72"/>
</svg>