<?xml version="1.0" encoding="UTF-8"?>
<svg xmlns="http://www.w3.org/2000/svg" width="32" height="32" viewBox="0 0 32 32">
  <path fill="#bfc2c1" d="M19.35 20.32L17.97 19.01L11.85 19.01L13.23 20.32L19.35 20.32M13.23 15.75L11.85 17.05L17.97 17.05L19.35 15.75L13.23 15.75M19.35 13.79L17.97 12.48L11.85 12.48L13.23 13.79L19.35 13.79M8.23 18.03L11.19 15.07L10.27 14.14L6.84 17.57Q6.65 17.76 6.65 18.03Q6.65 18.30 6.84 18.49L10.27 21.92L11.19 21L8.23 18.03M24.36 14.31L20.93 10.88L20.01 11.80L22.97 14.77L20.01 17.73L20.93 18.66L24.36 15.23Q24.55 15.04 24.55 14.77Q24.55 14.50 24.36 14.31"/>
</svg>