<?xml version="1.0" encoding="UTF-8"?>
<svg xmlns="http://www.w3.org/2000/svg" width="32" height="32" viewBox="0 0 32 32">
  <path fill="#498ba7" d="M11.19 15.12Q11.06 15.12 10.84 15.09Q10.30 15.07 10.08 15.12L9.81 15.15Q8.53 15.31 7.98 15.50Q7.03 15.83 6.52 16.56Q5.59 17.73 5.44 18.98Q5.29 20.24 5.92 21.49Q7.11 23.91 10.08 24.04L13.48 24.04Q16.63 23.93 18.56 21.32Q19.60 20.04 20.12 18.52Q20.31 18 20.59 17.80Q20.88 17.60 21.39 17.60Q21.83 17.65 22.67 17.60L23.32 17.60Q23.62 17.60 23.73 17.54Q23.92 17.46 23.92 17.24L23.98 16.94Q24.06 16.37 24.06 16.10Q24.03 15.64 23.84 15.28Q23.73 15.07 23.49 15.01Q23.35 14.99 23.03 15.03Q22.70 15.07 22.56 15.04L22.16 15.04Q21.80 15.04 21.71 14.92Q21.61 14.80 21.72 14.44Q22.56 12.48 24.36 11.88Q24.49 11.83 24.83 11.80Q25.17 11.78 25.31 11.69Q25.56 11.61 25.64 11.40Q25.77 11.20 25.80 10.88Q25.83 10.69 25.80 10.25L25.80 9.16Q25.80 8.76 25.28 8.76Q23.92 8.89 22.97 9.27Q21.83 9.74 21.12 10.61Q20.36 11.64 19.68 12.89Q19.14 13.95 18.56 15.37L18.40 15.88Q17.86 17.32 17.56 18Q17.01 19.12 16.36 19.88Q15.57 20.81 14.40 21.08Q12.09 21.43 9.56 20.92Q8.94 20.78 8.61 20.37Q8.28 19.96 8.28 19.35Q8.28 18.74 8.66 18.30Q9.04 17.87 9.72 17.68Q10.24 17.57 11.25 17.54Q11.96 17.54 12.31 17.53Q12.66 17.52 12.81 17.37Q12.96 17.22 12.96 16.84L12.96 16.35Q12.96 15.58 12.93 15.39Q12.88 15.12 12.66 15.07Q12.53 15.01 11.93 15.04L11.28 15.04Q11.33 15.09 11.30 15.11Q11.28 15.12 11.19 15.12"/>
</svg>