<?xml version="1.0" encoding="UTF-8"?>
<svg xmlns="http://www.w3.org/2000/svg" width="32" height="32" viewBox="0 0 32 32">
  <path fill="#9068b0" d="M8.28 20.04Q8.28 20.94 8.73 21.70Q9.18 22.47 9.94 22.91Q10.70 23.36 11.60 23.36Q12.50 23.36 13.26 22.91Q14.02 22.47 14.47 21.70Q14.92 20.94 14.92 20.04Q14.92 19.15 14.47 18.39Q14.02 17.62 13.26 17.18Q12.50 16.73 11.60 16.73Q10.70 16.73 9.94 17.18Q9.18 17.62 8.73 18.39Q8.28 19.15 8.28 20.04M16.28 20.04Q16.28 20.94 16.73 21.70Q17.18 22.47 17.94 22.91Q18.70 23.36 19.60 23.36Q20.50 23.36 21.26 22.91Q22.02 22.47 22.47 21.70Q22.92 20.94 22.92 20.04Q22.92 19.15 22.47 18.39Q22.02 17.62 21.26 17.19Q20.50 16.75 19.60 16.75Q18.70 16.75 17.94 17.19Q17.18 17.62 16.73 18.39Q16.28 19.15 16.28 20.04M12.28 12.76Q12.28 13.65 12.73 14.41Q13.18 15.18 13.94 15.61Q14.70 16.05 15.60 16.05Q16.50 16.05 17.26 15.61Q18.02 15.18 18.47 14.41Q18.92 13.65 18.92 12.76Q18.92 11.86 18.47 11.10Q18.02 10.33 17.26 9.89Q16.50 9.44 15.60 9.44Q14.70 9.44 13.94 9.89Q13.18 10.33 12.73 11.10Q12.28 11.86 12.28 12.76"/>
</svg>