<?xml version="1.0" encoding="UTF-8"?>
<svg xmlns="http://www.w3.org/2000/svg" width="32" height="32" viewBox="0 0 32 32">
  <path fill="#b8383d" d="M17.31 17.92L17.31 17.84Q16.66 17.84 16.21 17.39Q15.76 16.94 15.76 16.30Q15.76 15.67 16.21 15.23Q16.66 14.80 17.31 14.80Q17.75 14.80 18.16 15.04Q18.56 15.28 18.76 15.72L20.03 15.72Q19.76 14.77 19.01 14.18Q18.27 13.60 17.31 13.60Q16.55 13.60 15.90 13.98Q15.25 14.36 14.87 15Q14.48 15.64 14.48 16.40Q14.48 17.16 14.87 17.80Q15.25 18.44 15.90 18.82Q16.55 19.20 17.31 19.20L21.28 19.20L21.28 17.92L17.31 17.92M12.64 19.12L12.64 13.60L13.91 13.60L13.91 19.12L12.64 19.12M11.44 15.80L11.44 14.52L12.72 14.52L12.72 15.80L11.44 15.80M21.48 10.52L10 10.52L7.11 16.40L8.56 19.31Q10 22.22 10 22.28L21.48 22.28Q22.54 22.28 23.32 21.50Q24.11 20.72 24.11 19.64L24.11 13.08Q24.11 12.05 23.35 11.29Q22.59 10.52 21.48 10.52M22.84 13.16L22.84 19.72Q22.84 20.26 22.45 20.63Q22.07 21 21.56 21L11 21L9.70 18.88Q8.36 16.73 8.36 16.56L11 11.88L21.56 11.88Q22.10 11.88 22.47 12.27Q22.84 12.65 22.84 13.16"/>
</svg>