<?xml version="1.0" encoding="UTF-8"?>
<svg xmlns="http://www.w3.org/2000/svg" width="32" height="32" viewBox="0 0 32 32">
  <path fill="#b8383d" d="M7.96 22.28Q8.01 21.92 8.23 21.60Q8.36 21.40 8.72 21.06Q9.07 20.72 10 20.21L10.24 20.04Q10.84 19.72 12.04 19.20Q12.09 19.20 12.15 19.15Q12.20 19.09 12.20 19.04Q13.21 17 13.64 15.96Q13.78 15.67 13.98 15.08Q14.19 14.50 14.32 14.20L14.32 14.12Q13.83 12.95 13.72 12.16Q13.51 11.23 13.64 10.12Q13.75 9.57 14.32 9Q14.40 8.92 14.76 8.92L15.44 8.92Q15.74 8.92 15.84 9.16Q16.12 9.36 16.44 9.84Q16.55 10.09 16.63 10.52L16.72 10.88Q16.72 11.56 16.61 12.35Q16.52 12.84 16.36 13.76L16.12 14.71L16.12 14.80Q16.74 15.94 17.99 17.32Q18.05 17.41 18.08 17.42Q18.10 17.43 18.24 17.41Q19.16 17.24 20.96 17.24Q21.88 17.24 22.56 17.60Q23.08 17.92 23.24 18.20Q23.43 18.52 23.43 18.68L23.43 19.28Q23.43 19.58 23.16 19.72L23.08 19.80Q22.94 19.96 22.84 20.02Q22.67 20.15 22.48 20.13Q22.40 20.15 22.18 20.19Q21.96 20.24 21.88 20.24Q20.90 20.29 20.01 19.99Q19.19 19.72 18.32 19.12Q18.24 19.04 18.02 18.86Q17.80 18.68 17.72 18.60Q17.69 18.60 17.64 18.56Q17.59 18.52 17.56 18.52Q16.52 18.68 16.04 18.88Q15.68 18.96 15 19.16Q14.32 19.36 14 19.45Q13.94 19.45 13.90 19.50Q13.86 19.56 13.80 19.56Q13.21 20.64 12.36 21.76Q11.71 22.55 10.92 23.20Q10.46 23.50 10 23.64L9.32 23.64Q9.04 23.64 8.88 23.53Q8.56 23.42 8.32 23.17Q8.09 22.93 8.04 22.60Q7.96 22.60 7.96 22.28M15.87 16.89L15.44 16.32Q15.30 16.64 15 17.32Q14.70 18 14.59 18.36L16.63 17.84Q16.36 17.54 15.87 16.89M19.08 18.52Q19.82 19.01 20.80 19.28Q20.96 19.34 21.12 19.31Q21.20 19.28 21.35 19.22Q21.50 19.15 21.54 19Q21.58 18.85 21.48 18.77Q21.48 18.68 21.28 18.68Q21.20 18.66 20.97 18.62Q20.74 18.58 20.60 18.52Q19.84 18.39 19.08 18.52M10.76 21.30L11.08 20.92Q11.08 20.92 11.06 20.92L11.08 20.92Q10.35 21.27 9.64 21.84Q9.40 22 9.04 22.52L9.04 22.68L9.15 22.76L9.24 22.76L9.51 22.55Q9.72 22.41 9.83 22.36Q10.19 22.03 10.76 21.30M14.68 12.08L14.76 12.32Q14.78 12.32 14.81 12.32L14.76 12.32Q15 11.56 15 10.88Q15 10.36 14.92 10.12Q14.92 10.04 14.76 10.04Q14.70 10.04 14.66 10.08Q14.62 10.12 14.59 10.12Q14.46 10.28 14.43 10.50Q14.40 10.63 14.40 10.96Q14.40 11.40 14.48 11.64Q14.62 11.75 14.68 12.08"/>
</svg>