<?xml version="1.0" encoding="UTF-8"?>
<svg xmlns="http://www.w3.org/2000/svg" width="32" height="32" viewBox="0 0 32 32">
  <path fill="#cc6d2e" d="M23.24 15.88L23.24 15.48Q23 13.87 22.24 12.48Q21.48 11.34 20.44 10.44Q19.60 9.74 18.56 9.36Q15.19 8.05 12.04 9.68Q10.21 10.72 9.15 12.40Q8.56 13.33 8.26 14.22Q7.96 15.18 7.96 16.24L7.96 17.16Q8.20 19.15 9.15 20.64Q10.16 22.11 11.36 22.85Q12.31 23.50 13.12 23.72Q15 24.29 16.52 24.04Q20.77 23.42 22.56 19.56Q23.38 17.92 23.24 15.88M17.48 19.96Q17.01 20.21 16.44 20.26Q16.12 20.32 15.44 20.32Q14.13 20.32 12.72 19.45Q12.47 19.34 12.64 19.20L13.12 18.20L13.23 18.11L13.32 18.09Q14.27 18.82 15.60 18.96Q16.12 18.96 16.36 18.88Q16.80 18.77 16.96 18.28Q16.96 17.81 16.52 17.60Q16.04 17.32 15 17L14.89 16.97Q14.32 16.81 14.05 16.67Q13.56 16.45 13.32 16.16Q12.88 15.72 12.88 14.80Q12.93 13.82 13.56 13.24Q14.10 12.70 15 12.56Q16.69 12.32 18.16 13.24Q18.24 13.33 18.24 13.52L17.72 14.44Q17.69 14.52 17.67 14.54Q17.64 14.55 17.59 14.55L17.48 14.52Q16.91 14.20 16.42 14.03Q15.87 13.87 15.27 13.92Q15.16 13.92 15 13.97Q14.84 14.01 14.76 14.01Q14.54 14.17 14.43 14.32Q14.32 14.47 14.32 14.71Q14.32 15.15 14.69 15.39Q15.06 15.64 15.44 15.64Q15.71 15.72 16.31 15.88L17.04 16.07Q17.12 15.96 17.40 15.96Q17.12 15.96 17.04 16.05L17.69 16.32Q17.72 16.35 17.72 16.40L17.78 16.40Q17.80 16.43 17.80 16.48L17.91 16.56Q17.97 16.59 17.97 16.64L18.08 16.75Q18.46 17.08 18.58 17.73Q18.70 18.39 18.43 18.98Q18.16 19.66 17.48 19.96"/>
</svg>