<?xml version="1.0" encoding="UTF-8"?>
<svg xmlns="http://www.w3.org/2000/svg" width="32" height="32" viewBox="0 0 32 32">
  <path fill="#cc6d2e" d="M15.16 12.84L15.27 12.84L12.36 12.84L12.36 21.49L10.24 21.49L10.24 12.84L7.36 12.84L7.36 11.29L15.16 11.29L15.16 12.84M21.80 18.88Q21.80 18.58 21.69 18.36Q21.58 18.14 21.39 17.92Q21.23 17.79 20.90 17.62Q20.69 17.54 20.14 17.32L19.92 17.24Q18.16 16.73 17.12 15.96Q16.20 15.18 16.20 14.01Q16.20 12.73 17.31 11.97Q18.32 11.20 19.99 11.20Q21.67 11.20 22.75 12.16Q23.76 13.05 23.76 14.36L21.80 14.36Q21.80 13.98 21.68 13.71Q21.56 13.44 21.28 13.16Q20.74 12.76 19.92 12.76Q19.11 12.76 18.67 13.08Q18.24 13.41 18.24 14.01Q18.24 14.50 18.76 14.88Q18.97 15.04 19.41 15.20Q19.73 15.34 20.44 15.56Q22.10 16.05 22.97 16.79Q23.84 17.54 23.84 18.88Q23.84 19.53 23.58 20.06Q23.32 20.59 22.84 20.92Q21.80 21.68 20.12 21.68Q18.32 21.68 17.20 20.81Q15.93 19.80 16.04 18.36L18.08 18.36Q18.08 19.23 18.67 19.72Q18.92 19.91 19.33 20.02Q19.73 20.13 20.20 20.13Q21.12 20.13 21.48 19.80Q21.80 19.28 21.80 18.88"/>
</svg>