<?xml version="1.0" encoding="UTF-8"?>
<svg xmlns="http://www.w3.org/2000/svg" width="32" height="32" viewBox="0 0 32 32">
  <path fill="#9068b0" d="M9.04 15.96Q9.04 14.36 9.56 13.08Q10.08 11.80 10.91 10.97Q11.74 10.14 12.96 9.60Q13.91 9.16 15.44 9.16Q16.72 9.16 17.74 9.68Q18.76 10.20 19.44 10.88L17.56 13L17.34 12.84Q16.88 12.48 16.63 12.40L16.33 12.32Q15.79 12.16 15.44 12.16Q14.84 12.16 14.32 12.40Q13.75 12.70 13.40 13.18Q13.04 13.65 12.80 14.39Q12.55 15.12 12.55 15.96Q12.55 17.92 13.40 18.77Q13.83 19.31 14.38 19.56Q14.92 19.80 15.60 19.80Q16.28 19.80 16.80 19.56Q17.37 19.26 17.72 18.77L19.60 20.92Q18.81 21.81 17.72 22.36Q16.72 22.85 15.44 22.85Q14.24 22.85 12.96 22.44Q11.82 22.06 10.92 21.16Q10.54 20.75 10.19 20.10Q10 19.72 9.64 18.88Q9.04 17.68 9.04 15.96M17.48 15.20L17.48 13.76L16.28 13.76L16.28 15.20L14.92 15.20L14.92 16.40L16.28 16.40L16.28 17.92L17.48 17.92L17.48 16.40L18.84 16.40L18.84 15.20L17.48 15.20M24.20 15.12L22.56 15.12L22.56 13.44L21.12 13.44L21.12 15.12L19.52 15.12L19.52 16.56L21.12 16.56L21.12 18.36L22.56 18.36L22.56 16.56L24.20 16.56"/>
</svg>