<?xml version="1.0" encoding="UTF-8"?>
<svg xmlns="http://www.w3.org/2000/svg" width="32" height="32" viewBox="0 0 32 32">
  <path fill="#7fae42" d="M21.83 9.82L21.88 9.68Q22.70 11.88 23 13.49Q23.41 15.56 23.16 17.41Q22.78 20.34 20.52 22.36Q19.35 23.25 18.08 23.72Q16.72 24.21 15.36 24.12Q12.04 24.02 9.90 21.51Q7.77 19.01 8.04 15.80Q8.17 13.33 9.83 11.56Q11.47 9.33 14.76 8.76Q17.69 8.38 20.28 10.28Q20.80 10.72 20.96 10.77Q21.18 10.88 21.34 10.69Q21.45 10.55 21.72 9.93Q21.77 9.93 21.83 9.82M21.20 14.60Q20.63 17.16 18.08 19.28Q17.42 19.83 16.50 20.26Q15.93 20.53 14.73 20.97L14.24 21.16Q14.08 21.21 13.74 21.34Q13.40 21.46 13.23 21.51Q13.23 21.68 13.32 21.76Q13.83 21.73 14.92 21.70Q16.31 21.68 16.99 21.65Q18.10 21.57 19 21.40Q20.69 21.16 21.60 20.21Q22.51 19.26 22.84 17.52Q23.16 15.45 22.48 13Q22.35 12.56 22.10 11.67L21.80 10.61Q21.58 10.96 21.48 10.96Q20.47 12.51 18.32 13.52Q17.69 13.79 16.82 13.92Q16.28 14.01 15.22 14.06L14.68 14.12Q12.77 14.25 11.68 15.12Q11.03 15.61 10.64 16.43Q10.24 17.24 10.23 18.10Q10.21 18.96 10.60 19.64Q10.89 20.26 11.30 20.44Q11.71 20.62 12.36 20.48Q12.58 20.43 13 20.30Q13.42 20.18 13.64 20.13Q16.31 19.45 18.08 18.25Q20.06 16.86 21.20 14.60M10.92 20.81Q10.68 20.81 10.50 21.02Q10.32 21.24 10.32 21.50Q10.32 21.76 10.54 21.92Q10.76 22.08 11 22.08Q11.25 22.08 11.42 21.88Q11.60 21.68 11.60 21.38Q11.60 21.08 11.45 20.94Q11.30 20.81 10.92 20.81"/>
</svg>