<?xml version="1.0" encoding="UTF-8"?>
<svg xmlns="http://www.w3.org/2000/svg" width="32" height="32" viewBox="0 0 32 32">
  <path fill="#cc6d2e" d="M8.28 16.16Q8.28 15.80 8.20 15.72Q8.07 15.58 7.86 15.60Q7.66 15.61 7.60 15.80Q7.41 16.13 7.58 16.41Q7.74 16.70 8.12 16.84Q8.39 16.89 8.60 16.86Q8.80 16.84 8.96 16.64Q9.83 15.96 10.24 15.56L10.49 15.34Q10.98 14.90 11.25 14.74Q11.68 14.41 12.12 14.28Q13.89 13.68 15 14.69L15.68 15.37Q15.76 15.20 15.93 15.04Q16.74 14.12 17.99 14.12Q19.38 14.12 20.44 15.04Q20.69 15.26 21.16 15.68Q21.64 16.10 21.88 16.32Q22.29 16.70 22.73 16.84Q23.05 16.89 23.34 16.74Q23.62 16.59 23.75 16.29Q23.87 15.99 23.60 15.72Q23.35 15.50 23.08 15.64Q22.94 15.69 22.89 15.82Q22.84 15.94 22.92 16.05L22.92 16.16Q22.56 15.91 22.56 15.48Q22.56 15.04 23.08 14.88Q23.65 14.69 24.15 14.97Q24.66 15.26 24.77 15.88Q24.93 16.84 24.60 17.52Q24.44 17.92 24.06 18.17Q23.76 18.39 23.24 18.52Q22.43 18.77 21.53 18.63Q20.80 18.55 19.84 18.20L17.56 17.16Q16.01 16.45 14.57 16.84Q13.72 17.08 12.72 17.52L12.17 17.76Q11.08 18.25 10.49 18.44Q8.99 18.98 7.68 18.52Q6.05 17.92 6.16 16.24Q6.24 15.72 6.41 15.42Q6.60 15.07 7 14.96Q7.28 14.82 7.58 14.82Q7.88 14.82 8.12 14.96Q8.56 15.15 8.58 15.52Q8.61 15.88 8.28 16.16"/>
</svg>