<?xml version="1.0" encoding="UTF-8"?>
<svg xmlns="http://www.w3.org/2000/svg" width="32" height="32" viewBox="0 0 32 32">
  <path fill="#498ba7" d="M17.56 11.29Q16.85 11.29 16.38 10.93Q15.90 10.58 15.76 9.93Q15.65 9.22 16.20 8.68Q16.58 8.21 17.16 8.09Q17.75 7.97 18.32 8.16Q18.84 8.35 19.12 8.78Q19.41 9.22 19.35 9.76Q19.35 10.28 19.04 10.65Q18.73 11.01 18.16 11.20Q17.88 11.29 17.56 11.29M16.12 9.76Q16.12 10.01 16.27 10.18Q16.42 10.36 16.62 10.36Q16.82 10.36 16.97 10.18Q17.12 10.01 17.12 9.76Q17.12 9.52 16.97 9.34Q16.82 9.16 16.63 9.16Q16.42 9.25 16.27 9.41Q16.12 9.57 16.12 9.76M12.72 8.24L13.12 8.24Q13.89 8.24 14.38 8.62Q14.78 8.97 14.88 9.50Q14.97 10.04 14.76 10.52Q14.40 11.34 13.32 11.48Q12.69 11.59 12.16 11.27Q11.63 10.96 11.44 10.36Q11.19 9.68 11.56 9.06Q11.93 8.43 12.72 8.24M12.80 9.95L12.80 9.93Q12.80 9.68 12.64 9.52Q12.47 9.36 12.28 9.36Q12.09 9.36 11.93 9.52Q11.76 9.68 11.76 9.94Q11.76 10.20 11.93 10.36Q12.09 10.52 12.28 10.52Q12.47 10.52 12.64 10.36Q12.80 10.20 12.80 9.95M15.52 10.80Q15.84 10.80 16.02 10.86Q16.20 10.93 16.27 11.10Q16.33 11.26 16.28 11.40L16.28 11.48L16.36 11.56Q16.52 11.64 16.77 11.88Q17.01 12.13 16.88 12.40Q16.82 12.54 16.66 12.59Q16.50 12.65 16.36 12.56Q16.31 12.56 16.20 12.51Q16.09 12.46 16.04 12.40Q15.65 12.27 15.27 12.40Q14.92 12.56 14.76 12.56Q14.19 12.56 14.32 12.08Q14.32 11.72 14.68 11.56L14.70 11.53Q14.76 11.53 14.76 11.48Q14.70 11.29 14.76 11.19Q14.81 11.10 14.97 10.99L15.08 10.88Q15.16 10.80 15.52 10.80M15.44 11.72Q15.76 11.72 16.12 11.56Q16.47 11.31 16.20 11.04Q16.14 10.99 16.04 10.93Q15.93 10.88 15.84 10.88Q15.65 10.82 15.44 10.86Q15.22 10.91 15.08 11.04Q14.89 11.23 14.95 11.41Q15 11.59 15.25 11.64Q15.19 11.69 15.23 11.71Q15.27 11.72 15.44 11.72M16.20 12.65L16.20 13.08L16.20 13.24Q16.20 13.38 16.13 13.49Q16.06 13.60 15.94 13.60Q15.82 13.60 15.71 13.50Q15.60 13.41 15.60 13.33Q15.55 13.16 15.57 12.81L15.60 12.48Q15.60 12.43 15.61 12.42Q15.63 12.40 15.68 12.40Q15.95 12.40 16.12 12.56Q16.17 12.56 16.17 12.62L16.20 12.65M15.44 12.56L15.44 12.92L15.44 13.16Q15.44 13.33 15.27 13.52Q15.14 13.63 15.02 13.60Q14.89 13.57 14.82 13.41Q14.76 13.24 14.76 12.76Q14.76 12.67 14.77 12.66Q14.78 12.65 14.85 12.63Q14.92 12.62 15.10 12.58Q15.27 12.54 15.34 12.51Q15.41 12.48 15.42 12.50Q15.44 12.51 15.44 12.56M10.92 25.76L10.76 25.76L10.65 25.68Q10.49 25.54 10.40 25.40Q10.27 25.27 10.30 25.09Q10.32 24.91 10.47 24.72Q10.62 24.53 11.08 24.23L11.28 24.12Q10.35 23.34 10.08 22Q9.97 21.62 9.92 21.05Q9.92 20.72 9.92 20.04Q9.92 19.56 10 18.58Q10.08 17.60 10.08 17.08Q9.56 17.41 9.24 17.52L9.04 17.52Q8.80 17.24 8.80 17Q8.80 16.84 9.04 16.56Q9.43 16.32 9.92 16.32Q10.02 16.32 10.05 16.28Q10.08 16.24 10.08 16.16Q9.92 14.44 9.92 13.60Q9.75 12.13 10 10.96Q10.05 10.63 10.02 10.58Q10 10.52 9.72 10.44Q9.43 10.25 9.25 9.91Q9.07 9.57 9.15 9.25Q9.26 8.57 9.90 8.28Q10.54 8 11.19 8.32Q11.30 8.46 11.44 8.32Q12.09 7.78 12.80 7.56Q14.92 6.83 17.20 7.21Q18.51 7.37 19.35 8.08Q19.57 8.29 19.84 8.16Q20.36 7.89 20.88 8.06Q21.39 8.24 21.64 8.74Q21.88 9.25 21.71 9.68Q21.53 10.12 20.96 10.36L20.88 10.44L20.88 10.52Q21.20 11.67 21.20 13.16Q21.20 15.12 21.28 16.16Q21.28 16.26 21.31 16.30Q21.34 16.35 21.48 16.40Q21.88 16.40 22.32 16.84Q22.45 16.94 22.45 17.04Q22.45 17.13 22.32 17.32L22.32 17.43Q22.32 17.54 22.21 17.61Q22.10 17.68 21.96 17.68Q21.72 17.68 21.56 17.52Q21.50 17.52 21.42 17.47Q21.34 17.43 21.28 17.43L21.28 17.52Q21.28 17.76 21.34 18.25Q21.39 18.82 21.39 19.12Q21.39 20.04 21.37 20.48Q21.31 21.21 21.20 21.84Q20.93 23.28 20.12 24.23Q19.98 24.34 20.12 24.48Q20.55 24.78 20.80 25.24Q20.90 25.59 20.52 25.84Q20.41 25.95 20.31 25.93Q20.20 25.92 20.03 25.84L19.68 25.48L19.52 25.32Q19.35 25.13 19.24 25.08Q19.14 24.94 19 25.08Q17.75 25.76 16.04 25.76Q14.05 25.89 12.44 25.16L12.36 25.16Q12.28 25.24 12.02 25.36Q11.76 25.48 11.68 25.59Q11.52 25.46 11.30 25.54Q11.19 25.59 10.92 25.76M17.56 11.29Q17.99 11.29 18.16 11.20Q18.67 11.01 18.97 10.65Q19.27 10.28 19.35 9.76Q19.35 9.22 19.07 8.78Q18.78 8.35 18.31 8.16Q17.83 7.97 17.20 8.12Q16.58 8.27 16.20 8.68Q15.65 9.22 15.76 9.93Q15.90 10.58 16.38 10.93Q16.85 11.29 17.56 11.29M13.12 8.24L12.72 8.24Q11.93 8.38 11.56 8.99Q11.19 9.60 11.44 10.36Q11.63 10.93 12.15 11.23Q12.66 11.53 13.32 11.48Q14.29 11.34 14.76 10.52Q14.97 10.04 14.88 9.50Q14.78 8.97 14.38 8.62Q13.89 8.24 13.12 8.24M15.52 10.80Q15.16 10.80 15 10.88L14.95 10.91Q14.76 11.04 14.69 11.15Q14.62 11.26 14.68 11.48Q14.68 11.53 14.62 11.53L14.59 11.56Q14.24 11.72 14.24 12.08Q14.19 12.29 14.32 12.43Q14.46 12.56 14.65 12.56Q14.84 12.56 15.16 12.40Q15.55 12.27 15.95 12.40Q15.98 12.46 16.10 12.50Q16.23 12.54 16.28 12.56Q16.63 12.70 16.78 12.42Q16.93 12.13 16.72 11.88Q16.63 11.72 16.28 11.56Q16.20 11.56 16.20 11.40Q16.33 11.01 15.95 10.88Q15.84 10.80 15.52 10.80M16.20 13.24L16.20 13.08L16.20 12.65Q16.20 12.59 16.18 12.58Q16.17 12.56 16.10 12.55Q16.04 12.54 15.89 12.50Q15.74 12.46 15.68 12.43Q15.63 12.40 15.61 12.42Q15.60 12.43 15.60 12.48L15.57 12.73Q15.55 13.11 15.60 13.33Q15.60 13.46 15.71 13.56Q15.82 13.65 15.95 13.60Q16.06 13.60 16.13 13.49Q16.20 13.38 16.20 13.24M15.41 13L15.44 12.92L15.44 12.56Q15.44 12.51 15.42 12.50Q15.41 12.48 15.33 12.51Q15.25 12.54 15.08 12.58Q14.92 12.62 14.85 12.63Q14.78 12.65 14.76 12.70L14.76 12.76Q14.76 13.16 14.84 13.44Q14.89 13.57 15.02 13.60Q15.14 13.63 15.27 13.52Q15.44 13.33 15.44 13.16Q15.38 13.11 15.41 13M16.12 9.76Q16.12 9.52 16.27 9.34Q16.42 9.16 16.62 9.16Q16.82 9.16 16.97 9.34Q17.12 9.52 17.12 9.76Q17.12 10.01 16.97 10.18Q16.82 10.36 16.62 10.36Q16.42 10.36 16.27 10.18Q16.12 10.01 16.12 9.76M17.04 9.93Q17.04 9.76 16.96 9.76Q16.88 9.76 16.88 9.94Q16.88 10.12 16.96 10.12L16.96 10.06Q16.99 9.98 17.04 9.93M12.80 9.93Q12.80 10.20 12.64 10.36Q12.47 10.52 12.28 10.52Q12.09 10.52 11.93 10.36Q11.76 10.20 11.76 9.94Q11.76 9.68 11.93 9.52Q12.09 9.36 12.28 9.36Q12.47 9.36 12.64 9.52Q12.80 9.68 12.80 9.93M12.55 10.20Q12.58 10.20 12.61 10.14L12.64 10.12Q12.64 9.93 12.57 9.93Q12.50 9.93 12.47 9.98L12.44 10.04Q12.39 10.09 12.43 10.14Q12.47 10.20 12.55 10.20M15.44 11.72Q15.16 11.72 15.08 11.64Q14.84 11.59 14.81 11.42Q14.78 11.26 14.92 11.04Q15.36 10.77 15.68 10.88Q15.84 10.88 16.01 11.03Q16.17 11.18 16.14 11.34Q16.12 11.50 15.95 11.56Q15.76 11.72 15.44 11.72M17.04 9.93Q17.04 10.12 16.96 10.12Q16.88 10.12 16.88 9.94Q16.88 9.76 16.96 9.76L16.96 9.82Q16.99 9.90 17.04 9.93M12.55 10.20Q12.44 10.20 12.44 10.04Q12.44 9.93 12.46 9.90Q12.47 9.87 12.55 9.93Q12.64 9.93 12.64 10.12Q12.64 10.17 12.62 10.18Q12.61 10.20 12.55 10.20"/>
</svg>