<?xml version="1.0" encoding="UTF-8"?>
<svg xmlns="http://www.w3.org/2000/svg" width="32" height="32" viewBox="0 0 32 32">
  <path fill="#cc6d2e" d="M21.12 8.84L10.08 8.84Q9.18 8.84 8.57 9.45Q7.96 10.06 7.96 10.96L7.96 21.84Q7.96 22.74 8.57 23.35Q9.18 23.96 10.08 23.96L21.04 23.96Q21.94 23.96 22.55 23.35Q23.16 22.74 23.16 21.84L23.16 10.96Q23.22 10.06 22.62 9.45Q22.02 8.84 21.12 8.84M12.12 22.28Q11.22 22.28 10.57 21.61Q9.92 20.94 9.92 20.06Q9.92 19.17 10.57 18.51Q11.22 17.84 12.12 17.84Q13.02 17.84 13.67 18.51Q14.32 19.17 14.32 20.07Q14.32 20.97 13.68 21.62Q13.04 22.28 12.12 22.28M15.36 16.73L15.44 16.73L10 16.73L10 15.28L15.36 15.28L15.36 16.73M15.36 14.60L15.44 14.60L10 14.60L10 13.16L15.36 13.16L15.36 14.60M15.36 12.48L15.44 12.48L10 12.48L10 11.12L15.36 11.12L15.36 12.48M21.20 17.24L21.20 18.68L15.84 18.68L15.84 17.24L21.20 17.24M21.20 15.20L21.20 16.64L15.84 16.64L15.84 15.20L21.20 15.20M21.20 13.08L21.20 14.52L15.84 14.52L15.84 13.08L21.20 13.08M21.20 11.04L21.20 12.48L15.84 12.48L15.84 11.04"/>
</svg>