<?xml version="1.0" encoding="UTF-8"?>
<svg xmlns="http://www.w3.org/2000/svg" width="32" height="32" viewBox="0 0 32 32">
  <path fill="#498ba7" d="M8.91 8.76L22.29 8.76Q22.70 8.76 22.97 9.03Q23.24 9.30 23.24 9.71L23.24 23.09Q23.24 23.50 22.97 23.77Q22.70 24.04 22.29 24.04L8.91 24.04Q8.50 24.04 8.23 23.77Q7.96 23.50 7.96 23.09L7.96 9.71Q7.96 9.30 8.23 9.03Q8.50 8.76 8.91 8.76M14.68 16.75L16.55 16.75L16.55 15.45L11.30 15.45L11.30 16.75L13.18 16.75L13.18 22.60L14.68 22.60L14.68 16.75M17.07 21.02L17.07 22.68Q17.48 22.90 17.98 23Q18.48 23.09 19.04 23.09Q19.60 23.09 20.10 22.98Q20.60 22.87 21 22.60Q21.39 22.33 21.61 21.92Q21.83 21.51 21.83 20.89Q21.83 20.43 21.69 20.10Q21.56 19.77 21.31 19.50Q21.07 19.23 20.73 19.01Q20.39 18.79 20.01 18.63Q19.71 18.49 19.48 18.37Q19.24 18.25 19.07 18.13Q18.89 18 18.78 17.84Q18.67 17.68 18.67 17.50Q18.67 17.32 18.77 17.19Q18.86 17.05 19.01 16.96Q19.16 16.86 19.38 16.81Q19.60 16.75 19.87 16.75Q20.52 16.75 21.12 17.05Q21.34 17.13 21.50 17.27L21.50 15.72Q21.12 15.58 20.74 15.50Q20.25 15.45 19.76 15.45Q19.22 15.45 18.71 15.57Q18.21 15.69 17.84 15.96Q17.48 16.24 17.26 16.64Q17.04 17.05 17.04 17.65Q17.04 18.39 17.44 18.90Q17.83 19.42 18.65 19.77L19.24 20.04Q19.52 20.18 19.72 20.33Q19.92 20.48 20.05 20.66Q20.17 20.83 20.17 21.02Q20.17 21.38 19.87 21.57Q19.73 21.68 19.49 21.73Q19.24 21.79 18.97 21.79Q18.46 21.79 17.97 21.60Q17.48 21.40 17.07 21.02"/>
</svg>