<?xml version="1.0" encoding="UTF-8"?>
<svg xmlns="http://www.w3.org/2000/svg" width="32" height="32" viewBox="0 0 32 32">
  <path fill="#b8383d" d="M20.52 19.28L19.92 18.36L17.12 18.36L16.80 19.12L16.72 19.31Q16.61 19.58 16.61 19.72Q16.63 20.10 16.88 20.24Q16.93 20.29 17.26 20.32L17.64 20.40L17.64 20.64L15 20.64L15 20.40Q15.52 20.24 15.68 20.04Q15.98 19.75 16.36 18.88L19.16 12.56L19.24 12.56L22.07 19.04Q22.45 19.94 22.75 20.24Q23.08 20.40 23.32 20.40L23.32 20.64L19.52 20.64L19.52 20.40L19.84 20.40Q20.20 20.40 20.52 20.24Q20.71 20.04 20.69 19.96L20.69 19.72L20.52 19.28M17.40 17.84L19.76 17.84L18.56 15.12L17.40 17.84M7.68 22.28L7.68 21.84Q8.26 21.84 8.68 21.24Q9.10 20.64 9.40 19.80L13.12 10.52L13.64 10.52L17.48 19.45Q17.80 20.26 18.27 21.16L18.40 21.40Q18.62 21.84 19.35 21.84L19.35 22.28L13.80 22.28L13.80 21.84Q14.57 21.84 14.92 21.68Q15.16 21.54 15.16 21.16Q15.16 21.02 15.08 20.75L15 20.56Q14.84 20.24 14.76 19.96L14.32 18.96L10.51 18.96L10 20.32Q9.72 20.94 9.72 21.24Q9.72 21.62 10.24 21.76Q10.40 21.84 11.08 21.84L11.08 22.28L7.68 22.28M10.76 18.28L14.08 18.28L12.44 14.36L12.28 14.36"/>
</svg>