<?xml version="1.0" encoding="UTF-8"?>
<svg xmlns="http://www.w3.org/2000/svg" width="32" height="32" viewBox="0 0 32 32">
  <path fill="#cc6d2e" d="M15.84 9.82L17.78 13.73L15.84 15.53L14.05 11.91L14.97 9.82Q15.16 9.52 15.41 9.52Q15.65 9.52 15.84 9.82M14.05 11.91L15.84 15.53L8.64 22.22L14.05 11.91M8.64 22.22L19.90 10.99Q20.14 10.72 20.37 10.80Q20.60 10.88 20.69 11.23L22.56 22.14L16.33 25.87Q16.20 25.95 15.84 26L15.55 26.03L15.25 26Q14.95 25.95 14.81 25.87L8.64 22.22M11.66 7.04L14.05 11.91L8.64 22.22L11.06 7.15Q11.11 6.80 11.29 6.76Q11.47 6.72 11.66 7.04"/>
</svg>